<?xml version="1.0" encoding="UTF-8" standalone="no"?>
<!DOCTYPE svg PUBLIC "-//W3C//DTD SVG 1.1//EN" "http://www.w3.org/Graphics/SVG/1.1/DTD/svg11.dtd">
<svg xmlns="http://www.w3.org/2000/svg" xmlns:xlink="http://www.w3.org/1999/xlink" version="1.1" width="1224pt" height="540pt" viewBox="0 0 1224 540">
<g enable-background="new">
<clipPath id="cp0">
<path transform="matrix(1,0,0,-1,0,540)" d="M 0 .00001206994 L 1224 .00001206994 L 1224 540 L 0 540 Z "/>
</clipPath>
<g clip-path="url(#cp0)">
<path transform="matrix(1,0,0,-1,0,540)" d="M 0 540 L 1224 540 L 1224 .00001206994 L 0 .00001206994 Z " fill="#ffffff"/>
</g>
<path transform="matrix(1,0,0,-1,0,540)" d="M 0 540 L 1224 540 L 1224 .0000140816 L 0 .0000140816 Z " fill="#ffffff"/>
<path transform="matrix(.00007874016,0,0,.00007874016,0,0)" stroke-width="76200" stroke-linecap="butt" stroke-miterlimit="8" stroke-linejoin="miter" fill="none" stroke="#000000" d="M 0 0 L 6858000 0 L 6858000 6858000 L 0 6858000 Z "/>
<path transform="matrix(1,0,0,-1,0,540)" d="M 14.02803 95.26937 C 14.02803 129.0692 41.4282 156.4694 75.22803 156.4694 C 109.0279 156.4694 136.428 129.0692 136.428 95.26937 C 136.428 61.46955 109.0279 34.06937 75.22803 34.06937 C 41.4282 34.06937 14.02803 61.46955 14.02803 95.26937 Z " fill="#f9e7b1" fill-rule="evenodd"/>
<path transform="matrix(1,0,0,-1,0,540)" d="M 12.74827 295.7554 C 12.74827 329.5552 40.14844 356.9554 73.94827 356.9554 C 107.7481 356.9554 135.1483 329.5552 135.1483 295.7554 C 135.1483 261.9555 107.7481 234.5554 73.94827 234.5554 C 40.14844 234.5554 12.74827 261.9555 12.74827 295.7554 Z " fill="#f9e7b1" fill-rule="evenodd"/>
<path transform="matrix(1,0,0,-1,0,540)" d="M 126.6873 390.1811 C 126.6873 423.9809 154.0875 451.3811 187.8873 451.3811 C 221.6871 451.3811 249.0873 423.9809 249.0873 390.1811 C 249.0873 356.3813 221.6871 328.9811 187.8873 328.9811 C 154.0875 328.9811 126.6873 356.3813 126.6873 390.1811 Z " fill="#f9e7b1" fill-rule="evenodd"/>
<path transform="matrix(1,0,0,-1,0,540)" d="M 11.44787 469.0492 C 11.44787 502.849 38.84805 530.2492 72.64787 530.2492 C 106.4477 530.2492 133.8479 502.849 133.8479 469.0492 C 133.8479 435.2494 106.4477 407.8492 72.64787 407.8492 C 38.84805 407.8492 11.44787 435.2494 11.44787 469.0492 Z " fill="#f9e7b1" fill-rule="evenodd"/>
<path transform="matrix(1,0,0,-1,0,540)" d="M 36.64787 469.0492 C 36.64787 488.9315 52.76562 505.0492 72.64787 505.0492 C 92.53012 505.0492 108.6479 488.9315 108.6479 469.0492 C 108.6479 449.167 92.53012 433.0492 72.64787 433.0492 C 52.76562 433.0492 36.64787 449.167 36.64787 469.0492 Z " fill="#5b9bd5" fill-rule="evenodd"/>
<path transform="matrix(.00007874016,0,0,.00007874016,36.64787,34.950807)" stroke-width="12700" stroke-linecap="butt" stroke-miterlimit="8" stroke-linejoin="miter" fill="none" stroke="#5b9bd5" d="M 0 457200 C 0 204695.4 204695.4 0 457200 0 C 709704.6 0 914400 204695.4 914400 457200 C 914400 709704.6 709704.6 914400 457200 914400 C 204695.4 914400 0 709704.6 0 457200 Z "/>
<path transform="matrix(1,0,0,-1,0,540)" d="M 151.8873 390.1811 C 151.8873 410.0634 168.0051 426.1811 187.8873 426.1811 C 207.7696 426.1811 223.8873 410.0634 223.8873 390.1811 C 223.8873 370.2989 207.7696 354.1811 187.8873 354.1811 C 168.0051 354.1811 151.8873 370.2989 151.8873 390.1811 Z " fill="#5b9bd5" fill-rule="evenodd"/>
<path transform="matrix(.00007874016,0,0,.00007874016,151.8873,113.81891)" stroke-width="12700" stroke-linecap="butt" stroke-miterlimit="8" stroke-linejoin="miter" fill="none" stroke="#5b9bd5" d="M 0 457200 C 0 204695.4 204695.4 0 457200 0 C 709704.6 0 914400 204695.4 914400 457200 C 914400 709704.6 709704.6 914400 457200 914400 C 204695.4 914400 0 709704.6 0 457200 Z "/>
<path transform="matrix(1,0,0,-1,0,540)" d="M 37.94827 295.7554 C 37.94827 315.6376 54.06602 331.7554 73.94827 331.7554 C 93.83051 331.7554 109.9483 315.6376 109.9483 295.7554 C 109.9483 275.8731 93.83051 259.7554 73.94827 259.7554 C 54.06602 259.7554 37.94827 275.8731 37.94827 295.7554 Z " fill="#5b9bd5" fill-rule="evenodd"/>
<path transform="matrix(.00007874016,0,0,.00007874016,37.94827,208.2446)" stroke-width="12700" stroke-linecap="butt" stroke-miterlimit="8" stroke-linejoin="miter" fill="none" stroke="#5b9bd5" d="M 0 457200 C 0 204695.4 204695.4 0 457200 0 C 709704.6 0 914400 204695.4 914400 457200 C 914400 709704.6 709704.6 914400 457200 914400 C 204695.4 914400 0 709704.6 0 457200 Z "/>
<path transform="matrix(1,0,0,-1,0,540)" d="M 39.22803 95.26938 C 39.22803 115.1516 55.34578 131.2694 75.22803 131.2694 C 95.11028 131.2694 111.228 115.1516 111.228 95.26938 C 111.228 75.38713 95.11028 59.26938 75.22803 59.26938 C 55.34578 59.26938 39.22803 75.38713 39.22803 95.26938 Z " fill="#5b9bd5" fill-rule="evenodd"/>
<path transform="matrix(.00007874016,0,0,.00007874016,39.22803,408.7306)" stroke-width="12700" stroke-linecap="butt" stroke-miterlimit="8" stroke-linejoin="miter" fill="none" stroke="#5b9bd5" d="M 0 457200 C 0 204695.4 204695.4 0 457200 0 C 709704.6 0 914400 204695.4 914400 457200 C 914400 709704.6 709704.6 914400 457200 914400 C 204695.4 914400 0 709704.6 0 457200 Z "/>
<path transform="matrix(1,0,0,-1,0,540)" d="M 185.1077 125.4766 C 215.5766 140.1079 252.1375 127.269 266.7688 96.80008 C 281.4 66.33118 268.5611 29.77026 238.0922 15.13898 C 207.6233 .5077055 171.0624 13.34664 156.4311 43.81554 C 141.7998 74.28444 154.6388 110.8454 185.1077 125.4766 Z " fill="#f9e7b1" fill-rule="evenodd"/>
<path transform="matrix(1,0,0,-1,0,540)" d="M 146.5575 260.0433 C 177.0264 274.6746 213.5873 261.8357 228.2186 231.3668 C 242.8499 200.8979 230.0109 164.337 199.542 149.7057 C 169.0731 135.0744 132.5122 147.9133 117.8809 178.3822 C 103.2497 208.8511 116.0886 245.4121 146.5575 260.0433 Z " fill="#f9e7b1" fill-rule="evenodd"/>
<path transform="matrix(1,0,0,-1,0,540)" d="M 353.9065 142.5417 C 384.3754 157.173 420.9364 144.334 435.5676 113.8651 C 450.1989 83.39623 437.36 46.8353 406.8911 32.20403 C 376.4222 17.57275 339.8612 30.41169 325.23 60.88059 C 310.5987 91.34949 323.4376 127.9104 353.9065 142.5417 Z " fill="#f9e7b1" fill-rule="evenodd"/>
<path transform="matrix(1,0,0,-1,0,540)" d="M 419.1509 259.2995 C 449.6198 273.9307 486.1807 261.0918 500.812 230.6229 C 515.4432 200.154 502.6043 163.5931 472.1354 148.9618 C 441.6665 134.3305 405.1056 147.1695 390.4743 177.6384 C 375.843 208.1073 388.682 244.6682 419.1509 259.2995 Z " fill="#f9e7b1" fill-rule="evenodd"/>
<path transform="matrix(1,0,0,-1,0,540)" d="M 430.0595 236.5829 C 447.9824 245.1895 469.4888 237.6372 478.0954 219.7143 C 486.702 201.7915 479.1497 180.285 461.2268 171.6784 C 443.304 163.0718 421.7975 170.6241 413.1909 188.547 C 404.5843 206.4698 412.1366 227.9763 430.0595 236.5829 Z " fill="#5b9bd5" fill-rule="evenodd"/>
<path transform="matrix(.00003408505,.00007098043,-.00007098043,.00003408505,462.5117,287.8334)" stroke-width="12700" stroke-linecap="butt" stroke-miterlimit="8" stroke-linejoin="miter" fill="none" stroke="#5b9bd5" d="M 0 457200 C 0 204695.4 204695.4 0 457200 0 C 709704.6 0 914400 204695.4 914400 457200 C 914400 709704.6 709704.6 914400 457200 914400 C 204695.4 914400 0 709704.6 0 457200 Z "/>
<path transform="matrix(1,0,0,-1,0,540)" d="M 364.8151 119.8251 C 382.738 128.4317 404.2444 120.8794 412.8511 102.9565 C 421.4577 85.03366 413.9054 63.52723 395.9825 54.9206 C 378.0596 46.31397 356.5532 53.86628 347.9466 71.78916 C 339.3399 89.71205 346.8922 111.2185 364.8151 119.8251 Z " fill="#5b9bd5" fill-rule="evenodd"/>
<path transform="matrix(.00003408505,.00007098043,-.00007098043,.00003408505,397.2674,404.5912)" stroke-width="12700" stroke-linecap="butt" stroke-miterlimit="8" stroke-linejoin="miter" fill="none" stroke="#5b9bd5" d="M 0 457200 C 0 204695.4 204695.4 0 457200 0 C 709704.6 0 914400 204695.4 914400 457200 C 914400 709704.6 709704.6 914400 457200 914400 C 204695.4 914400 0 709704.6 0 457200 Z "/>
<path transform="matrix(1,0,0,-1,0,540)" d="M 157.4661 237.3267 C 175.389 245.9334 196.8954 238.3811 205.502 220.4582 C 214.1086 202.5353 206.5563 181.0289 188.6334 172.4222 C 170.7106 163.8156 149.2041 171.3679 140.5975 189.2908 C 131.9909 207.2137 139.5432 228.7201 157.4661 237.3267 Z " fill="#5b9bd5" fill-rule="evenodd"/>
<path transform="matrix(.00003408505,.00007098043,-.00007098043,.00003408505,189.9183,287.0896)" stroke-width="12700" stroke-linecap="butt" stroke-miterlimit="8" stroke-linejoin="miter" fill="none" stroke="#5b9bd5" d="M 0 457200 C 0 204695.4 204695.4 0 457200 0 C 709704.6 0 914400 204695.4 914400 457200 C 914400 709704.6 709704.6 914400 457200 914400 C 204695.4 914400 0 709704.6 0 457200 Z "/>
<path transform="matrix(1,0,0,-1,0,540)" d="M 196.0162 102.7601 C 213.9391 111.3667 235.4455 103.8144 244.0522 85.89149 C 252.6588 67.96861 245.1065 46.46218 227.1836 37.85555 C 209.2607 29.24892 187.7543 36.80123 179.1477 54.72412 C 170.541 72.647 178.0933 94.15342 196.0162 102.7601 Z " fill="#5b9bd5" fill-rule="evenodd"/>
<path transform="matrix(.00003408505,.00007098043,-.00007098043,.00003408505,228.4685,421.6563)" stroke-width="12700" stroke-linecap="butt" stroke-miterlimit="8" stroke-linejoin="miter" fill="none" stroke="#5b9bd5" d="M 0 457200 C 0 204695.4 204695.4 0 457200 0 C 709704.6 0 914400 204695.4 914400 457200 C 914400 709704.6 709704.6 914400 457200 914400 C 204695.4 914400 0 709704.6 0 457200 Z "/>
<path transform="matrix(1,0,0,-1,0,540)" d="M 267.5276 245.3466 C 295.3548 264.5319 333.466 257.5262 352.6512 229.6989 C 371.8365 201.8717 364.8308 163.7606 337.0036 144.5753 C 309.1764 125.3901 271.0652 132.3958 251.8799 160.223 C 232.6947 188.0502 239.7004 226.1613 267.5276 245.3466 Z " fill="#f9e7b1" fill-rule="evenodd"/>
<path transform="matrix(1,0,0,-1,0,540)" d="M 356.0811 383.3153 C 383.9083 402.5006 422.0194 395.4949 441.2047 367.6677 C 460.3899 339.8404 453.3843 301.7293 425.557 282.544 C 397.7298 263.3588 359.6187 270.3645 340.4334 298.1917 C 321.2482 326.0189 328.2539 364.1301 356.0811 383.3153 Z " fill="#f9e7b1" fill-rule="evenodd"/>
<path transform="matrix(1,0,0,-1,0,540)" d="M 276.9456 508.8864 C 304.7729 528.0717 342.884 521.066 362.0693 493.2388 C 381.2545 465.4116 374.2488 427.3004 346.4216 408.1151 C 318.5944 388.9299 280.4832 395.9356 261.298 423.7628 C 242.1127 451.59 249.1184 489.7012 276.9456 508.8864 Z " fill="#f9e7b1" fill-rule="evenodd"/>
<path transform="matrix(1,0,0,-1,0,540)" d="M 431.2193 520.5383 C 459.0465 539.7236 497.1577 532.7179 516.3429 504.8907 C 535.5282 477.0634 528.5225 438.9523 500.6953 419.767 C 472.8681 400.5818 434.7569 407.5875 415.5717 435.4147 C 396.3864 463.2419 403.3921 501.3531 431.2193 520.5383 Z " fill="#f9e7b1" fill-rule="evenodd"/>
<path transform="matrix(1,0,0,-1,0,540)" d="M 445.5232 499.7913 C 461.8922 511.0767 484.3105 506.9557 495.5959 490.5868 C 506.8814 474.2178 502.7604 451.7995 486.3914 440.5141 C 470.0225 429.2286 447.6041 433.3496 436.3187 449.7186 C 425.0333 466.0875 429.1543 488.5058 445.5232 499.7913 Z " fill="#5b9bd5" fill-rule="evenodd"/>
<path transform="matrix(.00004469402,.00006482636,-.00006482636,.00004469402,475.1618,19.774598)" stroke-width="12700" stroke-linecap="butt" stroke-miterlimit="8" stroke-linejoin="miter" fill="none" stroke="#5b9bd5" d="M 0 457200 C 0 204695.4 204695.4 0 457200 0 C 709704.6 0 914400 204695.4 914400 457200 C 914400 709704.6 709704.6 914400 457200 914400 C 204695.4 914400 0 709704.6 0 457200 Z "/>
<path transform="matrix(1,0,0,-1,0,540)" d="M 291.2495 488.1394 C 307.6185 499.4248 330.0368 495.3038 341.3222 478.9349 C 352.6077 462.5659 348.4867 440.1476 332.1177 428.8622 C 315.7488 417.5767 293.3304 421.6977 282.045 438.0667 C 270.7595 454.4356 274.8805 476.854 291.2495 488.1394 Z " fill="#5b9bd5" fill-rule="evenodd"/>
<path transform="matrix(.00004469402,.00006482636,-.00006482636,.00004469402,320.8881,31.426514)" stroke-width="12700" stroke-linecap="butt" stroke-miterlimit="8" stroke-linejoin="miter" fill="none" stroke="#5b9bd5" d="M 0 457200 C 0 204695.4 204695.4 0 457200 0 C 709704.6 0 914400 204695.4 914400 457200 C 914400 709704.6 709704.6 914400 457200 914400 C 204695.4 914400 0 709704.6 0 457200 Z "/>
<path transform="matrix(1,0,0,-1,0,540)" d="M 370.3849 362.5683 C 386.7539 373.8537 409.1722 369.7327 420.4576 353.3638 C 431.7431 336.9948 427.6221 314.5765 411.2531 303.2911 C 394.8842 292.0056 372.4659 296.1266 361.1804 312.4956 C 349.895 328.8645 354.016 351.2828 370.3849 362.5683 Z " fill="#5b9bd5" fill-rule="evenodd"/>
<path transform="matrix(.00004469402,.00006482636,-.00006482636,.00004469402,400.0235,156.99759)" stroke-width="12700" stroke-linecap="butt" stroke-miterlimit="8" stroke-linejoin="miter" fill="none" stroke="#5b9bd5" d="M 0 457200 C 0 204695.4 204695.4 0 457200 0 C 709704.6 0 914400 204695.4 914400 457200 C 914400 709704.6 709704.6 914400 457200 914400 C 204695.4 914400 0 709704.6 0 457200 Z "/>
<path transform="matrix(1,0,0,-1,0,540)" d="M 281.8315 224.5996 C 298.2004 235.885 320.6188 231.764 331.9042 215.3951 C 343.1897 199.0261 339.0687 176.6078 322.6997 165.3224 C 306.3308 154.0369 283.9124 158.1579 272.627 174.5269 C 261.3415 190.8958 265.4625 213.3141 281.8315 224.5996 Z " fill="#5b9bd5" fill-rule="evenodd"/>
<path transform="matrix(.00004469402,.00006482636,-.00006482636,.00004469402,311.4701,294.9663)" stroke-width="12700" stroke-linecap="butt" stroke-miterlimit="8" stroke-linejoin="miter" fill="none" stroke="#5b9bd5" d="M 0 457200 C 0 204695.4 204695.4 0 457200 0 C 709704.6 0 914400 204695.4 914400 457200 C 914400 709704.6 709704.6 914400 457200 914400 C 204695.4 914400 0 709704.6 0 457200 Z "/>
<path transform="matrix(.00007874016,0,0,.00007874016,683.2502,1.5516968)" stroke-width="76200" stroke-linecap="butt" stroke-miterlimit="8" stroke-linejoin="miter" fill="none" stroke="#000000" d="M 0 0 L 6858000 0 L 6858000 6858000 L 0 6858000 Z "/>
<path transform="matrix(1,0,0,-1,0,540)" d="M 751.8682 171.3099 C 751.8682 205.1097 779.2684 232.5099 813.0682 232.5099 C 846.868 232.5099 874.2682 205.1097 874.2682 171.3099 C 874.2682 137.51 846.868 110.1099 813.0682 110.1099 C 779.2684 110.1099 751.8682 137.51 751.8682 171.3099 Z " fill="#f9e7b1" fill-rule="evenodd"/>
<path transform="matrix(1,0,0,-1,0,540)" d="M 742.1591 242.9896 C 742.1591 276.7894 769.5593 304.1896 803.3591 304.1896 C 837.159 304.1896 864.5591 276.7894 864.5591 242.9896 C 864.5591 209.1898 837.159 181.7896 803.3591 181.7896 C 769.5593 181.7896 742.1591 209.1898 742.1591 242.9896 Z " fill="#f9e7b1" fill-rule="evenodd"/>
<path transform="matrix(1,0,0,-1,0,540)" d="M 739.9772 315.6987 C 739.9772 349.4985 767.3774 376.8987 801.1772 376.8987 C 834.9771 376.8987 862.3772 349.4985 862.3772 315.6987 C 862.3772 281.8988 834.9771 254.4987 801.1772 254.4987 C 767.3774 254.4987 739.9772 281.8988 739.9772 315.6987 Z " fill="#f9e7b1" fill-rule="evenodd"/>
<path transform="matrix(1,0,0,-1,0,540)" d="M 715.8682 382.8441 C 715.8682 416.6439 743.2684 444.0441 777.0682 444.0441 C 810.868 444.0441 838.2682 416.6439 838.2682 382.8441 C 838.2682 349.0443 810.868 321.6441 777.0682 321.6441 C 743.2684 321.6441 715.8682 349.0443 715.8682 382.8441 Z " fill="#f9e7b1" fill-rule="evenodd"/>
<path transform="matrix(1,0,0,-1,0,540)" d="M 741.0682 382.8441 C 741.0682 402.7263 757.1859 418.8441 777.0682 418.8441 C 796.9504 418.8441 813.0682 402.7263 813.0682 382.8441 C 813.0682 362.9618 796.9504 346.8441 777.0682 346.8441 C 757.1859 346.8441 741.0682 362.9618 741.0682 382.8441 Z " fill="#5b9bd5" fill-rule="evenodd"/>
<path transform="matrix(.00007874016,0,0,.00007874016,741.0682,121.155918)" stroke-width="12700" stroke-linecap="butt" stroke-miterlimit="8" stroke-linejoin="miter" fill="none" stroke="#5b9bd5" d="M 0 457200 C 0 204695.4 204695.4 0 457200 0 C 709704.6 0 914400 204695.4 914400 457200 C 914400 709704.6 709704.6 914400 457200 914400 C 204695.4 914400 0 709704.6 0 457200 Z "/>
<path transform="matrix(1,0,0,-1,0,540)" d="M 765.1772 315.6987 C 765.1772 335.5809 781.295 351.6987 801.1772 351.6987 C 821.0595 351.6987 837.1772 335.5809 837.1772 315.6987 C 837.1772 295.8164 821.0595 279.6987 801.1772 279.6987 C 781.295 279.6987 765.1772 295.8164 765.1772 315.6987 Z " fill="#5b9bd5" fill-rule="evenodd"/>
<path transform="matrix(.00007874016,0,0,.00007874016,765.1772,188.3013)" stroke-width="12700" stroke-linecap="butt" stroke-miterlimit="8" stroke-linejoin="miter" fill="none" stroke="#5b9bd5" d="M 0 457200 C 0 204695.4 204695.4 0 457200 0 C 709704.6 0 914400 204695.4 914400 457200 C 914400 709704.6 709704.6 914400 457200 914400 C 204695.4 914400 0 709704.6 0 457200 Z "/>
<path transform="matrix(1,0,0,-1,0,540)" d="M 767.3591 242.9896 C 767.3591 262.8719 783.4769 278.9896 803.3591 278.9896 C 823.2414 278.9896 839.3591 262.8719 839.3591 242.9896 C 839.3591 223.1074 823.2414 206.9896 803.3591 206.9896 C 783.4769 206.9896 767.3591 223.1074 767.3591 242.9896 Z " fill="#5b9bd5" fill-rule="evenodd"/>
<path transform="matrix(.00007874016,0,0,.00007874016,767.3591,261.0104)" stroke-width="12700" stroke-linecap="butt" stroke-miterlimit="8" stroke-linejoin="miter" fill="none" stroke="#5b9bd5" d="M 0 457200 C 0 204695.4 204695.4 0 457200 0 C 709704.6 0 914400 204695.4 914400 457200 C 914400 709704.6 709704.6 914400 457200 914400 C 204695.4 914400 0 709704.6 0 457200 Z "/>
<path transform="matrix(1,0,0,-1,0,540)" d="M 777.0682 171.3099 C 777.0682 191.1921 793.1859 207.3099 813.0682 207.3099 C 832.9504 207.3099 849.0682 191.1921 849.0682 171.3099 C 849.0682 151.4276 832.9504 135.3099 813.0682 135.3099 C 793.1859 135.3099 777.0682 151.4276 777.0682 171.3099 Z " fill="#5b9bd5" fill-rule="evenodd"/>
<path transform="matrix(.00007874016,0,0,.00007874016,777.0682,332.6901)" stroke-width="12700" stroke-linecap="butt" stroke-miterlimit="8" stroke-linejoin="miter" fill="none" stroke="#5b9bd5" d="M 0 457200 C 0 204695.4 204695.4 0 457200 0 C 709704.6 0 914400 204695.4 914400 457200 C 914400 709704.6 709704.6 914400 457200 914400 C 204695.4 914400 0 709704.6 0 457200 Z "/>
<path transform="matrix(1,0,0,-1,0,540)" d="M 927.2969 133.7266 C 957.7658 148.3579 994.3267 135.519 1008.958 105.0501 C 1023.589 74.58118 1010.75 38.02026 980.2814 23.38898 C 949.8125 8.757705 913.2516 21.59664 898.6203 52.06554 C 883.989 82.53444 896.828 119.0954 927.2969 133.7266 Z " fill="#f9e7b1" fill-rule="evenodd"/>
<path transform="matrix(1,0,0,-1,0,540)" d="M 987.7098 173.5076 C 1018.179 188.1388 1054.74 175.2999 1069.371 144.831 C 1084.002 114.3621 1071.163 77.80119 1040.694 63.16992 C 1010.225 48.53864 973.6645 61.37758 959.0332 91.84648 C 944.4019 122.3154 957.2409 158.8763 987.7098 173.5076 Z " fill="#f9e7b1" fill-rule="evenodd"/>
<path transform="matrix(1,0,0,-1,0,540)" d="M 1052.309 206.9488 C 1082.778 221.58 1119.339 208.7411 1133.97 178.2722 C 1148.601 147.8033 1135.762 111.2424 1105.294 96.6111 C 1074.825 81.97982 1038.264 94.81876 1023.632 125.2877 C 1009.001 155.7566 1021.84 192.3175 1052.309 206.9488 Z " fill="#f9e7b1" fill-rule="evenodd"/>
<path transform="matrix(1,0,0,-1,0,540)" d="M 1102.401 257.7478 C 1132.87 272.3791 1169.431 259.5401 1184.062 229.0712 C 1198.693 198.6023 1185.855 162.0414 1155.386 147.4101 C 1124.917 132.7789 1088.356 145.6178 1073.725 176.0867 C 1059.093 206.5556 1071.932 243.1165 1102.401 257.7478 Z " fill="#f9e7b1" fill-rule="evenodd"/>
<path transform="matrix(1,0,0,-1,0,540)" d="M 1113.31 235.0312 C 1131.233 243.6379 1152.739 236.0855 1161.346 218.1627 C 1169.952 200.2398 1162.4 178.7334 1144.477 170.1267 C 1126.554 161.5201 1105.048 169.0724 1096.441 186.9953 C 1087.835 204.9182 1095.387 226.4246 1113.31 235.0312 Z " fill="#5b9bd5" fill-rule="evenodd"/>
<path transform="matrix(.00003408505,.00007098043,-.00007098043,.00003408505,1145.762,289.3851)" stroke-width="12700" stroke-linecap="butt" stroke-miterlimit="8" stroke-linejoin="miter" fill="none" stroke="#5b9bd5" d="M 0 457200 C 0 204695.4 204695.4 0 457200 0 C 709704.6 0 914400 204695.4 914400 457200 C 914400 709704.6 709704.6 914400 457200 914400 C 204695.4 914400 0 709704.6 0 457200 Z "/>
<path transform="matrix(1,0,0,-1,0,540)" d="M 1063.218 184.2322 C 1081.141 192.8388 1102.647 185.2865 1111.254 167.3636 C 1119.86 149.4407 1112.308 127.9343 1094.385 119.3277 C 1076.462 110.721 1054.956 118.2734 1046.349 136.1962 C 1037.742 154.1191 1045.295 175.6255 1063.218 184.2322 Z " fill="#5b9bd5" fill-rule="evenodd"/>
<path transform="matrix(.00003408505,.00007098043,-.00007098043,.00003408505,1095.67,340.18409)" stroke-width="12700" stroke-linecap="butt" stroke-miterlimit="8" stroke-linejoin="miter" fill="none" stroke="#5b9bd5" d="M 0 457200 C 0 204695.4 204695.4 0 457200 0 C 709704.6 0 914400 204695.4 914400 457200 C 914400 709704.6 709704.6 914400 457200 914400 C 204695.4 914400 0 709704.6 0 457200 Z "/>
<path transform="matrix(1,0,0,-1,0,540)" d="M 998.6184 150.791 C 1016.541 159.3976 1038.048 151.8453 1046.654 133.9224 C 1055.261 115.9995 1047.709 94.49312 1029.786 85.88649 C 1011.863 77.27986 990.3565 84.83217 981.7499 102.7551 C 973.1432 120.6779 980.6955 142.1844 998.6184 150.791 Z " fill="#5b9bd5" fill-rule="evenodd"/>
<path transform="matrix(.00003408505,.00007098043,-.00007098043,.00003408505,1031.071,373.6253)" stroke-width="12700" stroke-linecap="butt" stroke-miterlimit="8" stroke-linejoin="miter" fill="none" stroke="#5b9bd5" d="M 0 457200 C 0 204695.4 204695.4 0 457200 0 C 709704.6 0 914400 204695.4 914400 457200 C 914400 709704.6 709704.6 914400 457200 914400 C 204695.4 914400 0 709704.6 0 457200 Z "/>
<path transform="matrix(1,0,0,-1,0,540)" d="M 938.2054 111.0101 C 956.1283 119.6167 977.6347 112.0644 986.2413 94.14149 C 994.848 76.21861 987.2957 54.71218 969.3728 46.10555 C 951.4499 37.49892 929.9435 45.05123 921.3368 62.97412 C 912.7302 80.897 920.2825 102.4034 938.2054 111.0101 Z " fill="#5b9bd5" fill-rule="evenodd"/>
<path transform="matrix(.00003408505,.00007098043,-.00007098043,.00003408505,970.6577,413.4063)" stroke-width="12700" stroke-linecap="butt" stroke-miterlimit="8" stroke-linejoin="miter" fill="none" stroke="#5b9bd5" d="M 0 457200 C 0 204695.4 204695.4 0 457200 0 C 709704.6 0 914400 204695.4 914400 457200 C 914400 709704.6 709704.6 914400 457200 914400 C 204695.4 914400 0 709704.6 0 457200 Z "/>
<path transform="matrix(1,0,0,-1,0,540)" d="M 930.8023 324.5907 C 958.6295 343.7759 996.7407 336.7702 1015.926 308.943 C 1035.111 281.1158 1028.105 243.0047 1000.278 223.8194 C 972.4511 204.6341 934.3399 211.6398 915.1547 239.4671 C 895.9694 267.2943 902.9751 305.4054 930.8023 324.5907 Z " fill="#f9e7b1" fill-rule="evenodd"/>
<path transform="matrix(1,0,0,-1,0,540)" d="M 984.305 373.2705 C 1012.132 392.4558 1050.243 385.4501 1069.429 357.6229 C 1088.614 329.7956 1081.608 291.6845 1053.781 272.4992 C 1025.954 253.314 987.8426 260.3197 968.6573 288.1469 C 949.472 315.9741 956.4777 354.0853 984.305 373.2705 Z " fill="#f9e7b1" fill-rule="evenodd"/>
<path transform="matrix(1,0,0,-1,0,540)" d="M 1042.927 416.3375 C 1070.755 435.5228 1108.866 428.5171 1128.051 400.6899 C 1147.236 372.8627 1140.231 334.7515 1112.403 315.5663 C 1084.576 296.381 1046.465 303.3867 1027.28 331.2139 C 1008.095 359.0411 1015.1 397.1523 1042.927 416.3375 Z " fill="#f9e7b1" fill-rule="evenodd"/>
<path transform="matrix(1,0,0,-1,0,540)" d="M 1084.523 474.2991 C 1112.35 493.4844 1150.462 486.4787 1169.647 458.6514 C 1188.832 430.8242 1181.826 392.7131 1153.999 373.5278 C 1126.172 354.3426 1088.061 361.3483 1068.876 389.1755 C 1049.69 417.0027 1056.696 455.1138 1084.523 474.2991 Z " fill="#f9e7b1" fill-rule="evenodd"/>
<path transform="matrix(1,0,0,-1,0,540)" d="M 1098.827 453.5521 C 1115.196 464.8375 1137.614 460.7165 1148.9 444.3476 C 1160.185 427.9786 1156.064 405.5603 1139.695 394.2749 C 1123.326 382.9894 1100.908 387.1104 1089.623 403.4794 C 1078.337 419.8483 1082.458 442.2666 1098.827 453.5521 Z " fill="#5b9bd5" fill-rule="evenodd"/>
<path transform="matrix(.00004469402,.00006482636,-.00006482636,.00004469402,1128.466,66.013797)" stroke-width="12700" stroke-linecap="butt" stroke-miterlimit="8" stroke-linejoin="miter" fill="none" stroke="#5b9bd5" d="M 0 457200 C 0 204695.4 204695.4 0 457200 0 C 709704.6 0 914400 204695.4 914400 457200 C 914400 709704.6 709704.6 914400 457200 914400 C 204695.4 914400 0 709704.6 0 457200 Z "/>
<path transform="matrix(1,0,0,-1,0,540)" d="M 1057.231 395.5905 C 1073.6 406.8759 1096.019 402.7549 1107.304 386.386 C 1118.589 370.017 1114.468 347.5987 1098.099 336.3133 C 1081.731 325.0278 1059.312 329.1488 1048.027 345.5178 C 1036.741 361.8867 1040.862 384.3051 1057.231 395.5905 Z " fill="#5b9bd5" fill-rule="evenodd"/>
<path transform="matrix(.00004469402,.00006482636,-.00006482636,.00004469402,1086.87,123.9754)" stroke-width="12700" stroke-linecap="butt" stroke-miterlimit="8" stroke-linejoin="miter" fill="none" stroke="#5b9bd5" d="M 0 457200 C 0 204695.4 204695.4 0 457200 0 C 709704.6 0 914400 204695.4 914400 457200 C 914400 709704.6 709704.6 914400 457200 914400 C 204695.4 914400 0 709704.6 0 457200 Z "/>
<path transform="matrix(1,0,0,-1,0,540)" d="M 998.6088 352.5235 C 1014.978 363.8089 1037.396 359.6879 1048.682 343.319 C 1059.967 326.95 1055.846 304.5317 1039.477 293.2463 C 1023.108 281.9608 1000.69 286.0818 989.4043 302.4508 C 978.1188 318.8197 982.2398 341.2381 998.6088 352.5235 Z " fill="#5b9bd5" fill-rule="evenodd"/>
<path transform="matrix(.00004469402,.00006482636,-.00006482636,.00004469402,1028.247,167.04239)" stroke-width="12700" stroke-linecap="butt" stroke-miterlimit="8" stroke-linejoin="miter" fill="none" stroke="#5b9bd5" d="M 0 457200 C 0 204695.4 204695.4 0 457200 0 C 709704.6 0 914400 204695.4 914400 457200 C 914400 709704.6 709704.6 914400 457200 914400 C 204695.4 914400 0 709704.6 0 457200 Z "/>
<path transform="matrix(1,0,0,-1,0,540)" d="M 945.1062 303.8437 C 961.4751 315.1291 983.8935 311.0081 995.1789 294.6392 C 1006.464 278.2702 1002.343 255.8519 985.9744 244.5664 C 969.6055 233.281 947.1871 237.402 935.9017 253.7709 C 924.6162 270.1399 928.7372 292.5582 945.1062 303.8437 Z " fill="#5b9bd5" fill-rule="evenodd"/>
<path transform="matrix(.00004469402,.00006482636,-.00006482636,.00004469402,974.7448,215.7222)" stroke-width="12700" stroke-linecap="butt" stroke-miterlimit="8" stroke-linejoin="miter" fill="none" stroke="#5b9bd5" d="M 0 457200 C 0 204695.4 204695.4 0 457200 0 C 709704.6 0 914400 204695.4 914400 457200 C 914400 709704.6 709704.6 914400 457200 914400 C 204695.4 914400 0 709704.6 0 457200 Z "/>
<path transform="matrix(1,0,0,-1,0,540)" d="M 573.1882 302.1203 L 611.7082 302.1203 L 611.7082 330.0355 L 650.2282 274.2051 L 611.7082 218.3746 L 611.7082 246.2899 L 573.1882 246.2899 Z " fill="#ff0000" fill-rule="evenodd"/>
<path transform="matrix(.00007874016,0,0,.00007874016,573.1882,209.96451)" stroke-width="12700" stroke-linecap="butt" stroke-miterlimit="8" stroke-linejoin="miter" fill="none" stroke="#ff0000" d="M 0 354523.3 L 489204 354523.3 L 489204 0 L 978408 709046.5 L 489204 1418093 L 489204 1063570 L 0 1063570 Z "/>
</g>
</svg>
