<?xml version="1.0" encoding="UTF-8" standalone="no"?>
<svg
   xmlns:dc="http://purl.org/dc/elements/1.1/"
   xmlns:cc="http://creativecommons.org/ns#"
   xmlns:rdf="http://www.w3.org/1999/02/22-rdf-syntax-ns#"
   xmlns:svg="http://www.w3.org/2000/svg"
   xmlns="http://www.w3.org/2000/svg"
   viewBox="0 0 720 720"
   height="720"
   width="720"
   xml:space="preserve"
   id="svg2"
   version="1.1"><metadata
     id="metadata8"><rdf:RDF><cc:Work
         rdf:about=""><dc:format>image/svg+xml</dc:format><dc:type
           rdf:resource="http://purl.org/dc/dcmitype/StillImage" /></cc:Work></rdf:RDF></metadata><defs
     id="defs6"><clipPath
       id="clipPath20"
       clipPathUnits="userSpaceOnUse"><path
         id="path18"
         d="M 0,1.206994e-5 H 540 V 540.00001 H 0 Z" /></clipPath></defs><g
     transform="matrix(1.3333333,0,0,-1.3333333,0,720)"
     id="g10"><g
       id="g12" /><g
       id="g14"><g
         clip-path="url(#clipPath20)"
         id="g16"><path
           id="path22"
           style="fill:#ffffff;fill-opacity:1;fill-rule:nonzero;stroke:none"
           d="M 0,540 H 540 V 1.206994e-5 H 0 Z" /></g></g><g
       id="g24"><path
         id="path26"
         style="fill:#ffffff;fill-opacity:1;fill-rule:nonzero;stroke:none"
         d="M 0,540 H 540 V 1.40816e-5 H 0 Z" /><g
         transform="matrix(7.874016e-5,0,0,-7.874016e-5,0,540)"
         id="g28"><path
           id="path30"
           style="fill:none;stroke:#000000;stroke-width:57150;stroke-linecap:butt;stroke-linejoin:miter;stroke-miterlimit:8;stroke-dasharray:none;stroke-opacity:1"
           d="M 0,0 H 6858000 V 6858000 H 0 Z" /></g><path
         id="path32"
         style="fill:#d66660;fill-opacity:1;fill-rule:evenodd;stroke:none"
         d="m 65.36842,448.2947 c 0,1.9883 1.61178,3.6 3.6,3.6 1.98823,0 3.6,-1.6117 3.6,-3.6 0,-1.9882 -1.61177,-3.6 -3.6,-3.6 -1.98822,0 -3.6,1.6118 -3.6,3.6 z" /><g
         transform="matrix(7.874016e-5,0,0,-7.874016e-5,65.36842,451.8947)"
         id="g34"><path
           id="path36"
           style="fill:none;stroke:#d66660;stroke-width:12700;stroke-linecap:butt;stroke-linejoin:miter;stroke-miterlimit:8;stroke-dasharray:none;stroke-opacity:1"
           d="M 0,45720 C 0,20469.54 20469.54,0 45720,0 70970.46,0 91440,20469.54 91440,45720 91440,70970.46 70970.46,91440 45720,91440 20469.54,91440 0,70970.46 0,45720 Z" /></g><path
         id="path38"
         style="fill:#d66660;fill-opacity:1;fill-rule:evenodd;stroke:none"
         d="m 336.5684,433.1369 c 0,1.9882 1.6118,3.6 3.6,3.6 1.9882,0 3.6,-1.6118 3.6,-3.6 0,-1.9883 -1.6118,-3.6 -3.6,-3.6 -1.9882,0 -3.6,1.6117 -3.6,3.6 z" /><g
         transform="matrix(7.874016e-5,0,0,-7.874016e-5,336.5684,436.7369)"
         id="g40"><path
           id="path42"
           style="fill:none;stroke:#d66660;stroke-width:12700;stroke-linecap:butt;stroke-linejoin:miter;stroke-miterlimit:8;stroke-dasharray:none;stroke-opacity:1"
           d="M 0,45720 C 0,20469.54 20469.54,0 45720,0 70970.46,0 91440,20469.54 91440,45720 91440,70970.46 70970.46,91440 45720,91440 20469.54,91440 0,70970.46 0,45720 Z" /></g><path
         id="path44"
         style="fill:#d66660;fill-opacity:1;fill-rule:evenodd;stroke:none"
         d="m 85.57889,172.2947 c 0,1.9883 1.61178,3.6 3.6,3.6 1.98823,0 3.6,-1.6117 3.6,-3.6 0,-1.9882 -1.61177,-3.6 -3.6,-3.6 -1.98822,0 -3.6,1.6118 -3.6,3.6 z" /><g
         transform="matrix(7.874016e-5,0,0,-7.874016e-5,85.57889,175.8947)"
         id="g46"><path
           id="path48"
           style="fill:none;stroke:#d66660;stroke-width:12700;stroke-linecap:butt;stroke-linejoin:miter;stroke-miterlimit:8;stroke-dasharray:none;stroke-opacity:1"
           d="M 0,45720 C 0,20469.54 20469.54,0 45720,0 70970.46,0 91440,20469.54 91440,45720 91440,70970.46 70970.46,91440 45720,91440 20469.54,91440 0,70970.46 0,45720 Z" /></g><path
         id="path50"
         style="fill:#d66660;fill-opacity:1;fill-rule:evenodd;stroke:none"
         d="m 64.23157,309.0947 c 0,1.9883 1.61178,3.6 3.6,3.6 1.98823,0 3.6,-1.6117 3.6,-3.6 0,-1.9882 -1.61177,-3.6 -3.6,-3.6 -1.98822,0 -3.6,1.6118 -3.6,3.6 z" /><g
         transform="matrix(7.874016e-5,0,0,-7.874016e-5,64.23157,312.6947)"
         id="g52"><path
           id="path54"
           style="fill:none;stroke:#d66660;stroke-width:12700;stroke-linecap:butt;stroke-linejoin:miter;stroke-miterlimit:8;stroke-dasharray:none;stroke-opacity:1"
           d="M 0,45720 C 0,20469.54 20469.54,0 45720,0 70970.46,0 91440,20469.54 91440,45720 91440,70970.46 70970.46,91440 45720,91440 20469.54,91440 0,70970.46 0,45720 Z" /></g><path
         id="path56"
         style="fill:#d66660;fill-opacity:1;fill-rule:evenodd;stroke:none"
         d="m 73.48425,357.4736 c 0,1.9883 1.61178,3.6 3.6,3.6 1.98823,0 3.6,-1.6117 3.6,-3.6 0,-1.9882 -1.61177,-3.6 -3.6,-3.6 -1.98822,0 -3.6,1.6118 -3.6,3.6 z" /><g
         transform="matrix(7.874016e-5,0,0,-7.874016e-5,73.48425,361.0736)"
         id="g58"><path
           id="path60"
           style="fill:none;stroke:#d66660;stroke-width:12700;stroke-linecap:butt;stroke-linejoin:miter;stroke-miterlimit:8;stroke-dasharray:none;stroke-opacity:1"
           d="M 0,45720 C 0,20469.54 20469.54,0 45720,0 70970.46,0 91440,20469.54 91440,45720 91440,70970.46 70970.46,91440 45720,91440 20469.54,91440 0,70970.46 0,45720 Z" /></g><path
         id="path62"
         style="fill:#d66660;fill-opacity:1;fill-rule:evenodd;stroke:none"
         d="m 313.4527,348.6947 c 0,1.9883 1.6118,3.6 3.6,3.6 1.9883,0 3.6,-1.6117 3.6,-3.6 0,-1.9882 -1.6117,-3.6 -3.6,-3.6 -1.9882,0 -3.6,1.6118 -3.6,3.6 z" /><g
         transform="matrix(7.874016e-5,0,0,-7.874016e-5,313.4527,352.2947)"
         id="g64"><path
           id="path66"
           style="fill:none;stroke:#d66660;stroke-width:12700;stroke-linecap:butt;stroke-linejoin:miter;stroke-miterlimit:8;stroke-dasharray:none;stroke-opacity:1"
           d="M 0,45720 C 0,20469.54 20469.54,0 45720,0 70970.46,0 91440,20469.54 91440,45720 91440,70970.46 70970.46,91440 45720,91440 20469.54,91440 0,70970.46 0,45720 Z" /></g><path
         id="path68"
         style="fill:#d66660;fill-opacity:1;fill-rule:evenodd;stroke:none"
         d="m 87.28417,34.04204 c 0,1.98823 1.61178,3.6 3.6,3.6 1.98823,0 3.6,-1.61177 3.6,-3.6 0,-1.98822 -1.61177,-3.6 -3.6,-3.6 -1.98822,0 -3.6,1.61178 -3.6,3.6 z" /><g
         transform="matrix(7.874016e-5,0,0,-7.874016e-5,87.28417,37.64204)"
         id="g70"><path
           id="path72"
           style="fill:none;stroke:#d66660;stroke-width:12700;stroke-linecap:butt;stroke-linejoin:miter;stroke-miterlimit:8;stroke-dasharray:none;stroke-opacity:1"
           d="M 0,45720 C 0,20469.54 20469.54,0 45720,0 70970.46,0 91440,20469.54 91440,45720 91440,70970.46 70970.46,91440 45720,91440 20469.54,91440 0,70970.46 0,45720 Z" /></g><path
         id="path74"
         style="fill:#d66660;fill-opacity:1;fill-rule:evenodd;stroke:none"
         d="m 24.31575,509.1158 c 0,1.9883 1.61177,3.6 3.6,3.6 1.98822,0 3.6,-1.6117 3.6,-3.6 0,-1.9882 -1.61178,-3.6 -3.6,-3.6 -1.98823,0 -3.6,1.6118 -3.6,3.6 z" /><g
         transform="matrix(7.874016e-5,0,0,-7.874016e-5,24.31575,512.7158)"
         id="g76"><path
           id="path78"
           style="fill:none;stroke:#d66660;stroke-width:12700;stroke-linecap:butt;stroke-linejoin:miter;stroke-miterlimit:8;stroke-dasharray:none;stroke-opacity:1"
           d="M 0,45720 C 0,20469.54 20469.54,0 45720,0 70970.46,0 91440,20469.54 91440,45720 91440,70970.46 70970.46,91440 45720,91440 20469.54,91440 0,70970.46 0,45720 Z" /></g><path
         id="path80"
         style="fill:#d66660;fill-opacity:1;fill-rule:evenodd;stroke:none"
         d="m 161.3684,352.2947 c 0,1.9883 1.6118,3.6 3.6,3.6 1.9882,0 3.6,-1.6117 3.6,-3.6 0,-1.9882 -1.6118,-3.6 -3.6,-3.6 -1.9882,0 -3.6,1.6118 -3.6,3.6 z" /><g
         transform="matrix(7.874016e-5,0,0,-7.874016e-5,161.3684,355.8947)"
         id="g82"><path
           id="path84"
           style="fill:none;stroke:#d66660;stroke-width:12700;stroke-linecap:butt;stroke-linejoin:miter;stroke-miterlimit:8;stroke-dasharray:none;stroke-opacity:1"
           d="M 0,45720 C 0,20469.54 20469.54,0 45720,0 70970.46,0 91440,20469.54 91440,45720 91440,70970.46 70970.46,91440 45720,91440 20469.54,91440 0,70970.46 0,45720 Z" /></g><path
         id="path86"
         style="fill:#d66660;fill-opacity:1;fill-rule:evenodd;stroke:none"
         d="m 178.1684,512.7158 c 0,1.9883 1.6118,3.6 3.6,3.6 1.9882,0 3.6,-1.6117 3.6,-3.6 0,-1.9882 -1.6118,-3.6 -3.6,-3.6 -1.9882,0 -3.6,1.6118 -3.6,3.6 z" /><g
         transform="matrix(7.874016e-5,0,0,-7.874016e-5,178.1684,516.3158)"
         id="g88"><path
           id="path90"
           style="fill:none;stroke:#d66660;stroke-width:12700;stroke-linecap:butt;stroke-linejoin:miter;stroke-miterlimit:8;stroke-dasharray:none;stroke-opacity:1"
           d="M 0,45720 C 0,20469.54 20469.54,0 45720,0 70970.46,0 91440,20469.54 91440,45720 91440,70970.46 70970.46,91440 45720,91440 20469.54,91440 0,70970.46 0,45720 Z" /></g><path
         id="path92"
         style="fill:#d66660;fill-opacity:1;fill-rule:evenodd;stroke:none"
         d="m 479.1158,218.7158 c 0,1.9882 1.6118,3.6 3.6,3.6 1.9882,0 3.6,-1.6118 3.6,-3.6 0,-1.9883 -1.6118,-3.6 -3.6,-3.6 -1.9882,0 -3.6,1.6117 -3.6,3.6 z" /><g
         transform="matrix(7.874016e-5,0,0,-7.874016e-5,479.1158,222.3158)"
         id="g94"><path
           id="path96"
           style="fill:none;stroke:#d66660;stroke-width:12700;stroke-linecap:butt;stroke-linejoin:miter;stroke-miterlimit:8;stroke-dasharray:none;stroke-opacity:1"
           d="M 0,45720 C 0,20469.54 20469.54,0 45720,0 70970.46,0 91440,20469.54 91440,45720 91440,70970.46 70970.46,91440 45720,91440 20469.54,91440 0,70970.46 0,45720 Z" /></g><path
         id="path98"
         style="fill:#d66660;fill-opacity:1;fill-rule:evenodd;stroke:none"
         d="m 178.2947,201.6632 c 0,1.9882 1.6118,3.6 3.6,3.6 1.9883,0 3.6,-1.6118 3.6,-3.6 0,-1.9883 -1.6117,-3.6 -3.6,-3.6 -1.9882,0 -3.6,1.6117 -3.6,3.6 z" /><g
         transform="matrix(7.874016e-5,0,0,-7.874016e-5,178.2947,205.2632)"
         id="g100"><path
           id="path102"
           style="fill:none;stroke:#d66660;stroke-width:12700;stroke-linecap:butt;stroke-linejoin:miter;stroke-miterlimit:8;stroke-dasharray:none;stroke-opacity:1"
           d="M 0,45720 C 0,20469.54 20469.54,0 45720,0 70970.46,0 91440,20469.54 91440,45720 91440,70970.46 70970.46,91440 45720,91440 20469.54,91440 0,70970.46 0,45720 Z" /></g><path
         id="path104"
         style="fill:#d66660;fill-opacity:1;fill-rule:evenodd;stroke:none"
         d="m 214.1684,403.2 c 0,1.9882 1.6118,3.6 3.6,3.6 1.9882,0 3.6,-1.6118 3.6,-3.6 0,-1.9882 -1.6118,-3.6 -3.6,-3.6 -1.9882,0 -3.6,1.6118 -3.6,3.6 z" /><g
         transform="matrix(7.874016e-5,0,0,-7.874016e-5,214.1684,406.8)"
         id="g106"><path
           id="path108"
           style="fill:none;stroke:#d66660;stroke-width:12700;stroke-linecap:butt;stroke-linejoin:miter;stroke-miterlimit:8;stroke-dasharray:none;stroke-opacity:1"
           d="M 0,45720 C 0,20469.54 20469.54,0 45720,0 70970.46,0 91440,20469.54 91440,45720 91440,70970.46 70970.46,91440 45720,91440 20469.54,91440 0,70970.46 0,45720 Z" /></g><path
         id="path110"
         style="fill:#d66660;fill-opacity:1;fill-rule:evenodd;stroke:none"
         d="m 272.5895,55.64207 c 0,1.98823 1.6117,3.6 3.6,3.6 1.9882,0 3.6,-1.61177 3.6,-3.6 0,-1.98822 -1.6118,-3.6 -3.6,-3.6 -1.9883,0 -3.6,1.61178 -3.6,3.6 z" /><g
         transform="matrix(7.874016e-5,0,0,-7.874016e-5,272.5895,59.24207)"
         id="g112"><path
           id="path114"
           style="fill:none;stroke:#d66660;stroke-width:12700;stroke-linecap:butt;stroke-linejoin:miter;stroke-miterlimit:8;stroke-dasharray:none;stroke-opacity:1"
           d="M 0,45720 C 0,20469.54 20469.54,0 45720,0 70970.46,0 91440,20469.54 91440,45720 91440,70970.46 70970.46,91440 45720,91440 20469.54,91440 0,70970.46 0,45720 Z" /></g><path
         id="path116"
         style="fill:#d66660;fill-opacity:1;fill-rule:evenodd;stroke:none"
         d="m 418.1684,457.4526 c 0,1.9882 1.6118,3.6 3.6,3.6 1.9882,0 3.6,-1.6118 3.6,-3.6 0,-1.9882 -1.6118,-3.6 -3.6,-3.6 -1.9882,0 -3.6,1.6118 -3.6,3.6 z" /><g
         transform="matrix(7.874016e-5,0,0,-7.874016e-5,418.1684,461.0526)"
         id="g118"><path
           id="path120"
           style="fill:none;stroke:#d66660;stroke-width:12700;stroke-linecap:butt;stroke-linejoin:miter;stroke-miterlimit:8;stroke-dasharray:none;stroke-opacity:1"
           d="M 0,45720 C 0,20469.54 20469.54,0 45720,0 70970.46,0 91440,20469.54 91440,45720 91440,70970.46 70970.46,91440 45720,91440 20469.54,91440 0,70970.46 0,45720 Z" /></g><path
         id="path122"
         style="fill:#d66660;fill-opacity:1;fill-rule:evenodd;stroke:none"
         d="m 522.1264,294.6947 c 0,1.9883 1.6117,3.6 3.6,3.6 1.9882,0 3.6,-1.6117 3.6,-3.6 0,-1.9882 -1.6118,-3.6 -3.6,-3.6 -1.9883,0 -3.6,1.6118 -3.6,3.6 z" /><g
         transform="matrix(7.874016e-5,0,0,-7.874016e-5,522.1264,298.2947)"
         id="g124"><path
           id="path126"
           style="fill:none;stroke:#d66660;stroke-width:12700;stroke-linecap:butt;stroke-linejoin:miter;stroke-miterlimit:8;stroke-dasharray:none;stroke-opacity:1"
           d="M 0,45720 C 0,20469.54 20469.54,0 45720,0 70970.46,0 91440,20469.54 91440,45720 91440,70970.46 70970.46,91440 45720,91440 20469.54,91440 0,70970.46 0,45720 Z" /></g><path
         id="path128"
         style="fill:#d66660;fill-opacity:1;fill-rule:evenodd;stroke:none"
         d="m 466.2947,410.4 c 0,1.9882 1.6118,3.6 3.6,3.6 1.9882,0 3.6,-1.6118 3.6,-3.6 0,-1.9882 -1.6118,-3.6 -3.6,-3.6 -1.9882,0 -3.6,1.6118 -3.6,3.6 z" /><g
         transform="matrix(7.874016e-5,0,0,-7.874016e-5,466.2947,414)"
         id="g130"><path
           id="path132"
           style="fill:none;stroke:#d66660;stroke-width:12700;stroke-linecap:butt;stroke-linejoin:miter;stroke-miterlimit:8;stroke-dasharray:none;stroke-opacity:1"
           d="M 0,45720 C 0,20469.54 20469.54,0 45720,0 70970.46,0 91440,20469.54 91440,45720 91440,70970.46 70970.46,91440 45720,91440 20469.54,91440 0,70970.46 0,45720 Z" /></g><path
         id="path134"
         style="fill:#d66660;fill-opacity:1;fill-rule:evenodd;stroke:none"
         d="m 199.0105,109.5158 c 0,1.9882 1.6118,3.6 3.6,3.6 1.9883,0 3.6,-1.6118 3.6,-3.6 0,-1.9883 -1.6117,-3.6 -3.6,-3.6 -1.9882,0 -3.6,1.6117 -3.6,3.6 z" /><g
         transform="matrix(7.874016e-5,0,0,-7.874016e-5,199.0105,113.1158)"
         id="g136"><path
           id="path138"
           style="fill:none;stroke:#d66660;stroke-width:12700;stroke-linecap:butt;stroke-linejoin:miter;stroke-miterlimit:8;stroke-dasharray:none;stroke-opacity:1"
           d="M 0,45720 C 0,20469.54 20469.54,0 45720,0 70970.46,0 91440,20469.54 91440,45720 91440,70970.46 70970.46,91440 45720,91440 20469.54,91440 0,70970.46 0,45720 Z" /></g><path
         id="path140"
         style="fill:#d66660;fill-opacity:1;fill-rule:evenodd;stroke:none"
         d="m 318.1263,258.3789 c 0,1.9882 1.6118,3.6 3.6,3.6 1.9882,0 3.6,-1.6118 3.6,-3.6 0,-1.9882 -1.6118,-3.6 -3.6,-3.6 -1.9882,0 -3.6,1.6118 -3.6,3.6 z" /><g
         transform="matrix(7.874016e-5,0,0,-7.874016e-5,318.1263,261.9789)"
         id="g142"><path
           id="path144"
           style="fill:none;stroke:#d66660;stroke-width:12700;stroke-linecap:butt;stroke-linejoin:miter;stroke-miterlimit:8;stroke-dasharray:none;stroke-opacity:1"
           d="M 0,45720 C 0,20469.54 20469.54,0 45720,0 70970.46,0 91440,20469.54 91440,45720 91440,70970.46 70970.46,91440 45720,91440 20469.54,91440 0,70970.46 0,45720 Z" /></g><path
         id="path146"
         style="fill:#d66660;fill-opacity:1;fill-rule:evenodd;stroke:none"
         d="m 39.66315,225.9158 c 0,1.9882 1.61177,3.6 3.6,3.6 1.98822,0 3.6,-1.6118 3.6,-3.6 0,-1.9883 -1.61178,-3.6 -3.6,-3.6 -1.98823,0 -3.6,1.6117 -3.6,3.6 z" /><g
         transform="matrix(7.874016e-5,0,0,-7.874016e-5,39.66315,229.5158)"
         id="g148"><path
           id="path150"
           style="fill:none;stroke:#d66660;stroke-width:12700;stroke-linecap:butt;stroke-linejoin:miter;stroke-miterlimit:8;stroke-dasharray:none;stroke-opacity:1"
           d="M 0,45720 C 0,20469.54 20469.54,0 45720,0 70970.46,0 91440,20469.54 91440,45720 91440,70970.46 70970.46,91440 45720,91440 20469.54,91440 0,70970.46 0,45720 Z" /></g><path
         id="path152"
         style="fill:#d66660;fill-opacity:1;fill-rule:evenodd;stroke:none"
         d="m 93.09472,505.8317 c 0,1.9882 1.61178,3.6 3.6,3.6 1.98823,0 3.59998,-1.6118 3.59998,-3.6 0,-1.9883 -1.61175,-3.6 -3.59998,-3.6 -1.98822,0 -3.6,1.6117 -3.6,3.6 z" /><g
         transform="matrix(7.874016e-5,0,0,-7.874016e-5,93.09472,509.4317)"
         id="g154"><path
           id="path156"
           style="fill:none;stroke:#d66660;stroke-width:12700;stroke-linecap:butt;stroke-linejoin:miter;stroke-miterlimit:8;stroke-dasharray:none;stroke-opacity:1"
           d="M 0,45720 C 0,20469.54 20469.54,0 45720,0 70970.46,0 91440,20469.54 91440,45720 91440,70970.46 70970.46,91440 45720,91440 20469.54,91440 0,70970.46 0,45720 Z" /></g><path
         id="path158"
         style="fill:#d66660;fill-opacity:1;fill-rule:evenodd;stroke:none"
         d="m 484.4842,502.2317 c 0,1.9882 1.6118,3.6 3.6,3.6 1.9883,0 3.6,-1.6118 3.6,-3.6 0,-1.9883 -1.6117,-3.6 -3.6,-3.6 -1.9882,0 -3.6,1.6117 -3.6,3.6 z" /><g
         transform="matrix(7.874016e-5,0,0,-7.874016e-5,484.4842,505.8317)"
         id="g160"><path
           id="path162"
           style="fill:none;stroke:#d66660;stroke-width:12700;stroke-linecap:butt;stroke-linejoin:miter;stroke-miterlimit:8;stroke-dasharray:none;stroke-opacity:1"
           d="M 0,45720 C 0,20469.54 20469.54,0 45720,0 70970.46,0 91440,20469.54 91440,45720 91440,70970.46 70970.46,91440 45720,91440 20469.54,91440 0,70970.46 0,45720 Z" /></g><path
         id="path164"
         style="fill:#d66660;fill-opacity:1;fill-rule:evenodd;stroke:none"
         d="m 386.5895,209.3684 c 0,1.9883 1.6117,3.6 3.6,3.6 1.9882,0 3.6,-1.6117 3.6,-3.6 0,-1.9882 -1.6118,-3.6 -3.6,-3.6 -1.9883,0 -3.6,1.6118 -3.6,3.6 z" /><g
         transform="matrix(7.874016e-5,0,0,-7.874016e-5,386.5895,212.9684)"
         id="g166"><path
           id="path168"
           style="fill:none;stroke:#d66660;stroke-width:12700;stroke-linecap:butt;stroke-linejoin:miter;stroke-miterlimit:8;stroke-dasharray:none;stroke-opacity:1"
           d="M 0,45720 C 0,20469.54 20469.54,0 45720,0 70970.46,0 91440,20469.54 91440,45720 91440,70970.46 70970.46,91440 45720,91440 20469.54,91440 0,70970.46 0,45720 Z" /></g><path
         id="path170"
         style="fill:#d66660;fill-opacity:1;fill-rule:evenodd;stroke:none"
         d="m 113.3684,256.2947 c 0,1.9882 1.6118,3.6 3.6,3.6 1.9882,0 3.6,-1.6118 3.6,-3.6 0,-1.9882 -1.6118,-3.6 -3.6,-3.6 -1.9882,0 -3.6,1.6118 -3.6,3.6 z" /><g
         transform="matrix(7.874016e-5,0,0,-7.874016e-5,113.3684,259.8947)"
         id="g172"><path
           id="path174"
           style="fill:none;stroke:#d66660;stroke-width:12700;stroke-linecap:butt;stroke-linejoin:miter;stroke-miterlimit:8;stroke-dasharray:none;stroke-opacity:1"
           d="M 0,45720 C 0,20469.54 20469.54,0 45720,0 70970.46,0 91440,20469.54 91440,45720 91440,70970.46 70970.46,91440 45720,91440 20469.54,91440 0,70970.46 0,45720 Z" /></g><path
         id="path176"
         style="fill:#d66660;fill-opacity:1;fill-rule:evenodd;stroke:none"
         d="m 265.3895,471.9789 c 0,1.9882 1.6117,3.6 3.6,3.6 1.9882,0 3.6,-1.6118 3.6,-3.6 0,-1.9882 -1.6118,-3.6 -3.6,-3.6 -1.9883,0 -3.6,1.6118 -3.6,3.6 z" /><g
         transform="matrix(7.874016e-5,0,0,-7.874016e-5,265.3895,475.5789)"
         id="g178"><path
           id="path180"
           style="fill:none;stroke:#d66660;stroke-width:12700;stroke-linecap:butt;stroke-linejoin:miter;stroke-miterlimit:8;stroke-dasharray:none;stroke-opacity:1"
           d="M 0,45720 C 0,20469.54 20469.54,0 45720,0 70970.46,0 91440,20469.54 91440,45720 91440,70970.46 70970.46,91440 45720,91440 20469.54,91440 0,70970.46 0,45720 Z" /></g><path
         id="path182"
         style="fill:#d66660;fill-opacity:1;fill-rule:evenodd;stroke:none"
         d="m 57.03157,103.8947 c 0,1.9883 1.61178,3.6 3.6,3.6 1.98823,0 3.6,-1.6117 3.6,-3.6 0,-1.9882 -1.61177,-3.6 -3.6,-3.6 -1.98822,0 -3.6,1.6118 -3.6,3.6 z" /><g
         transform="matrix(7.874016e-5,0,0,-7.874016e-5,57.03157,107.4947)"
         id="g184"><path
           id="path186"
           style="fill:none;stroke:#d66660;stroke-width:12700;stroke-linecap:butt;stroke-linejoin:miter;stroke-miterlimit:8;stroke-dasharray:none;stroke-opacity:1"
           d="M 0,45720 C 0,20469.54 20469.54,0 45720,0 70970.46,0 91440,20469.54 91440,45720 91440,70970.46 70970.46,91440 45720,91440 20469.54,91440 0,70970.46 0,45720 Z" /></g><path
         id="path188"
         style="fill:#d66660;fill-opacity:1;fill-rule:evenodd;stroke:none"
         d="m 266.4,233.1158 c 0,1.9882 1.6118,3.6 3.6,3.6 1.9882,0 3.6,-1.6118 3.6,-3.6 0,-1.9883 -1.6118,-3.6 -3.6,-3.6 -1.9882,0 -3.6,1.6117 -3.6,3.6 z" /><g
         transform="matrix(7.874016e-5,0,0,-7.874016e-5,266.4,236.7158)"
         id="g190"><path
           id="path192"
           style="fill:none;stroke:#d66660;stroke-width:12700;stroke-linecap:butt;stroke-linejoin:miter;stroke-miterlimit:8;stroke-dasharray:none;stroke-opacity:1"
           d="M 0,45720 C 0,20469.54 20469.54,0 45720,0 70970.46,0 91440,20469.54 91440,45720 91440,70970.46 70970.46,91440 45720,91440 20469.54,91440 0,70970.46 0,45720 Z" /></g><path
         id="path194"
         style="fill:#d66660;fill-opacity:1;fill-rule:evenodd;stroke:none"
         d="m 268.9895,158.5895 c 0,1.9882 1.6117,3.6 3.6,3.6 1.9882,0 3.6,-1.6118 3.6,-3.6 0,-1.9883 -1.6118,-3.6 -3.6,-3.6 -1.9883,0 -3.6,1.6117 -3.6,3.6 z" /><g
         transform="matrix(7.874016e-5,0,0,-7.874016e-5,268.9895,162.1895)"
         id="g196"><path
           id="path198"
           style="fill:none;stroke:#d66660;stroke-width:12700;stroke-linecap:butt;stroke-linejoin:miter;stroke-miterlimit:8;stroke-dasharray:none;stroke-opacity:1"
           d="M 0,45720 C 0,20469.54 20469.54,0 45720,0 70970.46,0 91440,20469.54 91440,45720 91440,70970.46 70970.46,91440 45720,91440 20469.54,91440 0,70970.46 0,45720 Z" /></g><path
         id="path200"
         style="fill:#d66660;fill-opacity:1;fill-rule:evenodd;stroke:none"
         d="m 401.3684,112.2947 c 0,1.9883 1.6118,3.6 3.6,3.6 1.9882,0 3.6,-1.6117 3.6,-3.6 0,-1.9882 -1.6118,-3.6 -3.6,-3.6 -1.9882,0 -3.6,1.6118 -3.6,3.6 z" /><g
         transform="matrix(7.874016e-5,0,0,-7.874016e-5,401.3684,115.8947)"
         id="g202"><path
           id="path204"
           style="fill:none;stroke:#d66660;stroke-width:12700;stroke-linecap:butt;stroke-linejoin:miter;stroke-miterlimit:8;stroke-dasharray:none;stroke-opacity:1"
           d="M 0,45720 C 0,20469.54 20469.54,0 45720,0 70970.46,0 91440,20469.54 91440,45720 91440,70970.46 70970.46,91440 45720,91440 20469.54,91440 0,70970.46 0,45720 Z" /></g><path
         id="path206"
         style="fill:#d66660;fill-opacity:1;fill-rule:evenodd;stroke:none"
         d="m 379.3263,472.7368 c 0,1.9882 1.6118,3.6 3.6,3.6 1.9882,0 3.6,-1.6118 3.6,-3.6 0,-1.9883 -1.6118,-3.6 -3.6,-3.6 -1.9882,0 -3.6,1.6117 -3.6,3.6 z" /><g
         transform="matrix(7.874016e-5,0,0,-7.874016e-5,379.3263,476.3368)"
         id="g208"><path
           id="path210"
           style="fill:none;stroke:#d66660;stroke-width:12700;stroke-linecap:butt;stroke-linejoin:miter;stroke-miterlimit:8;stroke-dasharray:none;stroke-opacity:1"
           d="M 0,45720 C 0,20469.54 20469.54,0 45720,0 70970.46,0 91440,20469.54 91440,45720 91440,70970.46 70970.46,91440 45720,91440 20469.54,91440 0,70970.46 0,45720 Z" /></g><path
         id="path212"
         style="fill:#d66660;fill-opacity:1;fill-rule:evenodd;stroke:none"
         d="m 444.5684,350.9684 c 0,1.9882 1.6118,3.6 3.6,3.6 1.9882,0 3.6,-1.6118 3.6,-3.6 0,-1.9882 -1.6118,-3.6 -3.6,-3.6 -1.9882,0 -3.6,1.6118 -3.6,3.6 z" /><g
         transform="matrix(7.874016e-5,0,0,-7.874016e-5,444.5684,354.5684)"
         id="g214"><path
           id="path216"
           style="fill:none;stroke:#d66660;stroke-width:12700;stroke-linecap:butt;stroke-linejoin:miter;stroke-miterlimit:8;stroke-dasharray:none;stroke-opacity:1"
           d="M 0,45720 C 0,20469.54 20469.54,0 45720,0 70970.46,0 91440,20469.54 91440,45720 91440,70970.46 70970.46,91440 45720,91440 20469.54,91440 0,70970.46 0,45720 Z" /></g><path
         id="path218"
         style="fill:#d66660;fill-opacity:1;fill-rule:evenodd;stroke:none"
         d="m 491.6842,54.06309 c 0,1.98822 1.6118,3.6 3.6,3.6 1.9883,0 3.6,-1.61178 3.6,-3.6 0,-1.98823 -1.6117,-3.6 -3.6,-3.6 -1.9882,0 -3.6,1.61177 -3.6,3.6 z" /><g
         transform="matrix(7.874016e-5,0,0,-7.874016e-5,491.6842,57.66309)"
         id="g220"><path
           id="path222"
           style="fill:none;stroke:#d66660;stroke-width:12700;stroke-linecap:butt;stroke-linejoin:miter;stroke-miterlimit:8;stroke-dasharray:none;stroke-opacity:1"
           d="M 0,45720 C 0,20469.54 20469.54,0 45720,0 70970.46,0 91440,20469.54 91440,45720 91440,70970.46 70970.46,91440 45720,91440 20469.54,91440 0,70970.46 0,45720 Z" /></g><path
         id="path224"
         style="fill:#d66660;fill-opacity:1;fill-rule:evenodd;stroke:none"
         d="m 196.4211,48.44207 c 0,1.98823 1.6118,3.6 3.6,3.6 1.9882,0 3.6,-1.61177 3.6,-3.6 0,-1.98822 -1.6118,-3.6 -3.6,-3.6 -1.9882,0 -3.6,1.61178 -3.6,3.6 z" /><g
         transform="matrix(7.874016e-5,0,0,-7.874016e-5,196.4211,52.04207)"
         id="g226"><path
           id="path228"
           style="fill:none;stroke:#d66660;stroke-width:12700;stroke-linecap:butt;stroke-linejoin:miter;stroke-miterlimit:8;stroke-dasharray:none;stroke-opacity:1"
           d="M 0,45720 C 0,20469.54 20469.54,0 45720,0 70970.46,0 91440,20469.54 91440,45720 91440,70970.46 70970.46,91440 45720,91440 20469.54,91440 0,70970.46 0,45720 Z" /></g><path
         id="path230"
         style="fill:#d66660;fill-opacity:1;fill-rule:evenodd;stroke:none"
         d="m 484.9895,96.69473 c 0,1.98822 1.6117,3.59997 3.6,3.59997 1.9882,0 3.6,-1.61175 3.6,-3.59997 0,-1.98823 -1.6118,-3.6 -3.6,-3.6 -1.9883,0 -3.6,1.61177 -3.6,3.6 z" /><g
         transform="matrix(7.874016e-5,0,0,-7.874016e-5,484.9895,100.2947)"
         id="g232"><path
           id="path234"
           style="fill:none;stroke:#d66660;stroke-width:12700;stroke-linecap:butt;stroke-linejoin:miter;stroke-miterlimit:8;stroke-dasharray:none;stroke-opacity:1"
           d="M 0,45720 C 0,20469.54 20469.54,0 45720,0 70970.46,0 91440,20469.54 91440,45720 91440,70970.46 70970.46,91440 45720,91440 20469.54,91440 0,70970.46 0,45720 Z" /></g><path
         id="path236"
         style="fill:#d66660;fill-opacity:1;fill-rule:evenodd;stroke:none"
         d="m 214.1684,301.8947 c 0,1.9883 1.6118,3.6 3.6,3.6 1.9882,0 3.6,-1.6117 3.6,-3.6 0,-1.9882 -1.6118,-3.6 -3.6,-3.6 -1.9882,0 -3.6,1.6118 -3.6,3.6 z" /><g
         transform="matrix(7.874016e-5,0,0,-7.874016e-5,214.1684,305.4947)"
         id="g238"><path
           id="path240"
           style="fill:none;stroke:#d66660;stroke-width:12700;stroke-linecap:butt;stroke-linejoin:miter;stroke-miterlimit:8;stroke-dasharray:none;stroke-opacity:1"
           d="M 0,45720 C 0,20469.54 20469.54,0 45720,0 70970.46,0 91440,20469.54 91440,45720 91440,70970.46 70970.46,91440 45720,91440 20469.54,91440 0,70970.46 0,45720 Z" /></g><path
         id="path242"
         style="fill:#d66660;fill-opacity:1;fill-rule:evenodd;stroke:none"
         d="m 300.1895,126.8842 c 0,1.9883 1.6118,3.6 3.6,3.6 1.9882,0 3.6,-1.6117 3.6,-3.6 0,-1.9882 -1.6118,-3.6 -3.6,-3.6 -1.9882,0 -3.6,1.6118 -3.6,3.6 z" /><g
         transform="matrix(7.874016e-5,0,0,-7.874016e-5,300.1895,130.4842)"
         id="g244"><path
           id="path246"
           style="fill:none;stroke:#d66660;stroke-width:12700;stroke-linecap:butt;stroke-linejoin:miter;stroke-miterlimit:8;stroke-dasharray:none;stroke-opacity:1"
           d="M 0,45720 C 0,20469.54 20469.54,0 45720,0 70970.46,0 91440,20469.54 91440,45720 91440,70970.46 70970.46,91440 45720,91440 20469.54,91440 0,70970.46 0,45720 Z" /></g><path
         id="path248"
         style="fill:#d66660;fill-opacity:1;fill-rule:evenodd;stroke:none"
         d="m 386.5263,30.44204 c 0,1.98823 1.6118,3.6 3.6,3.6 1.9882,0 3.6,-1.61177 3.6,-3.6 0,-1.98822 -1.6118,-3.6 -3.6,-3.6 -1.9882,0 -3.6,1.61178 -3.6,3.6 z" /><g
         transform="matrix(7.874016e-5,0,0,-7.874016e-5,386.5263,34.04204)"
         id="g250"><path
           id="path252"
           style="fill:none;stroke:#d66660;stroke-width:12700;stroke-linecap:butt;stroke-linejoin:miter;stroke-miterlimit:8;stroke-dasharray:none;stroke-opacity:1"
           d="M 0,45720 C 0,20469.54 20469.54,0 45720,0 70970.46,0 91440,20469.54 91440,45720 91440,70970.46 70970.46,91440 45720,91440 20469.54,91440 0,70970.46 0,45720 Z" /></g></g></g></svg>