<svg xmlns="http://www.w3.org/2000/svg" xmlns:xlink="http://www.w3.org/1999/xlink" width="1632" height="1632" viewBox="0 0 1224 1224"><clipPath id="a"><path transform="matrix(1 0 0 -1 0 1224)" d="M0 0h1224v1224H0z"/></clipPath><g clip-path="url(#a)"><path d="M0 0h1224v1224H0z" fill="#fff"/></g><path d="M0 0h1224v1224H0z" fill="#fff"/><path stroke-width="6.096" stroke-miterlimit="8" fill="none" stroke="#000" d="M0 682.448h540v540H0z"/><path d="M68.618 1049.587c0-33.8 27.4-61.2 61.2-61.2 33.8 0 61.2 27.4 61.2 61.2 0 33.8-27.4 61.2-61.2 61.2-33.8 0-61.2-27.4-61.2-61.2z" fill="#f9e7b1" fill-rule="evenodd"/><path d="M58.909 977.907c0-33.8 27.4-61.2 61.2-61.2 33.8 0 61.2 27.4 61.2 61.2 0 33.8-27.4 61.2-61.2 61.2-33.8 0-61.2-27.4-61.2-61.2z" fill="#f9e7b1" fill-rule="evenodd"/><path d="M56.727 905.198c0-33.8 27.4-61.2 61.2-61.2 33.8 0 61.2 27.4 61.2 61.2 0 33.8-27.4 61.2-61.2 61.2-33.8 0-61.2-27.4-61.2-61.2z" fill="#f9e7b1" fill-rule="evenodd"/><path d="M32.618 838.053c0-33.8 27.4-61.2 61.2-61.2 33.8 0 61.2 27.4 61.2 61.2 0 33.8-27.4 61.2-61.2 61.2-33.8 0-61.2-27.4-61.2-61.2z" fill="#f9e7b1" fill-rule="evenodd"/><path d="M57.818 838.053c0-19.883 16.118-36 36-36s36 16.117 36 36c0 19.882-16.118 36-36 36s-36-16.118-36-36z" fill="#5b9bd5" fill-rule="evenodd"/><path stroke-width="1.016" stroke-miterlimit="8" fill="none" stroke="#5b9bd5" d="M57.818 838.053c0-19.883 16.118-36 36-36s36 16.117 36 36c0 19.882-16.118 36-36 36s-36-16.118-36-36z"/><path d="M81.927 905.198c0-19.882 16.118-36 36-36s36 16.118 36 36-16.118 36-36 36-36-16.118-36-36z" fill="#5b9bd5" fill-rule="evenodd"/><path stroke-width="1.016" stroke-miterlimit="8" fill="none" stroke="#5b9bd5" d="M81.927 905.198c0-19.882 16.118-36 36-36s36 16.118 36 36-16.118 36-36 36-36-16.118-36-36z"/><path d="M84.109 977.907c0-19.882 16.118-36 36-36s36 16.118 36 36-16.118 36-36 36-36-16.118-36-36z" fill="#5b9bd5" fill-rule="evenodd"/><path stroke-width="1.016" stroke-miterlimit="8" fill="none" stroke="#5b9bd5" d="M84.109 977.907c0-19.882 16.118-36 36-36s36 16.118 36 36-16.118 36-36 36-36-16.118-36-36z"/><path d="M93.818 1049.587c0-19.882 16.118-36 36-36s36 16.118 36 36-16.118 36-36 36-36-16.118-36-36z" fill="#5b9bd5" fill-rule="evenodd"/><path stroke-width="1.016" stroke-miterlimit="8" fill="none" stroke="#5b9bd5" d="M93.818 1049.587c0-19.882 16.118-36 36-36s36 16.118 36 36-16.118 36-36 36-36-16.118-36-36z"/><path d="M244.047 1087.17c30.468-14.631 67.03-1.792 81.66 28.677 14.632 30.468 1.793 67.03-28.676 81.66-30.469 14.632-67.03 1.793-81.66-28.676-14.632-30.469-1.793-67.03 28.676-81.661z" fill="#f9e7b1" fill-rule="evenodd"/><path d="M304.46 1047.39c30.469-14.632 67.03-1.793 81.66 28.676 14.632 30.468 1.793 67.03-28.676 81.66-30.469 14.632-67.03 1.793-81.66-28.676-14.632-30.469-1.793-67.03 28.676-81.66z" fill="#f9e7b1" fill-rule="evenodd"/><path d="M369.059 1013.948c30.469-14.631 67.03-1.793 81.66 28.676 14.632 30.47 1.793 67.03-28.676 81.662-30.469 14.63-67.03 1.792-81.66-28.677-14.632-30.469-1.793-67.03 28.676-81.661z" fill="#f9e7b1" fill-rule="evenodd"/><path d="M419.15 963.149c30.47-14.631 67.03-1.793 81.662 28.676 14.631 30.47 1.792 67.03-28.677 81.661-30.469 14.632-67.03 1.793-81.66-28.676-14.632-30.469-1.793-67.03 28.676-81.661z" fill="#f9e7b1" fill-rule="evenodd"/><path d="M430.06 985.865c17.922-8.606 39.429-1.054 48.035 16.869 8.607 17.923 1.055 39.43-16.868 48.036-17.923 8.607-39.43 1.054-48.036-16.869-8.607-17.923-1.054-39.429 16.869-48.036z" fill="#5b9bd5" fill-rule="evenodd"/><path stroke-width="1.016" stroke-miterlimit="8" fill="none" stroke="#5b9bd5" d="M430.06 985.865c17.922-8.606 39.429-1.054 48.035 16.87 8.607 17.922 1.055 39.428-16.868 48.035s-39.43 1.054-48.036-16.869c-8.607-17.922-1.054-39.429 16.868-48.036z"/><path d="M379.967 1036.665c17.923-8.607 39.43-1.055 48.036 16.868 8.607 17.923 1.055 39.43-16.868 48.036-17.923 8.607-39.43 1.054-48.036-16.869-8.607-17.923-1.054-39.429 16.868-48.035z" fill="#5b9bd5" fill-rule="evenodd"/><path stroke-width="1.016" stroke-miterlimit="8" fill="none" stroke="#5b9bd5" d="M379.967 1036.664c17.923-8.606 39.43-1.054 48.036 16.87 8.607 17.922 1.055 39.428-16.868 48.035s-39.43 1.054-48.036-16.869c-8.607-17.922-1.054-39.429 16.868-48.036z"/><path d="M315.368 1070.106c17.923-8.607 39.43-1.055 48.036 16.868 8.607 17.923 1.055 39.43-16.868 48.036-17.923 8.607-39.43 1.055-48.036-16.868-8.607-17.923-1.055-39.43 16.868-48.036z" fill="#5b9bd5" fill-rule="evenodd"/><path stroke-width="1.016" stroke-miterlimit="8" fill="none" stroke="#5b9bd5" d="M315.368 1070.106c17.923-8.607 39.43-1.055 48.036 16.868 8.607 17.923 1.055 39.43-16.868 48.036-17.923 8.607-39.43 1.055-48.036-16.868-8.607-17.923-1.055-39.43 16.868-48.036z"/><path d="M254.955 1109.887c17.923-8.607 39.43-1.055 48.036 16.868 8.607 17.923 1.055 39.43-16.868 48.036-17.923 8.607-39.43 1.054-48.036-16.868-8.607-17.923-1.055-39.43 16.868-48.036z" fill="#5b9bd5" fill-rule="evenodd"/><path stroke-width="1.016" stroke-miterlimit="8" fill="none" stroke="#5b9bd5" d="M254.955 1109.887c17.923-8.607 39.43-1.055 48.036 16.868 8.607 17.923 1.055 39.43-16.868 48.036-17.923 8.607-39.43 1.054-48.036-16.868-8.607-17.923-1.055-39.43 16.868-48.036z"/><path d="M247.552 896.306c27.827-19.185 65.939-12.18 85.124 15.648 19.185 27.827 12.18 65.938-15.648 85.123-27.827 19.186-65.938 12.18-85.124-15.647-19.185-27.828-12.18-65.939 15.648-85.124z" fill="#f9e7b1" fill-rule="evenodd"/><path d="M301.055 847.626c27.827-19.185 65.938-12.18 85.123 15.648 19.186 27.827 12.18 65.938-15.647 85.123-27.828 19.186-65.939 12.18-85.124-15.647-19.185-27.827-12.18-65.939 15.648-85.124z" fill="#f9e7b1" fill-rule="evenodd"/><path d="M359.677 804.56c27.827-19.186 65.939-12.18 85.124 15.647 19.185 27.827 12.18 65.938-15.648 85.124-27.827 19.185-65.938 12.179-85.124-15.648-19.185-27.827-12.179-65.939 15.648-85.124z" fill="#f9e7b1" fill-rule="evenodd"/><path d="M401.273 746.598c27.827-19.186 65.938-12.18 85.124 15.647 19.185 27.827 12.18 65.939-15.648 85.124-27.827 19.185-65.938 12.18-85.124-15.648-19.185-27.827-12.18-65.938 15.648-85.123z" fill="#f9e7b1" fill-rule="evenodd"/><path d="M415.577 767.345c16.369-11.286 38.787-7.165 50.073 9.204 11.285 16.37 7.164 38.787-9.205 50.073-16.369 11.285-38.787 7.164-50.073-9.205-11.285-16.369-7.164-38.787 9.205-50.072z" fill="#5b9bd5" fill-rule="evenodd"/><path stroke-width="1.016" stroke-miterlimit="8" fill="none" stroke="#5b9bd5" d="M415.577 767.345c16.369-11.286 38.787-7.165 50.073 9.204 11.285 16.37 7.164 38.787-9.205 50.073-16.369 11.285-38.787 7.164-50.073-9.205-11.285-16.369-7.164-38.787 9.205-50.072z"/><path d="M373.981 825.306c16.369-11.285 38.787-7.164 50.073 9.205 11.285 16.369 7.164 38.787-9.205 50.072-16.369 11.286-38.787 7.165-50.072-9.204-11.286-16.369-7.165-38.787 9.204-50.073z" fill="#5b9bd5" fill-rule="evenodd"/><path stroke-width="1.016" stroke-miterlimit="8" fill="none" stroke="#5b9bd5" d="M373.981 825.306c16.369-11.285 38.787-7.164 50.073 9.205 11.285 16.369 7.164 38.787-9.205 50.072-16.369 11.286-38.787 7.165-50.072-9.204-11.286-16.369-7.165-38.787 9.204-50.073z"/><path d="M315.359 868.373c16.369-11.285 38.787-7.164 50.072 9.205 11.286 16.369 7.165 38.787-9.204 50.072-16.37 11.286-38.787 7.165-50.073-9.204-11.285-16.369-7.164-38.787 9.205-50.073z" fill="#5b9bd5" fill-rule="evenodd"/><path stroke-width="1.016" stroke-miterlimit="8" fill="none" stroke="#5b9bd5" d="M315.359 868.373c16.369-11.285 38.787-7.164 50.072 9.205 11.286 16.369 7.165 38.787-9.204 50.072-16.37 11.286-38.787 7.165-50.073-9.204-11.285-16.369-7.164-38.787 9.205-50.073z"/><path d="M261.856 917.053c16.369-11.286 38.787-7.164 50.073 9.204 11.285 16.37 7.164 38.788-9.205 50.073-16.369 11.286-38.787 7.165-50.072-9.204-11.286-16.37-7.165-38.788 9.204-50.073z" fill="#5b9bd5" fill-rule="evenodd"/><path stroke-width="1.016" stroke-miterlimit="8" fill="none" stroke="#5b9bd5" d="M261.856 917.053c16.369-11.285 38.787-7.164 50.073 9.205 11.285 16.368 7.164 38.787-9.205 50.072-16.369 11.286-38.787 7.165-50.073-9.204-11.285-16.37-7.164-38.788 9.205-50.073z"/><path d="M573.335 277.53h38.52v-27.916l38.52 55.83-38.52 55.831V333.36h-38.52z" fill="red" fill-rule="evenodd"/><path stroke-width="1.016" stroke-miterlimit="8" fill="none" stroke="red" d="M573.335 277.53h38.52v-27.916l38.52 55.83-38.52 55.831V333.36h-38.52z"/><path stroke-width="6.096" stroke-miterlimit="8" fill="none" stroke="#000" d="M682.648 679.469h540v540h-540z"/><path d="M751.266 1046.608c0-33.8 27.4-61.2 61.2-61.2 33.8 0 61.2 27.4 61.2 61.2 0 33.8-27.4 61.2-61.2 61.2-33.8 0-61.2-27.4-61.2-61.2z" fill="#f9e7b1" fill-rule="evenodd"/><path d="M741.557 974.928c0-33.8 27.4-61.2 61.2-61.2 33.8 0 61.2 27.4 61.2 61.2 0 33.8-27.4 61.2-61.2 61.2-33.8 0-61.2-27.4-61.2-61.2z" fill="#f9e7b1" fill-rule="evenodd"/><path d="M739.375 902.219c0-33.8 27.4-61.2 61.2-61.2 33.8 0 61.2 27.4 61.2 61.2 0 33.8-27.4 61.2-61.2 61.2-33.8 0-61.2-27.4-61.2-61.2z" fill="#f9e7b1" fill-rule="evenodd"/><path d="M715.266 835.073c0-33.8 27.4-61.2 61.2-61.2 33.8 0 61.2 27.4 61.2 61.2 0 33.8-27.4 61.2-61.2 61.2-33.8 0-61.2-27.4-61.2-61.2z" fill="#f9e7b1" fill-rule="evenodd"/><path d="M740.466 835.073c0-19.882 16.117-36 36-36 19.882 0 36 16.118 36 36 0 19.883-16.118 36-36 36-19.883 0-36-16.117-36-36z" fill="#5b9bd5" fill-rule="evenodd"/><path stroke-width="1.016" stroke-miterlimit="8" fill="none" stroke="#5b9bd5" d="M740.466 835.073c0-19.882 16.117-36 36-36 19.882 0 36 16.118 36 36 0 19.883-16.118 36-36 36-19.883 0-36-16.117-36-36z"/><path d="M764.575 902.219c0-19.883 16.117-36 36-36 19.882 0 36 16.117 36 36 0 19.882-16.118 36-36 36-19.883 0-36-16.118-36-36z" fill="#5b9bd5" fill-rule="evenodd"/><path stroke-width="1.016" stroke-miterlimit="8" fill="none" stroke="#5b9bd5" d="M764.575 902.219c0-19.883 16.117-36 36-36 19.882 0 36 16.117 36 36 0 19.882-16.118 36-36 36-19.883 0-36-16.118-36-36z"/><path d="M766.757 974.928c0-19.883 16.117-36 36-36 19.882 0 36 16.117 36 36 0 19.882-16.118 36-36 36-19.883 0-36-16.118-36-36z" fill="#5b9bd5" fill-rule="evenodd"/><path stroke-width="1.016" stroke-miterlimit="8" fill="none" stroke="#5b9bd5" d="M766.757 974.928c0-19.882 16.117-36 36-36 19.882 0 36 16.118 36 36s-16.118 36-36 36c-19.883 0-36-16.118-36-36z"/><path d="M776.466 1046.608c0-19.883 16.117-36 36-36 19.882 0 36 16.117 36 36 0 19.882-16.118 36-36 36-19.883 0-36-16.118-36-36z" fill="#5b9bd5" fill-rule="evenodd"/><path stroke-width="1.016" stroke-miterlimit="8" fill="none" stroke="#5b9bd5" d="M776.466 1046.608c0-19.883 16.117-36 36-36 19.882 0 36 16.117 36 36 0 19.882-16.118 36-36 36-19.883 0-36-16.118-36-36z"/><path d="M876.17 1059.248c33.087-6.906 65.507 14.318 72.413 47.405 6.906 33.087-14.318 65.507-47.405 72.413-33.087 6.906-65.507-14.318-72.413-47.405-6.906-33.087 14.318-65.508 47.405-72.413z" fill="#f9e7b1" fill-rule="evenodd"/><path d="M944.354 1035.099c33.087-6.906 65.507 14.318 72.413 47.405 6.906 33.086-14.318 65.507-47.405 72.413-33.087 6.905-65.507-14.319-72.413-47.405-6.906-33.087 14.318-65.508 47.405-72.413z" fill="#f9e7b1" fill-rule="evenodd"/><path d="M1015.083 1018.107c33.087-6.906 65.508 14.318 72.413 47.405 6.906 33.087-14.318 65.507-47.405 72.413-33.086 6.906-65.507-14.318-72.413-47.405-6.905-33.087 14.319-65.507 47.405-72.413z" fill="#f9e7b1" fill-rule="evenodd"/><path d="M1075.887 980.788c33.087-6.906 65.507 14.318 72.413 47.405 6.905 33.087-14.318 65.507-47.405 72.413-33.087 6.906-65.508-14.318-72.413-47.405-6.906-33.087 14.318-65.507 47.405-72.413z" fill="#f9e7b1" fill-rule="evenodd"/><path d="M1081.035 1005.456c19.463-4.062 38.534 8.423 42.596 27.886 4.062 19.462-8.422 38.533-27.885 42.595-19.463 4.063-38.534-8.422-42.596-27.885-4.062-19.463 8.423-38.533 27.885-42.596z" fill="#5b9bd5" fill-rule="evenodd"/><path stroke-width="1.016" stroke-miterlimit="8" fill="none" stroke="#5b9bd5" d="M1081.035 1005.456c19.463-4.062 38.534 8.423 42.596 27.886 4.062 19.462-8.422 38.533-27.885 42.595-19.463 4.063-38.534-8.422-42.596-27.885-4.062-19.463 8.423-38.534 27.885-42.596z"/><path d="M1020.232 1042.775c19.463-4.062 38.534 8.423 42.596 27.886 4.062 19.463-8.422 38.534-27.885 42.596-19.463 4.062-38.534-8.423-42.596-27.886-4.062-19.463 8.422-38.533 27.885-42.596z" fill="#5b9bd5" fill-rule="evenodd"/><path stroke-width="1.016" stroke-miterlimit="8" fill="none" stroke="#5b9bd5" d="M1020.232 1042.775c19.463-4.062 38.534 8.423 42.596 27.886 4.062 19.463-8.422 38.533-27.885 42.596-19.463 4.062-38.534-8.423-42.596-27.886-4.062-19.462 8.423-38.533 27.885-42.596z"/><path d="M949.503 1059.767c19.462-4.062 38.533 8.422 42.596 27.885 4.062 19.463-8.423 38.534-27.886 42.596-19.463 4.062-38.533-8.422-42.596-27.885-4.062-19.463 8.423-38.534 27.886-42.596z" fill="#5b9bd5" fill-rule="evenodd"/><path stroke-width="1.016" stroke-miterlimit="8" fill="none" stroke="#5b9bd5" d="M949.503 1059.767c19.463-4.062 38.533 8.422 42.596 27.885 4.062 19.463-8.423 38.534-27.886 42.596-19.463 4.062-38.533-8.422-42.596-27.885-4.062-19.463 8.423-38.534 27.886-42.596z"/><path d="M881.319 1083.916c19.462-4.062 38.533 8.423 42.595 27.886 4.063 19.462-8.422 38.533-27.885 42.595-19.463 4.063-38.534-8.422-42.596-27.885-4.062-19.463 8.423-38.534 27.886-42.596z" fill="#5b9bd5" fill-rule="evenodd"/><path stroke-width="1.016" stroke-miterlimit="8" fill="none" stroke="#5b9bd5" d="M881.319 1083.916c19.462-4.062 38.533 8.423 42.595 27.886 4.063 19.462-8.422 38.533-27.885 42.595-19.463 4.063-38.534-8.422-42.596-27.885-4.062-19.463 8.423-38.534 27.886-42.596z"/><path d="M930.2 893.327c27.827-19.186 65.938-12.18 85.123 15.647 19.186 27.828 12.18 65.939-15.647 85.124-27.828 19.185-65.939 12.18-85.124-15.648-19.185-27.827-12.18-65.938 15.648-85.123z" fill="#f9e7b1" fill-rule="evenodd"/><path d="M983.702 844.647c27.828-19.185 65.939-12.18 85.124 15.647 19.185 27.828 12.18 65.939-15.648 85.124-27.827 19.185-65.938 12.18-85.123-15.647-19.185-27.828-12.18-65.939 15.647-85.124z" fill="#f9e7b1" fill-rule="evenodd"/><path d="M1042.325 801.58c27.827-19.185 65.938-12.18 85.124 15.647 19.185 27.828 12.179 65.939-15.648 85.124-27.827 19.185-65.938 12.18-85.124-15.647-19.185-27.828-12.179-65.939 15.648-85.124z" fill="#f9e7b1" fill-rule="evenodd"/><path d="M1083.921 743.618c27.827-19.185 65.938-12.18 85.123 15.648 19.186 27.827 12.18 65.938-15.647 85.124-27.827 19.185-65.939 12.18-85.124-15.648-19.185-27.827-12.179-65.938 15.648-85.124z" fill="#f9e7b1" fill-rule="evenodd"/><path d="M1098.225 764.365c16.369-11.285 38.787-7.164 50.072 9.205 11.286 16.369 7.165 38.787-9.204 50.072-16.369 11.286-38.787 7.165-50.073-9.204-11.285-16.369-7.164-38.787 9.205-50.073z" fill="#5b9bd5" fill-rule="evenodd"/><path stroke-width="1.016" stroke-miterlimit="8" fill="none" stroke="#5b9bd5" d="M1098.224 764.365c16.37-11.285 38.788-7.164 50.073 9.205 11.286 16.369 7.165 38.787-9.204 50.073-16.37 11.285-38.788 7.164-50.073-9.205-11.286-16.369-7.165-38.787 9.204-50.073z"/><path d="M1056.629 822.327c16.369-11.286 38.787-7.165 50.073 9.204 11.285 16.37 7.164 38.788-9.205 50.073-16.369 11.285-38.787 7.164-50.073-9.204-11.285-16.37-7.164-38.788 9.205-50.073z" fill="#5b9bd5" fill-rule="evenodd"/><path stroke-width="1.016" stroke-miterlimit="8" fill="none" stroke="#5b9bd5" d="M1056.628 822.327c16.37-11.286 38.788-7.165 50.073 9.204 11.286 16.37 7.165 38.788-9.204 50.073-16.37 11.286-38.788 7.165-50.073-9.204-11.286-16.37-7.165-38.788 9.204-50.073z"/><path d="M998.006 865.394c16.369-11.286 38.787-7.165 50.073 9.204 11.285 16.37 7.164 38.788-9.205 50.073-16.369 11.285-38.787 7.164-50.072-9.204-11.286-16.37-7.165-38.788 9.204-50.073z" fill="#5b9bd5" fill-rule="evenodd"/><path stroke-width="1.016" stroke-miterlimit="8" fill="none" stroke="#5b9bd5" d="M998.006 865.394c16.37-11.285 38.788-7.164 50.073 9.204 11.286 16.37 7.165 38.788-9.204 50.073-16.37 11.286-38.788 7.165-50.073-9.204-11.286-16.37-7.165-38.788 9.204-50.073z"/><path d="M944.504 914.074c16.369-11.286 38.787-7.165 50.072 9.204 11.286 16.37 7.165 38.787-9.204 50.073-16.37 11.285-38.787 7.164-50.073-9.204-11.285-16.37-7.164-38.788 9.205-50.073z" fill="#5b9bd5" fill-rule="evenodd"/><path stroke-width="1.016" stroke-miterlimit="8" fill="none" stroke="#5b9bd5" d="M944.504 914.074c16.369-11.286 38.787-7.165 50.072 9.204 11.286 16.37 7.165 38.787-9.204 50.073-16.37 11.285-38.787 7.164-50.073-9.205-11.285-16.369-7.164-38.787 9.205-50.072z"/><path stroke-width="6.096" stroke-miterlimit="8" fill="none" stroke="#000" d="M2.475 0h540v540h-540z"/><path d="M39.122 87.751a7.2 7.2 0 1 1 14.4 0 7.2 7.2 0 0 1-14.4 0z" fill="#5b9bd5" fill-rule="evenodd"/><path stroke-width="1.016" stroke-miterlimit="8" fill="none" stroke="#5b9bd5" d="M39.122 87.751a7.2 7.2 0 1 1 14.4 0 7.2 7.2 0 0 1-14.4 0z"/><path d="M154.362 166.619a7.2 7.2 0 1 1 7.2 7.2 7.2 7.2 0 0 1-7.2-7.2z" fill="#5b9bd5" fill-rule="evenodd"/><path stroke-width="1.016" stroke-miterlimit="8" fill="none" stroke="#5b9bd5" d="M154.362 166.619a7.2 7.2 0 1 1 14.4 0 7.2 7.2 0 0 1-14.4 0z"/><path d="M40.423 261.045a7.2 7.2 0 1 1 14.4 0 7.2 7.2 0 0 1-14.4 0z" fill="#5b9bd5" fill-rule="evenodd"/><path stroke-width="1.016" stroke-miterlimit="8" fill="none" stroke="#5b9bd5" d="M40.423 261.045a7.2 7.2 0 1 1 14.4 0 7.2 7.2 0 0 1-14.4 0z"/><path d="M41.703 461.53a7.2 7.2 0 1 1 14.4 0 7.2 7.2 0 0 1-14.4 0z" fill="#5b9bd5" fill-rule="evenodd"/><path stroke-width="1.016" stroke-miterlimit="8" fill="none" stroke="#5b9bd5" d="M41.703 461.53a7.2 7.2 0 1 1 14.4 0 7.2 7.2 0 0 1-14.4 0z"/><path d="M458.496 336.55a7.2 7.2 0 1 1 6.233 12.98 7.2 7.2 0 0 1-6.233-12.98z" fill="#5b9bd5" fill-rule="evenodd"/><path stroke-width="1.016" stroke-miterlimit="8" fill="none" stroke="#5b9bd5" d="M458.496 336.55a7.2 7.2 0 1 1 6.233 12.981 7.2 7.2 0 0 1-6.233-12.98z"/><path d="M393.252 453.308a7.2 7.2 0 1 1 6.233 12.98 7.2 7.2 0 0 1-6.233-12.98z" fill="#5b9bd5" fill-rule="evenodd"/><path stroke-width="1.016" stroke-miterlimit="8" fill="none" stroke="#5b9bd5" d="M393.252 453.308a7.2 7.2 0 1 1 6.233 12.98 7.2 7.2 0 0 1-6.233-12.98z"/><path d="M185.903 335.806a7.2 7.2 0 1 1 6.233 12.981 7.2 7.2 0 0 1-6.233-12.98z" fill="#5b9bd5" fill-rule="evenodd"/><path stroke-width="1.016" stroke-miterlimit="8" fill="none" stroke="#5b9bd5" d="M185.902 335.806a7.2 7.2 0 1 1 6.234 12.981 7.2 7.2 0 0 1-6.234-12.98z"/><path d="M224.453 470.373a7.2 7.2 0 1 1 6.233 12.98 7.2 7.2 0 0 1-6.233-12.98z" fill="#5b9bd5" fill-rule="evenodd"/><path stroke-width="1.016" stroke-miterlimit="8" fill="none" stroke="#5b9bd5" d="M224.453 470.373a7.2 7.2 0 1 1 6.233 12.98 7.2 7.2 0 0 1-6.233-12.98z"/><path d="M471.709 69.461a7.2 7.2 0 1 1 8.173 11.858 7.2 7.2 0 0 1-8.173-11.858z" fill="#5b9bd5" fill-rule="evenodd"/><path stroke-width="1.016" stroke-miterlimit="8" fill="none" stroke="#5b9bd5" d="M471.709 69.462a7.2 7.2 0 1 1 8.173 11.855 7.2 7.2 0 0 1-8.173-11.855z"/><path d="M317.435 81.113a7.2 7.2 0 1 1 8.174 11.856 7.2 7.2 0 1 1-8.174-11.856z" fill="#5b9bd5" fill-rule="evenodd"/><path stroke-width="1.016" stroke-miterlimit="8" fill="none" stroke="#5b9bd5" d="M317.435 81.113a7.2 7.2 0 1 1 8.174 11.855 7.2 7.2 0 0 1-8.174-11.855z"/><path d="M396.57 206.684a7.2 7.2 0 1 1 8.174 11.858 7.2 7.2 0 0 1-8.174-11.858z" fill="#5b9bd5" fill-rule="evenodd"/><path stroke-width="1.016" stroke-miterlimit="8" fill="none" stroke="#5b9bd5" d="M396.57 206.685a7.2 7.2 0 1 1 8.174 11.855 7.2 7.2 0 0 1-8.174-11.855z"/><path d="M308.017 344.653a7.2 7.2 0 1 1 8.174 11.856 7.2 7.2 0 0 1-8.174-11.856z" fill="#5b9bd5" fill-rule="evenodd"/><path stroke-width="1.016" stroke-miterlimit="8" fill="none" stroke="#5b9bd5" d="M308.017 344.653a7.2 7.2 0 1 1 8.174 11.856 7.2 7.2 0 0 1-8.174-11.856z"/><path d="m653.288 565.604-28.256 26.18 18.972 20.476-66.2-14.774-9.689-67.134 18.972 20.477 28.257-26.18z" fill="red" fill-rule="evenodd"/><path stroke-width="1.016" stroke-miterlimit="8" fill="none" stroke="red" d="m653.288 565.604-28.256 26.18 18.972 20.476-66.2-14.774-9.689-67.134 18.972 20.477 28.257-26.18z"/><path d="M575.857 913.283h38.52v-27.915l38.52 55.83-38.52 55.83v-27.915h-38.52z" fill="red" fill-rule="evenodd"/><path stroke-width="1.016" stroke-miterlimit="8" fill="none" stroke="red" d="M575.857 913.283h38.52v-27.916l38.52 55.83-38.52 55.831v-27.915h-38.52z"/><symbol id="b"><path d="M.335.281V0H.266v.281H0v.065h.266v.281h.07v-.28h.266V.28H.335z"/></symbol><use xlink:href="#b" transform="matrix(36 0 0 -36 567.634 399.402)"/><symbol id="c"><path d="m.376 0 .006.024C.4.026.415.033.425.046c.01.014.014.037.014.07 0 .013 0 .027-.002.042L.434.221H.22L.192.173A.393.393 0 0 1 .165.115a.125.125 0 0 1-.01-.042c0-.028.017-.044.05-.05L.2 0H0l.005.024a.06.06 0 0 1 .029.012c.009.006.018.017.028.03.01.014.025.036.043.067l.313.541h.074L.527.13A.295.295 0 0 1 .536.07.075.075 0 0 1 .553.036.059.059 0 0 1 .585.024L.58 0H.376M.241.264h.191L.424.42A3.295 3.295 0 0 0 .42.57H.415L.241.264z"/></symbol><use xlink:href="#c" transform="matrix(36 0 0 -36 591.661 398.4)"/><symbol id="d"><path d="M.562.125.563.083A.06.06 0 0 1 .57.058.042.042 0 0 1 .59.042a.263.263 0 0 1 .036-.01V0h-.23v.031a.736.736 0 0 1 .032.01.038.038 0 0 1 .019.013.05.05 0 0 1 .009.025l.003.046V.32H.167V.125L.168.08A.053.053 0 0 1 .176.055.042.042 0 0 1 .195.042.624.624 0 0 1 .23.032V0H0v.031l.036.012a.039.039 0 0 1 .019.013A.045.045 0 0 1 .06.08l.001.045v.417L.061.587C.06.597.058.605.054.61a.034.034 0 0 1-.019.013L0 .634v.033h.23V.634A3.828 3.828 0 0 0 .195.623a.038.038 0 0 1-.02-.012.043.043 0 0 1-.007-.023.54.54 0 0 1-.001-.046V.375h.291v.167a.5.5 0 0 1-.001.044C.456.596.454.605.45.61A.036.036 0 0 1 .43.623a1.34 1.34 0 0 1-.036.011v.033h.23V.634A.736.736 0 0 1 .59.624.037.037 0 0 1 .57.61.046.046 0 0 1 .563.587.525.525 0 0 1 .562.542V.125z"/></symbol><symbol id="e"><path d="M.495.52H.44a.243.243 0 0 1-.02.052.125.125 0 0 1-.03.036.102.102 0 0 1-.039.02.171.171 0 0 1-.125-.011.17.17 0 0 1-.06-.055A.292.292 0 0 1 .127.47.625.625 0 0 1 .124.22.305.305 0 0 1 .158.13.16.16 0 0 1 .212.073a.147.147 0 0 1 .075-.02c.022 0 .04.003.056.006a.109.109 0 0 1 .072.056.34.34 0 0 1 .024.059h.056V.027a1.209 1.209 0 0 0-.101-.02A.94.94 0 0 0 .276 0C.186 0 .116.028.07.084.023.141 0 .226 0 .338c0 .053.007.1.02.143.015.043.035.08.061.11A.27.27 0 0 0 .18.662.326.326 0 0 0 .31.687.737.737 0 0 0 .495.663V.521z"/></symbol><use xlink:href="#d" transform="matrix(25.99999 0 0 -25.99999 616.392 405.84)"/><use xlink:href="#e" transform="matrix(25.99999 0 0 -25.99999 636.442 406.132)"/><use xlink:href="#b" transform="matrix(36 0 0 -36 554.272 644.202)"/><use xlink:href="#c" transform="matrix(36 0 0 -36 578.3 643.2)"/><symbol id="f"><path d="M.354.548a1.966 1.966 0 0 1-.001.079.186.186 0 0 1-.005.019.029.029 0 0 1-.009.015.046.046 0 0 1-.019.011.149.149 0 0 1-.034.008v.032L.417.72H.45V.095c0-.011.002-.02.006-.027a.036.036 0 0 1 .02-.015.348.348 0 0 1 .04-.01V.008A4.365 4.365 0 0 0 .39.004H.354a.88.88 0 0 1 .002.082H.354A.523.523 0 0 0 .306.044a.223.223 0 0 0-.04-.025A.138.138 0 0 0 .23.005a.184.184 0 0 0-.122.01.16.16 0 0 0-.059.05.234.234 0 0 0-.036.078.426.426 0 0 0 .006.217.23.23 0 0 0 .05.081.207.207 0 0 0 .075.05.26.26 0 0 0 .127.015.2.2 0 0 0 .057-.011.365.365 0 0 0 .027-.01v.063m0-.232a.298.298 0 0 1-.006.07.103.103 0 0 1-.021.045.069.069 0 0 1-.035.022.178.178 0 0 1-.05.006.116.116 0 0 1-.103-.052.258.258 0 0 1-.035-.146c0-.066.01-.115.03-.147a.099.099 0 0 1 .09-.048.14.14 0 0 1 .095.038c.01.012.02.025.026.039.006.014.01.028.01.042v.131z"/></symbol><symbol id="g"><path d="M.165.69V.585H.062V.69h.103M.007.031l.031.011a.035.035 0 0 1 .018.012.05.05 0 0 1 .007.024l.002.045v.23a.356.356 0 0 1-.006.069.03.03 0 0 1-.01.014.05.05 0 0 1-.018.01.209.209 0 0 1-.031.01v.032l.126.006h.036v-.37L.163.08A.053.053 0 0 1 .17.055.04.04 0 0 1 .188.042l.034-.01V0H.007v.031z"/></symbol><symbol id="h"><path d="M.363.38H.307a.148.148 0 0 1-.018.036.087.087 0 0 1-.054.038.144.144 0 0 1-.04.005A.112.112 0 0 1 .13.441a.058.058 0 0 1-.024-.05.08.08 0 0 1 .003-.024.055.055 0 0 1 .016-.022.172.172 0 0 1 .034-.023A.73.73 0 0 1 .22.293a.717.717 0 0 0 .067-.03.217.217 0 0 0 .046-.031.103.103 0 0 0 .026-.037.126.126 0 0 0 .009-.048.148.148 0 0 0-.014-.065.122.122 0 0 0-.039-.046.177.177 0 0 0-.062-.027A.355.355 0 0 0 .171 0 .617.617 0 0 0 0 .024v.111h.055A.13.13 0 0 1 .098.068a.128.128 0 0 1 .077-.02c.014 0 .027 0 .038.004a.091.091 0 0 1 .032.013.069.069 0 0 1 .028.057c0 .008 0 .015-.002.021A.061.061 0 0 1 .25.175a.544.544 0 0 1-.072.041A22.924 22.924 0 0 1 .08.263a.2.2 0 0 0-.038.026.121.121 0 0 0-.024.034.105.105 0 0 0-.01.045C.01.39.016.412.026.43c.01.017.024.032.042.043A.2.2 0 0 0 .13.5a.34.34 0 0 0 .113.007.68.68 0 0 0 .12-.017V.38z"/></symbol><symbol id="i"><path d="M.162.124V.08A.05.05 0 0 1 .17.056.04.04 0 0 1 .19.043a.95.95 0 0 1 .037-.01V0H.005v.032a.56.56 0 0 1 .033.011.036.036 0 0 1 .018.013.046.046 0 0 1 .007.024c.002.01.002.025.002.044v.481a.066.066 0 0 1-.006.03.037.037 0 0 1-.019.018.147.147 0 0 1-.04.011v.033l.126.006h.037A1.646 1.646 0 0 0 .156.62.005.005 0 0 1 .158.62L.161.619C.18.639.2.655.215.667c.016.012.03.02.044.026.013.007.025.01.036.012a.256.256 0 0 0 .037.003.158.158 0 0 0 .135-.065.31.31 0 0 0 .048-.187A.354.354 0 0 0 .5.341a.214.214 0 0 0-.046-.08A.18.18 0 0 0 .38.216a.319.319 0 0 0-.22.008V.124m0 .27C.162.363.165.34.169.32A.104.104 0 0 1 .191.276.08.08 0 0 1 .229.253.23.23 0 0 1 .284.248c.043 0 .075.016.096.05a.275.275 0 0 1 .032.147c0 .066-.01.115-.03.147A.097.097 0 0 1 .294.64a.15.15 0 0 1-.12-.069.074.074 0 0 1-.011-.038v-.14z"/></symbol><use xlink:href="#f" transform="matrix(25.99999 0 0 -25.99999 602.929 650.869)"/><use xlink:href="#g" transform="matrix(25.99999 0 0 -25.99999 619.136 650.64)"/><use xlink:href="#h" transform="matrix(25.99999 0 0 -25.99999 627.793 650.869)"/><use xlink:href="#i" transform="matrix(25.99999 0 0 -25.99999 640.387 656.074)"/><symbol id="j"><path d="M.099.113V0H0v.113h.099z"/></symbol><use xlink:href="#j" transform="matrix(25.99999 0 0 -25.99999 657.037 650.64)"/><use xlink:href="#b" transform="matrix(36 0 0 -36 548.995 1023.402)"/><use xlink:href="#c" transform="matrix(36 0 0 -36 573.022 1022.4)"/><symbol id="k"><path d="M.313.009a1.34 1.34 0 0 1 0 .072L.309.083A.434.434 0 0 0 .224.019.182.182 0 0 0 .138 0 .17.17 0 0 0 .08.01a.129.129 0 0 0-.043.025A.122.122 0 0 0 0 .126c0 .05.026.089.077.115a.583.583 0 0 0 .23.048v.035a.271.271 0 0 1-.006.061.1.1 0 0 1-.017.041.065.065 0 0 1-.032.023.135.135 0 0 1-.047.007.103.103 0 0 1-.065-.02A.122.122 0 0 1 .101.37H.03v.074a1.17 1.17 0 0 0 .12.047.362.362 0 0 0 .103.015A.27.27 0 0 0 .318.5.1.1 0 0 0 .393.422a.282.282 0 0 0 .01-.08V.106c0-.013.001-.024.004-.032a.04.04 0 0 1 .018-.02A.186.186 0 0 1 .463.04V.009h-.15M.307.243a.395.395 0 0 1-.16-.028C.115.198.098.173.098.138.097.111.105.092.12.08A.1.1 0 0 1 .182.062a.128.128 0 0 1 .116.07c.006.012.01.024.01.036v.075z"/></symbol><symbol id="l"><path d="M.23 0a.291.291 0 0 0-.097.015.186.186 0 0 0-.117.124A.35.35 0 0 0 0 .25C0 .293.006.33.018.36a.21.21 0 0 0 .125.13c.03.012.061.017.095.017C.28.507.314.501.343.49A.189.189 0 0 0 .457.36a.353.353 0 0 0 .014-.1.335.335 0 0 0-.017-.112.214.214 0 0 0-.049-.081.2.2 0 0 0-.075-.05A.281.281 0 0 0 .23 0M.106.258a.41.41 0 0 1 .009-.09A.214.214 0 0 1 .14.103.109.109 0 0 1 .237.048c.024 0 .044.005.06.015.016.011.03.026.04.043.01.019.017.04.022.063a.407.407 0 0 1-.004.172.202.202 0 0 1-.027.066.105.105 0 0 1-.092.052A.109.109 0 0 1 .14.407a.275.275 0 0 1-.034-.15z"/></symbol><symbol id="m"><path d="M.397.374H.325a.128.128 0 0 1-.033.065.087.087 0 0 1-.062.02.104.104 0 0 1-.09-.052.212.212 0 0 1-.026-.063.447.447 0 0 1-.002-.168.177.177 0 0 1 .023-.06.104.104 0 0 1 .04-.037.16.16 0 0 1 .128.002c.022.011.045.028.068.05A.285.285 0 0 1 .403.096.448.448 0 0 0 .355.05.25.25 0 0 0 .309.021.193.193 0 0 0 .26.005.28.28 0 0 0 .207 0a.189.189 0 0 0-.154.064C.018.107 0 .17 0 .251 0 .29.006.324.017.355a.22.22 0 0 0 .125.133c.03.013.062.02.097.02A.647.647 0 0 0 .361.493.633.633 0 0 0 .397.485V.374z"/></symbol><use xlink:href="#k" transform="matrix(25.99999 0 0 -25.99999 597.308 1030.068)"/><use xlink:href="#h" transform="matrix(25.99999 0 0 -25.99999 612.024 1030.068)"/><use xlink:href="#h" transform="matrix(25.99999 0 0 -25.99999 624.912 1030.068)"/><use xlink:href="#l" transform="matrix(25.99999 0 0 -25.99999 637.928 1030.068)"/><use xlink:href="#m" transform="matrix(25.99999 0 0 -25.99999 653.676 1030.068)"/><use xlink:href="#j" transform="matrix(25.99999 0 0 -25.99999 666.51 1029.84)"/><path d="M740.466 795.098c0-5.964 4.835-10.8 10.8-10.8 5.964 0 10.8 4.836 10.8 10.8 0 5.965-4.836 10.8-10.8 10.8-5.965 0-10.8-4.835-10.8-10.8z" fill="red" fill-rule="evenodd"/><path stroke-width="1.016" stroke-miterlimit="8" fill="none" stroke="red" d="M740.466 795.098c0-5.964 4.835-10.8 10.8-10.8 5.964 0 10.8 4.836 10.8 10.8 0 5.965-4.836 10.8-10.8 10.8-5.965 0-10.8-4.835-10.8-10.8z"/><path d="M815.394 1091.779c0-5.965 4.835-10.8 10.8-10.8 5.964 0 10.8 4.835 10.8 10.8 0 5.964-4.836 10.8-10.8 10.8-5.965 0-10.8-4.836-10.8-10.8z" fill="red" fill-rule="evenodd"/><path stroke-width="1.016" stroke-miterlimit="8" fill="none" stroke="red" d="M815.394 1091.779c0-5.965 4.835-10.8 10.8-10.8 5.964 0 10.8 4.835 10.8 10.8 0 5.964-4.836 10.8-10.8 10.8-5.965 0-10.8-4.836-10.8-10.8z"/><path d="M832.453 1103.25c1.429-5.792 7.282-9.328 13.073-7.899 5.79 1.43 9.327 7.282 7.898 13.073-1.43 5.791-7.282 9.327-13.073 7.898-5.791-1.429-9.327-7.282-7.898-13.073z" fill="red" fill-rule="evenodd"/><path stroke-width="1.016" stroke-miterlimit="8" fill="none" stroke="red" d="M832.453 1103.25c1.429-5.792 7.282-9.328 13.073-7.899 5.79 1.43 9.327 7.282 7.898 13.073-1.43 5.791-7.282 9.327-13.073 7.898-5.791-1.429-9.327-7.282-7.898-13.073z"/><path d="M1100.992 998.158c1.429-5.791 7.282-9.328 13.073-7.899 5.791 1.43 9.327 7.282 7.898 13.073-1.429 5.791-7.282 9.327-13.073 7.898-5.791-1.429-9.327-7.282-7.898-13.072z" fill="red" fill-rule="evenodd"/><path stroke-width="1.016" stroke-miterlimit="8" fill="none" stroke="red" d="M1100.993 998.157c1.429-5.79 7.282-9.327 13.072-7.898 5.791 1.43 9.328 7.282 7.899 13.073-1.43 5.791-7.282 9.327-13.073 7.898-5.791-1.429-9.327-7.282-7.898-13.073z"/><path d="M909.694 958.128c0-5.965 4.835-10.8 10.8-10.8 5.964 0 10.8 4.835 10.8 10.8 0 5.964-4.836 10.8-10.8 10.8-5.965 0-10.8-4.836-10.8-10.8z" fill="red" fill-rule="evenodd"/><path stroke-width="1.016" stroke-miterlimit="8" fill="none" stroke="red" d="M909.694 958.128c0-5.965 4.835-10.8 10.8-10.8 5.964 0 10.8 4.835 10.8 10.8 0 5.964-4.836 10.8-10.8 10.8-5.965 0-10.8-4.836-10.8-10.8z"/><path d="M1127.136 749.668c0-5.965 4.835-10.8 10.8-10.8 5.964 0 10.8 4.835 10.8 10.8 0 5.965-4.836 10.8-10.8 10.8-5.965 0-10.8-4.835-10.8-10.8z" fill="red" fill-rule="evenodd"/><path stroke-width="1.016" stroke-miterlimit="8" fill="none" stroke="red" d="M1127.136 749.668c0-5.965 4.835-10.8 10.8-10.8 5.965 0 10.8 4.835 10.8 10.8 0 5.965-4.835 10.8-10.8 10.8-5.965 0-10.8-4.835-10.8-10.8z"/><path stroke-width="6.096" stroke-miterlimit="8" fill="none" stroke="#000" d="M681.112-1.396h540v540h-540z"/><path d="M738.93 154.208c0-19.882 16.118-36 36-36s36 16.118 36 36c0 19.883-16.118 36-36 36s-36-16.117-36-36z" fill="#5b9bd5" fill-rule="evenodd"/><path stroke-width="1.016" stroke-miterlimit="8" fill="none" stroke="#5b9bd5" d="M738.93 154.208c0-19.882 16.118-36 36-36s36 16.118 36 36-16.118 36-36 36-36-16.118-36-36z"/><path d="M763.039 221.354c0-19.882 16.118-36 36-36s36 16.118 36 36-16.118 36-36 36-36-16.118-36-36z" fill="#5b9bd5" fill-rule="evenodd"/><path stroke-width="1.016" stroke-miterlimit="8" fill="none" stroke="#5b9bd5" d="M763.039 221.354c0-19.882 16.118-36 36-36s36 16.118 36 36-16.118 36-36 36-36-16.118-36-36z"/><path d="M765.22 294.063c0-19.882 16.119-36 36-36 19.883 0 36 16.118 36 36s-16.117 36-36 36c-19.881 0-36-16.118-36-36z" fill="#5b9bd5" fill-rule="evenodd"/><path stroke-width="1.016" stroke-miterlimit="8" fill="none" stroke="#5b9bd5" d="M765.22 294.063c0-19.882 16.119-36 36-36 19.883 0 36 16.118 36 36s-16.117 36-36 36c-19.881 0-36-16.118-36-36z"/><path d="M774.93 365.743c0-19.883 16.118-36 36-36s36 16.117 36 36c0 19.882-16.118 36-36 36s-36-16.118-36-36z" fill="#5b9bd5" fill-rule="evenodd"/><path stroke-width="1.016" stroke-miterlimit="8" fill="none" stroke="#5b9bd5" d="M774.93 365.743c0-19.883 16.118-36 36-36s36 16.117 36 36c0 19.882-16.118 36-36 36s-36-16.118-36-36z"/><path d="M1111.172 302.021c17.922-8.606 39.429-1.054 48.035 16.869 8.607 17.923 1.055 39.43-16.868 48.036-17.923 8.606-39.429 1.054-48.036-16.869s-1.054-39.43 16.869-48.036z" fill="#5b9bd5" fill-rule="evenodd"/><path stroke-width="1.016" stroke-miterlimit="8" fill="none" stroke="#5b9bd5" d="M1111.172 302.021c17.923-8.606 39.43-1.054 48.036 16.869 8.606 17.923 1.054 39.43-16.869 48.036-17.923 8.606-39.43 1.054-48.036-16.869-8.606-17.923-1.054-39.43 16.869-48.036z"/><path d="M1061.079 352.82c17.923-8.606 39.43-1.054 48.036 16.869 8.607 17.923 1.055 39.43-16.868 48.036-17.923 8.606-39.429 1.054-48.036-16.869s-1.054-39.429 16.868-48.036z" fill="#5b9bd5" fill-rule="evenodd"/><path stroke-width="1.016" stroke-miterlimit="8" fill="none" stroke="#5b9bd5" d="M1061.08 352.82c17.923-8.606 39.43-1.054 48.036 16.869 8.606 17.923 1.054 39.43-16.869 48.036-17.923 8.606-39.43 1.054-48.036-16.869-8.606-17.923-1.054-39.43 16.869-48.036z"/><path d="M996.48 386.261c17.923-8.606 39.43-1.054 48.036 16.87 8.607 17.922 1.054 39.428-16.868 48.035-17.923 8.607-39.43 1.054-48.036-16.869-8.607-17.922-1.055-39.429 16.868-48.036z" fill="#5b9bd5" fill-rule="evenodd"/><path stroke-width="1.016" stroke-miterlimit="8" fill="none" stroke="#5b9bd5" d="M996.48 386.261c17.923-8.606 39.43-1.054 48.036 16.87 8.606 17.922 1.054 39.428-16.869 48.035s-39.43 1.054-48.036-16.869c-8.606-17.922-1.054-39.429 16.869-48.036z"/><path d="M936.067 426.043c17.923-8.607 39.43-1.055 48.036 16.868 8.607 17.923 1.055 39.43-16.868 48.036-17.923 8.607-39.43 1.054-48.036-16.869-8.607-17.923-1.055-39.429 16.868-48.035z" fill="#5b9bd5" fill-rule="evenodd"/><path stroke-width="1.016" stroke-miterlimit="8" fill="none" stroke="#5b9bd5" d="M936.067 426.042c17.923-8.606 39.43-1.054 48.036 16.87 8.607 17.922 1.055 39.428-16.868 48.035s-39.43 1.054-48.036-16.869c-8.607-17.922-1.055-39.429 16.868-48.036z"/><path d="M1096.689 83.5c16.369-11.285 38.787-7.164 50.073 9.205 11.285 16.369 7.164 38.787-9.205 50.073-16.369 11.285-38.787 7.164-50.073-9.205-11.285-16.369-7.164-38.787 9.205-50.073z" fill="#5b9bd5" fill-rule="evenodd"/><path stroke-width="1.016" stroke-miterlimit="8" fill="none" stroke="#5b9bd5" d="M1096.69 83.5c16.368-11.285 38.787-7.164 50.072 9.205 11.286 16.369 7.165 38.787-9.204 50.072-16.37 11.286-38.788 7.165-50.073-9.204-11.286-16.37-7.165-38.787 9.204-50.073z"/><path d="M1055.093 141.462c16.369-11.285 38.787-7.164 50.073 9.205 11.285 16.368 7.164 38.787-9.205 50.072-16.369 11.286-38.787 7.165-50.072-9.204-11.286-16.369-7.165-38.788 9.204-50.073z" fill="#5b9bd5" fill-rule="evenodd"/><path stroke-width="1.016" stroke-miterlimit="8" fill="none" stroke="#5b9bd5" d="M1055.093 141.462c16.37-11.285 38.788-7.164 50.073 9.205 11.286 16.369 7.165 38.787-9.204 50.072-16.37 11.286-38.788 7.165-50.073-9.204-11.286-16.37-7.165-38.787 9.204-50.073z"/><path d="M996.47 184.529c16.37-11.285 38.788-7.164 50.073 9.205 11.286 16.368 7.165 38.787-9.204 50.072-16.369 11.286-38.787 7.165-50.073-9.204-11.285-16.369-7.164-38.788 9.205-50.073z" fill="#5b9bd5" fill-rule="evenodd"/><path stroke-width="1.016" stroke-miterlimit="8" fill="none" stroke="#5b9bd5" d="M996.47 184.53c16.37-11.286 38.788-7.165 50.073 9.204 11.286 16.369 7.165 38.787-9.204 50.072-16.37 11.286-38.788 7.165-50.073-9.204-11.286-16.37-7.165-38.787 9.204-50.073z"/><path d="M942.968 233.209c16.369-11.286 38.787-7.165 50.073 9.204 11.285 16.37 7.164 38.788-9.205 50.073-16.369 11.285-38.787 7.164-50.072-9.204-11.286-16.37-7.165-38.788 9.204-50.073z" fill="#5b9bd5" fill-rule="evenodd"/><path stroke-width="1.016" stroke-miterlimit="8" fill="none" stroke="#5b9bd5" d="M942.968 233.21c16.369-11.286 38.787-7.165 50.073 9.204 11.285 16.369 7.164 38.787-9.205 50.072-16.369 11.286-38.787 7.165-50.073-9.204-11.285-16.37-7.164-38.787 9.205-50.073z"/></svg>