<svg xmlns="http://www.w3.org/2000/svg" xmlns:xlink="http://www.w3.org/1999/xlink" width="672" height="672" viewBox="0 0 504 504"><clipPath id="a"><path transform="matrix(1 0 0 -1 0 504)" d="M0 0h504v504H0z"/></clipPath><g clip-path="url(#a)"><path d="M0 0h504v504H0z" fill="#fff"/></g><path d="M0 0h504v504H0z" fill="#fff"/><path stroke-width="2.286" stroke-miterlimit="8" fill="none" stroke="#000" d="M142.597 367.64h218.806v91.637H142.597zM142.597 395.503h17.619M178.216 377.503l-18 18M178.216 377.459l36 36M250.216 377.459l-36 36M250.216 377.459l36 36M322.216 377.459l-36 36M361.403 395.459h-21.187M322.216 377.459l18 18"/><path stroke-width="2.286" stroke-miterlimit="8" fill="none" stroke="#00b0f0" d="M142.597 430.44h17.619M178.216 412.44l-18 18M178.216 412.396l36 36M250.216 412.396l-36 36M250.216 412.396l36 36M322.216 412.396l-36 36M361.403 430.396h-21.187M322.216 412.396l18 18"/><path stroke-width="2.286" stroke-miterlimit="8" fill="none" stroke="#000" d="M138.165 34.86H356.97v91.637H138.165z"/><path stroke-width="2.286" stroke-miterlimit="8" fill="none" stroke="red" d="M138.165 62.723h17.618M173.783 44.723l-18 18M173.783 44.679l36 36M245.783 44.679l-36 36M245.783 44.679l36 36M317.783 44.679l-36 36M356.97 62.679h-21.187M317.783 44.679l18 18"/><path stroke-width="2.286" stroke-miterlimit="8" fill="none" stroke="#000" d="M138.165 97.66h17.618M173.783 79.66l-18 18M173.783 79.616l36 36M245.783 79.616l-36 36M245.783 79.616l36 36M317.783 79.616l-36 36M356.97 97.616h-21.187M317.783 79.616l18 18M124.518 252c0 23.859-19.342 43.2-43.2 43.2-23.86 0-43.2-19.341-43.2-43.2s19.34-43.2 43.2-43.2c23.858 0 43.2 19.341 43.2 43.2z"/><path stroke-width="2.286" stroke-miterlimit="8" fill="none" stroke="#000" d="m44.645 273.071 36.749-63.36 36.749 63.36zM474.872 300.297l-86.4-21.6v-53.394l86.4-21.6z"/><path d="M358.095 97.616v-.544l-1.125 1.125h47.338l-1.125-1.125v120.424h2.25V95.946h-49.588v1.67zm42.838 118.755 3.375 6.75 3.375-6.75zM459.902 295.2v101.238l-92.875.024v-2.25l91.75-.024-1.125 1.125V295.2zm-91.678 103.487-6.821-3.228 6.675-3.52zM143.26 395.459v-1.866H81.319l1.125 1.125v-93.893h-2.25v95.018h61.943l-1.125-1.125v.74zm-58.567-93.51-3.375-6.75-3.375 6.75zM80.193 208.8V96.636l52.354-.062.002 2.25-51.23.06 1.124-1.124V208.8zm51.05-114.41 6.922 3.006-6.559 3.734z"/><path stroke-width=".762" stroke-linejoin="round" fill="none" stroke="#000" d="M198.662 332h103.107v26.658H198.662z"/><symbol id="b"><path d="M.122.518c.007.03.01.055.01.074C.132.605.13.614.126.62.122.626.116.63.106.63A.055.055 0 0 1 .074.616.346.346 0 0 1 .028.571L0 .6c.03.03.054.052.074.066a.12.12 0 0 0 .068.02.06.06 0 0 0 .048-.02.076.076 0 0 0 .018-.053.166.166 0 0 0-.011-.058L.203.552c.06.088.12.133.18.133A.096.096 0 0 0 .464.644.19.19 0 0 0 .495.53.407.407 0 0 0 .462.37a.302.302 0 0 0-.09-.123.203.203 0 0 0-.129-.046C.2.202.163.212.135.23L.113.124A.287.287 0 0 1 .105.066c0-.014.004-.024.011-.03C.124.03.138.026.16.024L.155 0h-.15l.117.518M.172.38A.543.543 0 0 1 .163.313C.164.288.17.27.18.258.191.246.21.24.237.24c.016 0 .032.003.046.01a.139.139 0 0 1 .04.028.204.204 0 0 1 .033.045.421.421 0 0 1 .051.202c0 .034-.004.06-.014.076C.383.62.368.627.348.627A.085.085 0 0 1 .298.61.359.359 0 0 1 .175.4L.171.38z"/></symbol><use xlink:href="#b" transform="matrix(16 0 0 -16 208.32 354)"/><symbol id="c"><path d="M0 .203v.065h.602V.203H0M0 0v.065h.602V0H0m.622.134z"/></symbol><use xlink:href="#c" transform="matrix(16 0 0 -16 222.811 348.21)"/><symbol id="d"><path d="M.208 0a.173.173 0 0 0-.157.083A.49.49 0 0 0 0 .335c0 .06.005.112.016.155A.34.34 0 0 0 .06.598c.02.029.042.05.069.064.027.013.056.02.087.02A.175.175 0 0 0 .376.6.474.474 0 0 0 .427.35.495.495 0 0 0 .372.088.18.18 0 0 0 .208 0M.095.35c0-.107.01-.184.03-.234.02-.05.05-.074.091-.074.04 0 .069.023.088.07a.61.61 0 0 1 .029.217.91.91 0 0 1-.015.181.225.225 0 0 1-.041.1.08.08 0 0 1-.063.03.083.083 0 0 1-.057-.02.143.143 0 0 1-.036-.057A.396.396 0 0 1 .1.471 1.13 1.13 0 0 1 .095.35z"/></symbol><use xlink:href="#d" transform="matrix(16 0 0 -16 239.1 350.765)"/><symbol id="e"><path d="M.099.113V0H0v.113h.099z"/></symbol><use xlink:href="#e" transform="matrix(16 0 0 -16 247.819 350.64)"/><symbol id="f"><path d="M.252.127C.252.11.253.094.255.084A.056.056 0 0 1 .267.061.059.059 0 0 1 .29.047.216.216 0 0 1 .328.039a.792.792 0 0 1 .06-.003V0h-.36v.036a.715.715 0 0 1 .077.006.096.096 0 0 1 .036.013.046.046 0 0 1 .017.023c.004.01.006.027.006.05v.395c0 .013-.002.023-.007.029a.023.023 0 0 1-.02.009.103.103 0 0 1-.044-.016A1.115 1.115 0 0 1 .02.5L0 .538l.229.136h.026a2.211 2.211 0 0 1-.003-.13V.127z"/></symbol><use xlink:href="#f" transform="matrix(16 0 0 -16 251.608 350.64)"/><symbol id="g"><path d="M.7.643A.14.14 0 0 1 .667.632.047.047 0 0 1 .653.618.063.063 0 0 1 .645.594a.366.366 0 0 1-.003-.05V.122c0-.022 0-.038.002-.048A.074.074 0 0 1 .651.05.044.044 0 0 1 .667.036.143.143 0 0 1 .699.024V0H.496v.024c.018.004.031.01.038.016A.045.045 0 0 1 .55.065c.002.012.004.03.004.057V.31A5.736 5.736 0 0 0 .56.562H.552L.358.078H.302l-.18.491H.115C.116.55.117.514.12.461L.12.301V.122c0-.022 0-.038.002-.048A.074.074 0 0 1 .13.05.044.044 0 0 1 .146.036.143.143 0 0 1 .178.024V0H0v.024c.02.005.034.01.04.017a.047.047 0 0 1 .014.027c.002.012.003.03.003.054v.422c0 .023 0 .04-.002.05a.057.057 0 0 1-.009.023.037.037 0 0 1-.014.014A.152.152 0 0 1 0 .643v.024h.174L.346.19l.188.476H.7V.643z"/></symbol><symbol id="h"><path d="M.148.124c0-.02.001-.035.003-.046A.083.083 0 0 1 .161.05.05.05 0 0 1 .18.035.178.178 0 0 1 .214.024V0H0v.024c.02.005.034.01.04.017a.047.047 0 0 1 .014.027c.002.012.003.03.003.054v.422c0 .023 0 .04-.002.05a.057.057 0 0 1-.009.023.037.037 0 0 1-.014.014A.152.152 0 0 1 0 .643v.024h.242c.076 0 .133-.015.17-.044C.45.593.468.549.468.49A.227.227 0 0 0 .451.398.17.17 0 0 0 .4.332.198.198 0 0 0 .325.295.371.371 0 0 0 .232.284c-.036 0-.064 0-.084.002V.124m0 .202h.057c.037 0 .067.005.09.014.025.01.043.026.056.048a.18.18 0 0 1 .02.09.188.188 0 0 1-.012.069.11.11 0 0 1-.078.07.23.23 0 0 1-.06.007L.148.622V.326z"/></symbol><symbol id="i"><path d="M.29.078.284.08a.297.297 0 0 0-.08-.062A.178.178 0 0 0 .124 0a.144.144 0 0 0-.065.014.105.105 0 0 0-.044.04A.12.12 0 0 0 0 .116C0 .163.023.2.07.225a.498.498 0 0 0 .212.046v.031c0 .034-.003.06-.01.08a.079.079 0 0 1-.03.043.102.102 0 0 1-.056.014.091.091 0 0 1-.062-.02.123.123 0 0 1-.035-.06H.025v.063a.661.661 0 0 0 .141.054c.02.005.042.007.063.007A.165.165 0 0 0 .307.467.096.096 0 0 0 .351.42.239.239 0 0 0 .366.325v-.17A1.83 1.83 0 0 1 .369.076a.06.06 0 0 1 .007-.02.042.042 0 0 1 .015-.013.153.153 0 0 1 .03-.011V.008H.289l.003.07M.282.23A.344.344 0 0 1 .134.204C.1.187.084.162.084.127.084.11.088.094.096.083A.06.06 0 0 1 .124.061a.125.125 0 0 1 .04-.006.12.12 0 0 1 .103.057c.01.017.015.033.015.05V.23z"/></symbol><use xlink:href="#g" transform="matrix(16 0 0 -16 263.506 350.64)"/><use xlink:href="#h" transform="matrix(16 0 0 -16 276.537 350.64)"/><use xlink:href="#i" transform="matrix(16 0 0 -16 284.961 350.765)"/><path stroke-width=".762" stroke-linejoin="round" fill="none" stroke="#000" d="M90.582 159.813h99.826v26.658H90.582z"/><use xlink:href="#b" transform="matrix(16 0 0 -16 100.24 181.68)"/><use xlink:href="#c" transform="matrix(16 0 0 -16 114.731 175.89)"/><use xlink:href="#f" transform="matrix(16 0 0 -16 131.403 178.32)"/><use xlink:href="#d" transform="matrix(16 0 0 -16 139.895 178.445)"/><use xlink:href="#g" transform="matrix(16 0 0 -16 152.176 178.32)"/><use xlink:href="#h" transform="matrix(16 0 0 -16 165.208 178.32)"/><use xlink:href="#i" transform="matrix(16 0 0 -16 173.631 178.445)"/><path stroke-width=".762" stroke-linejoin="round" fill="none" stroke="#000" d="M375.046 61.959h89.885v26.658h-89.885z"/><symbol id="j"><path d="M.257 0H.05l.006.024a.096.096 0 0 1 .028.008.044.044 0 0 1 .017.015c.004.007.01.017.014.032.005.015.01.037.017.067l.104.478H.175a.112.112 0 0 1-.048-.01.106.106 0 0 1-.036-.032.468.468 0 0 1-.044-.08H0l.037.165h.51L.507.495H.461c0 .031 0 .055-.002.07a.096.096 0 0 1-.01.037.036.036 0 0 1-.016.017.087.087 0 0 1-.036.005H.325L.22.142A.598.598 0 0 1 .21.088.278.278 0 0 1 .209.066.05.05 0 0 1 .214.042.029.029 0 0 1 .229.03.13.13 0 0 1 .262.024L.257 0z"/></symbol><use xlink:href="#j" transform="matrix(16 0 0 -16 384.983 80.64)"/><use xlink:href="#c" transform="matrix(16 0 0 -16 399.896 78.21)"/><symbol id="k"><path d="M.429.646.145 0H.074v.024L.337.58v.007H.122A.109.109 0 0 1 .09.584a.056.056 0 0 1-.02-.01.055.055 0 0 1-.013-.018.326.326 0 0 1-.015-.044H0L.01.67h.419V.646z"/></symbol><use xlink:href="#k" transform="matrix(16 0 0 -16 416.333 80.695)"/><use xlink:href="#d" transform="matrix(16 0 0 -16 425.06 80.765)"/><use xlink:href="#d" transform="matrix(16 0 0 -16 433.935 80.765)"/><symbol id="l"><path d="M.148.365h.015c.012 0 .023.002.033.006.01.004.022.011.035.022A1.132 1.132 0 0 1 .353.53a.2.2 0 0 1 .029.047c.004.01.006.018.006.027 0 .013-.004.022-.012.028a.056.056 0 0 1-.03.012v.024h.213V.643A.106.106 0 0 1 .528.63.156.156 0 0 1 .497.607.885.885 0 0 1 .45.558L.286.374.464.115A.488.488 0 0 1 .508.058.134.134 0 0 1 .54.034.103.103 0 0 1 .57.024V0H.355v.024c.012 0 .02.003.026.007A.018.018 0 0 1 .39.047a.05.05 0 0 1-.006.02.175.175 0 0 1-.018.031l-.114.17a.34.34 0 0 1-.029.04.058.058 0 0 1-.02.014.07.07 0 0 1-.029.005H.148V.122L.15.074A.074.074 0 0 1 .158.05.044.044 0 0 1 .173.036.143.143 0 0 1 .206.024V0H0v.024c.02.005.034.01.04.017a.047.047 0 0 1 .014.027c.002.012.003.03.003.054v.422c0 .023 0 .04-.002.05a.057.057 0 0 1-.009.023.037.037 0 0 1-.014.014A.152.152 0 0 1 0 .643v.024h.206V.643A.14.14 0 0 1 .174.632.047.047 0 0 1 .16.618.063.063 0 0 1 .151.594a.366.366 0 0 1-.003-.05V.365z"/></symbol><use xlink:href="#l" transform="matrix(16 0 0 -16 446.247 80.64)"/></svg>