<?xml version="1.0" encoding="UTF-8" standalone="no"?>
<!DOCTYPE svg PUBLIC "-//W3C//DTD SVG 1.1//EN" "http://www.w3.org/Graphics/SVG/1.1/DTD/svg11.dtd">
<svg xmlns="http://www.w3.org/2000/svg" xmlns:xlink="http://www.w3.org/1999/xlink" version="1.1" width="1224pt" height="648pt" viewBox="0 0 1224 648">
<g enable-background="new">
<clipPath id="cp0">
<path transform="matrix(1,0,0,-1,0,648)" d="M 0 .00001448393 L 1224 .00001448393 L 1224 648 L 0 648 Z "/>
</clipPath>
<g clip-path="url(#cp0)">
<path transform="matrix(1,0,0,-1,0,648)" d="M 0 648 L 1224 648 L 1224 .00001448393 L 0 .00001448393 Z " fill="#ffffff"/>
</g>
<path transform="matrix(1,0,0,-1,0,648)" d="M 0 648 L 1224 648 L 1224 .00001689792 L 0 .00001689792 Z " fill="#ffffff"/>
<path transform="matrix(.00007874016,0,0,.00007874016,0,0)" stroke-width="76200" stroke-linecap="butt" stroke-miterlimit="8" stroke-linejoin="miter" fill="none" stroke="#000000" d="M 0 0 L 6858000 0 L 6858000 6858000 L 0 6858000 Z "/>
<path transform="matrix(1,0,0,-1,0,648)" d="M 68.61795 280.8613 C 68.61795 314.6611 96.01813 342.0613 129.818 342.0613 C 163.6178 342.0613 191.018 314.6611 191.018 280.8613 C 191.018 247.0614 163.6178 219.6613 129.818 219.6613 C 96.01813 219.6613 68.61795 247.0614 68.61795 280.8613 Z " fill="#f9e7b1" fill-rule="evenodd"/>
<path transform="matrix(1,0,0,-1,0,648)" d="M 58.9089 352.541 C 58.9089 386.3409 86.30907 413.741 120.1089 413.741 C 153.9087 413.741 181.3089 386.3409 181.3089 352.541 C 181.3089 318.7412 153.9087 291.341 120.1089 291.341 C 86.30907 291.341 58.9089 318.7412 58.9089 352.541 Z " fill="#f9e7b1" fill-rule="evenodd"/>
<path transform="matrix(1,0,0,-1,0,648)" d="M 56.72701 425.2501 C 56.72701 459.0499 84.12718 486.4501 117.927 486.4501 C 151.7268 486.4501 179.127 459.0499 179.127 425.2501 C 179.127 391.4503 151.7268 364.0501 117.927 364.0501 C 84.12718 364.0501 56.72701 391.4503 56.72701 425.2501 Z " fill="#f9e7b1" fill-rule="evenodd"/>
<path transform="matrix(1,0,0,-1,0,648)" d="M 32.61795 492.3955 C 32.61795 526.1953 60.01813 553.5955 93.81795 553.5955 C 127.6178 553.5955 155.018 526.1953 155.018 492.3955 C 155.018 458.5957 127.6178 431.1955 93.81795 431.1955 C 60.01813 431.1955 32.61795 458.5957 32.61795 492.3955 Z " fill="#f9e7b1" fill-rule="evenodd"/>
<path transform="matrix(1,0,0,-1,0,648)" d="M 57.81795 492.3955 C 57.81795 512.2778 73.9357 528.3955 93.81795 528.3955 C 113.7002 528.3955 129.818 512.2778 129.818 492.3955 C 129.818 472.5133 113.7002 456.3955 93.81795 456.3955 C 73.9357 456.3955 57.81795 472.5133 57.81795 492.3955 Z " fill="#5b9bd5" fill-rule="evenodd"/>
<path transform="matrix(.00007874016,0,0,.00007874016,57.81795,119.60449)" stroke-width="12700" stroke-linecap="butt" stroke-miterlimit="8" stroke-linejoin="miter" fill="none" stroke="#5b9bd5" d="M 0 457200 C 0 204695.4 204695.4 0 457200 0 C 709704.6 0 914400 204695.4 914400 457200 C 914400 709704.6 709704.6 914400 457200 914400 C 204695.4 914400 0 709704.6 0 457200 Z "/>
<path transform="matrix(1,0,0,-1,0,648)" d="M 81.927 425.2501 C 81.927 445.1323 98.04475 461.2501 117.927 461.2501 C 137.8093 461.2501 153.927 445.1323 153.927 425.2501 C 153.927 405.3678 137.8093 389.2501 117.927 389.2501 C 98.04475 389.2501 81.927 405.3678 81.927 425.2501 Z " fill="#5b9bd5" fill-rule="evenodd"/>
<path transform="matrix(.00007874016,0,0,.00007874016,81.927,186.74991)" stroke-width="12700" stroke-linecap="butt" stroke-miterlimit="8" stroke-linejoin="miter" fill="none" stroke="#5b9bd5" d="M 0 457200 C 0 204695.4 204695.4 0 457200 0 C 709704.6 0 914400 204695.4 914400 457200 C 914400 709704.6 709704.6 914400 457200 914400 C 204695.4 914400 0 709704.6 0 457200 Z "/>
<path transform="matrix(1,0,0,-1,0,648)" d="M 84.10889 352.541 C 84.10889 372.4233 100.2266 388.541 120.1089 388.541 C 139.9911 388.541 156.1089 372.4233 156.1089 352.541 C 156.1089 332.6588 139.9911 316.541 120.1089 316.541 C 100.2266 316.541 84.10889 332.6588 84.10889 352.541 Z " fill="#5b9bd5" fill-rule="evenodd"/>
<path transform="matrix(.00007874016,0,0,.00007874016,84.10889,259.459)" stroke-width="12700" stroke-linecap="butt" stroke-miterlimit="8" stroke-linejoin="miter" fill="none" stroke="#5b9bd5" d="M 0 457200 C 0 204695.4 204695.4 0 457200 0 C 709704.6 0 914400 204695.4 914400 457200 C 914400 709704.6 709704.6 914400 457200 914400 C 204695.4 914400 0 709704.6 0 457200 Z "/>
<path transform="matrix(1,0,0,-1,0,648)" d="M 93.81795 280.8613 C 93.81795 300.7435 109.9357 316.8613 129.818 316.8613 C 149.7002 316.8613 165.818 300.7435 165.818 280.8613 C 165.818 260.979 149.7002 244.8613 129.818 244.8613 C 109.9357 244.8613 93.81795 260.979 93.81795 280.8613 Z " fill="#5b9bd5" fill-rule="evenodd"/>
<path transform="matrix(.00007874016,0,0,.00007874016,93.81795,331.1387)" stroke-width="12700" stroke-linecap="butt" stroke-miterlimit="8" stroke-linejoin="miter" fill="none" stroke="#5b9bd5" d="M 0 457200 C 0 204695.4 204695.4 0 457200 0 C 709704.6 0 914400 204695.4 914400 457200 C 914400 709704.6 709704.6 914400 457200 914400 C 204695.4 914400 0 709704.6 0 457200 Z "/>
<path transform="matrix(1,0,0,-1,0,648)" d="M 193.5222 268.221 C 226.609 275.1268 259.0294 253.9028 265.9351 220.816 C 272.8409 187.7291 251.6169 155.3087 218.5301 148.403 C 185.4433 141.4972 153.0229 162.7212 146.1171 195.808 C 139.2114 228.8949 160.4353 261.3153 193.5222 268.221 Z " fill="#f9e7b1" fill-rule="evenodd"/>
<path transform="matrix(1,0,0,-1,0,648)" d="M 261.7063 292.3704 C 294.7931 299.2761 327.2135 278.0522 334.1193 244.9653 C 341.025 211.8785 319.801 179.4581 286.7142 172.5523 C 253.6274 165.6466 221.207 186.8705 214.3012 219.9574 C 207.3955 253.0442 228.6194 285.4646 261.7063 292.3704 Z " fill="#f9e7b1" fill-rule="evenodd"/>
<path transform="matrix(1,0,0,-1,0,648)" d="M 332.4357 309.3617 C 365.5226 316.2675 397.943 295.0435 404.8487 261.9567 C 411.7545 228.8698 390.5305 196.4494 357.4437 189.5437 C 324.3568 182.6379 291.9364 203.8619 285.0307 236.9487 C 278.1249 270.0355 299.3489 302.4559 332.4357 309.3617 Z " fill="#f9e7b1" fill-rule="evenodd"/>
<path transform="matrix(1,0,0,-1,0,648)" d="M 393.239 346.6809 C 426.3258 353.5867 458.7462 332.3627 465.652 299.2759 C 472.5577 266.189 451.3338 233.7686 418.2469 226.8629 C 385.1601 219.9571 352.7397 241.1811 345.834 274.2679 C 338.9282 307.3548 360.1522 339.7752 393.239 346.6809 Z " fill="#f9e7b1" fill-rule="evenodd"/>
<path transform="matrix(1,0,0,-1,0,648)" d="M 398.3877 322.0125 C 417.8506 326.0747 436.9214 313.59 440.9836 294.1272 C 445.0458 274.6643 432.5611 255.5935 413.0983 251.5313 C 393.6354 247.4691 374.5646 259.9538 370.5024 279.4166 C 366.4402 298.8795 378.9249 317.9503 398.3877 322.0125 Z " fill="#5b9bd5" fill-rule="evenodd"/>
<path transform="matrix(.00001608766,.00007707918,-.00007707918,.00001608766,433.6283,318.6322)" stroke-width="12700" stroke-linecap="butt" stroke-miterlimit="8" stroke-linejoin="miter" fill="none" stroke="#5b9bd5" d="M 0 457200 C 0 204695.4 204695.4 0 457200 0 C 709704.6 0 914400 204695.4 914400 457200 C 914400 709704.6 709704.6 914400 457200 914400 C 204695.4 914400 0 709704.6 0 457200 Z "/>
<path transform="matrix(1,0,0,-1,0,648)" d="M 337.5844 284.6933 C 357.0472 288.7555 376.1181 276.2708 380.1803 256.808 C 384.2425 237.3451 371.7578 218.2743 352.2949 214.2121 C 332.8321 210.1499 313.7613 222.6346 309.6991 242.0974 C 305.6369 261.5603 318.1215 280.6311 337.5844 284.6933 Z " fill="#5b9bd5" fill-rule="evenodd"/>
<path transform="matrix(.00001608766,.00007707918,-.00007707918,.00001608766,372.825,355.9514)" stroke-width="12700" stroke-linecap="butt" stroke-miterlimit="8" stroke-linejoin="miter" fill="none" stroke="#5b9bd5" d="M 0 457200 C 0 204695.4 204695.4 0 457200 0 C 709704.6 0 914400 204695.4 914400 457200 C 914400 709704.6 709704.6 914400 457200 914400 C 204695.4 914400 0 709704.6 0 457200 Z "/>
<path transform="matrix(1,0,0,-1,0,648)" d="M 266.8549 267.702 C 286.3178 271.7642 305.3886 259.2795 309.4508 239.8166 C 313.513 220.3538 301.0283 201.283 281.5655 197.2208 C 262.1027 193.1586 243.0318 205.6432 238.9696 225.1061 C 234.9074 244.5689 247.3921 263.6398 266.8549 267.702 Z " fill="#5b9bd5" fill-rule="evenodd"/>
<path transform="matrix(.00001608766,.00007707918,-.00007707918,.00001608766,302.0955,372.9428)" stroke-width="12700" stroke-linecap="butt" stroke-miterlimit="8" stroke-linejoin="miter" fill="none" stroke="#5b9bd5" d="M 0 457200 C 0 204695.4 204695.4 0 457200 0 C 709704.6 0 914400 204695.4 914400 457200 C 914400 709704.6 709704.6 914400 457200 914400 C 204695.4 914400 0 709704.6 0 457200 Z "/>
<path transform="matrix(1,0,0,-1,0,648)" d="M 198.6709 243.5526 C 218.1337 247.6148 237.2045 235.1301 241.2667 215.6673 C 245.3289 196.2044 232.8443 177.1336 213.3814 173.0714 C 193.9186 169.0092 174.8477 181.4939 170.7855 200.9567 C 166.7233 220.4195 179.208 239.4904 198.6709 243.5526 Z " fill="#5b9bd5" fill-rule="evenodd"/>
<path transform="matrix(.00001608766,.00007707918,-.00007707918,.00001608766,233.9115,397.0921)" stroke-width="12700" stroke-linecap="butt" stroke-miterlimit="8" stroke-linejoin="miter" fill="none" stroke="#5b9bd5" d="M 0 457200 C 0 204695.4 204695.4 0 457200 0 C 709704.6 0 914400 204695.4 914400 457200 C 914400 709704.6 709704.6 914400 457200 914400 C 204695.4 914400 0 709704.6 0 457200 Z "/>
<path transform="matrix(1,0,0,-1,0,648)" d="M 247.5521 434.1421 C 275.3793 453.3274 313.4905 446.3217 332.6757 418.4944 C 351.861 390.6672 344.8553 352.5561 317.0281 333.3708 C 289.2008 314.1856 251.0897 321.1913 231.9044 349.0185 C 212.7192 376.8457 219.7249 414.9568 247.5521 434.1421 Z " fill="#f9e7b1" fill-rule="evenodd"/>
<path transform="matrix(1,0,0,-1,0,648)" d="M 301.0547 482.8219 C 328.8819 502.0072 366.993 495.0015 386.1783 467.1743 C 405.3636 439.3471 398.3579 401.2359 370.5306 382.0507 C 342.7034 362.8654 304.5923 369.8711 285.407 397.6983 C 266.2218 425.5255 273.2275 463.6367 301.0547 482.8219 Z " fill="#f9e7b1" fill-rule="evenodd"/>
<path transform="matrix(1,0,0,-1,0,648)" d="M 359.6772 525.8889 C 387.5044 545.0742 425.6156 538.0685 444.8008 510.2413 C 463.9861 482.4141 456.9804 444.3029 429.1532 425.1177 C 401.326 405.9324 363.2148 412.9381 344.0295 440.7653 C 324.8443 468.5925 331.85 506.7037 359.6772 525.8889 Z " fill="#f9e7b1" fill-rule="evenodd"/>
<path transform="matrix(1,0,0,-1,0,648)" d="M 401.273 583.8505 C 429.1002 603.0358 467.2114 596.0301 486.3966 568.2029 C 505.5819 540.3756 498.5762 502.2645 470.749 483.0792 C 442.9218 463.894 404.8106 470.8997 385.6254 498.7269 C 366.4401 526.5541 373.4458 564.6653 401.273 583.8505 Z " fill="#f9e7b1" fill-rule="evenodd"/>
<path transform="matrix(1,0,0,-1,0,648)" d="M 415.5769 563.1035 C 431.9459 574.3889 454.3642 570.2679 465.6496 553.899 C 476.9351 537.53 472.8141 515.1117 456.4451 503.8263 C 440.0762 492.5408 417.6578 496.6618 406.3724 513.0308 C 395.087 529.3997 399.208 551.8181 415.5769 563.1035 Z " fill="#5b9bd5" fill-rule="evenodd"/>
<path transform="matrix(.00004469402,.00006482636,-.00006482636,.00004469402,445.2155,64.4624)" stroke-width="12700" stroke-linecap="butt" stroke-miterlimit="8" stroke-linejoin="miter" fill="none" stroke="#5b9bd5" d="M 0 457200 C 0 204695.4 204695.4 0 457200 0 C 709704.6 0 914400 204695.4 914400 457200 C 914400 709704.6 709704.6 914400 457200 914400 C 204695.4 914400 0 709704.6 0 457200 Z "/>
<path transform="matrix(1,0,0,-1,0,648)" d="M 373.9811 505.1419 C 390.35 516.4274 412.7684 512.3064 424.0538 495.9374 C 435.3392 479.5685 431.2183 457.1501 414.8493 445.8647 C 398.4803 434.5793 376.062 438.7003 364.7766 455.0692 C 353.4911 471.4382 357.6121 493.8565 373.9811 505.1419 Z " fill="#5b9bd5" fill-rule="evenodd"/>
<path transform="matrix(.00004469402,.00006482636,-.00006482636,.00004469402,403.6197,122.42401)" stroke-width="12700" stroke-linecap="butt" stroke-miterlimit="8" stroke-linejoin="miter" fill="none" stroke="#5b9bd5" d="M 0 457200 C 0 204695.4 204695.4 0 457200 0 C 709704.6 0 914400 204695.4 914400 457200 C 914400 709704.6 709704.6 914400 457200 914400 C 204695.4 914400 0 709704.6 0 457200 Z "/>
<path transform="matrix(1,0,0,-1,0,648)" d="M 315.3586 462.0749 C 331.7275 473.3604 354.1458 469.2394 365.4313 452.8704 C 376.7167 436.5015 372.5957 414.0831 356.2268 402.7977 C 339.8578 391.5122 317.4395 395.6332 306.1541 412.0022 C 294.8686 428.3711 298.9896 450.7895 315.3586 462.0749 Z " fill="#5b9bd5" fill-rule="evenodd"/>
<path transform="matrix(.00004469402,.00006482636,-.00006482636,.00004469402,344.9972,165.491)" stroke-width="12700" stroke-linecap="butt" stroke-miterlimit="8" stroke-linejoin="miter" fill="none" stroke="#5b9bd5" d="M 0 457200 C 0 204695.4 204695.4 0 457200 0 C 709704.6 0 914400 204695.4 914400 457200 C 914400 709704.6 709704.6 914400 457200 914400 C 204695.4 914400 0 709704.6 0 457200 Z "/>
<path transform="matrix(1,0,0,-1,0,648)" d="M 261.856 413.3951 C 278.2249 424.6805 300.6432 420.5595 311.9287 404.1906 C 323.2141 387.8216 319.0931 365.4033 302.7242 354.1179 C 286.3552 342.8324 263.9369 346.9534 252.6515 363.3224 C 241.366 379.6913 245.487 402.1096 261.856 413.3951 Z " fill="#5b9bd5" fill-rule="evenodd"/>
<path transform="matrix(.00004469402,.00006482636,-.00006482636,.00004469402,291.4946,214.1708)" stroke-width="12700" stroke-linecap="butt" stroke-miterlimit="8" stroke-linejoin="miter" fill="none" stroke="#5b9bd5" d="M 0 457200 C 0 204695.4 204695.4 0 457200 0 C 709704.6 0 914400 204695.4 914400 457200 C 914400 709704.6 709704.6 914400 457200 914400 C 204695.4 914400 0 709704.6 0 457200 Z "/>
<path transform="matrix(1,0,0,-1,0,648)" d="M 57.81795 532.3706 C 57.81795 538.3352 62.65328 543.1706 68.61795 543.1706 C 74.58263 543.1706 79.41795 538.3352 79.41795 532.3706 C 79.41795 526.4059 74.58263 521.5706 68.61795 521.5706 C 62.65328 521.5706 57.81795 526.4059 57.81795 532.3706 Z " fill="#ff0000" fill-rule="evenodd"/>
<path transform="matrix(.00007874016,0,0,.00007874016,57.81795,104.82941)" stroke-width="12700" stroke-linecap="butt" stroke-miterlimit="8" stroke-linejoin="miter" fill="none" stroke="#ff0000" d="M 0 137160 C 0 61408.62 61408.62 0 137160 0 C 212911.4 0 274320 61408.62 274320 137160 C 274320 212911.4 212911.4 274320 137160 274320 C 61408.62 274320 0 212911.4 0 137160 Z "/>
<path transform="matrix(1,0,0,-1,0,648)" d="M 132.746 235.6903 C 132.746 241.655 137.5813 246.4903 143.546 246.4903 C 149.5107 246.4903 154.346 241.655 154.346 235.6903 C 154.346 229.7256 149.5107 224.8903 143.546 224.8903 C 137.5813 224.8903 132.746 229.7256 132.746 235.6903 Z " fill="#ff0000" fill-rule="evenodd"/>
<path transform="matrix(.00007874016,0,0,.00007874016,132.746,401.5097)" stroke-width="12700" stroke-linecap="butt" stroke-miterlimit="8" stroke-linejoin="miter" fill="none" stroke="#ff0000" d="M 0 137160 C 0 61408.62 61408.62 0 137160 0 C 212911.4 0 274320 61408.62 274320 137160 C 274320 212911.4 212911.4 274320 137160 274320 C 61408.62 274320 0 212911.4 0 137160 Z "/>
<path transform="matrix(1,0,0,-1,0,648)" d="M 149.805 224.2195 C 151.234 230.0105 157.0869 233.5466 162.8779 232.1176 C 168.6689 230.6887 172.205 224.8357 170.776 219.0448 C 169.3471 213.2538 163.4942 209.7177 157.7032 211.1466 C 151.9122 212.5756 148.3761 218.4285 149.805 224.2195 Z " fill="#ff0000" fill-rule="evenodd"/>
<path transform="matrix(.00007644717,.00001886381,-.00001886381,.00007644717,152.3924,413.29499)" stroke-width="12700" stroke-linecap="butt" stroke-miterlimit="8" stroke-linejoin="miter" fill="none" stroke="#ff0000" d="M 0 137160 C 0 61408.62 61408.62 0 137160 0 C 212911.4 0 274320 61408.62 274320 137160 C 274320 212911.4 212911.4 274320 137160 274320 C 61408.62 274320 0 212911.4 0 137160 Z "/>
<path transform="matrix(1,0,0,-1,0,648)" d="M 418.3445 329.3114 C 419.7735 335.1024 425.6264 338.6385 431.4174 337.2096 C 437.2083 335.7806 440.7445 329.9277 439.3155 324.1367 C 437.8865 318.3457 432.0336 314.8096 426.2426 316.2386 C 420.4517 317.6676 416.9155 323.5205 418.3445 329.3114 Z " fill="#ff0000" fill-rule="evenodd"/>
<path transform="matrix(.00007644717,.00001886381,-.00001886381,.00007644717,420.9319,308.2031)" stroke-width="12700" stroke-linecap="butt" stroke-miterlimit="8" stroke-linejoin="miter" fill="none" stroke="#ff0000" d="M 0 137160 C 0 61408.62 61408.62 0 137160 0 C 212911.4 0 274320 61408.62 274320 137160 C 274320 212911.4 212911.4 274320 137160 274320 C 61408.62 274320 0 212911.4 0 137160 Z "/>
<path transform="matrix(1,0,0,-1,0,648)" d="M 227.0461 369.3412 C 227.0461 375.3059 231.8814 380.1412 237.8461 380.1412 C 243.8107 380.1412 248.6461 375.3059 248.6461 369.3412 C 248.6461 363.3765 243.8107 358.5412 237.8461 358.5412 C 231.8814 358.5412 227.0461 363.3765 227.0461 369.3412 Z " fill="#ff0000" fill-rule="evenodd"/>
<path transform="matrix(.00007874016,0,0,.00007874016,227.0461,267.8588)" stroke-width="12700" stroke-linecap="butt" stroke-miterlimit="8" stroke-linejoin="miter" fill="none" stroke="#ff0000" d="M 0 137160 C 0 61408.62 61408.62 0 137160 0 C 212911.4 0 274320 61408.62 274320 137160 C 274320 212911.4 212911.4 274320 137160 274320 C 61408.62 274320 0 212911.4 0 137160 Z "/>
<path transform="matrix(1,0,0,-1,0,648)" d="M 444.4879 577.801 C 444.4879 583.7657 449.3233 588.601 455.2879 588.601 C 461.2526 588.601 466.0879 583.7657 466.0879 577.801 C 466.0879 571.8364 461.2526 567.001 455.2879 567.001 C 449.3233 567.001 444.4879 571.8364 444.4879 577.801 Z " fill="#ff0000" fill-rule="evenodd"/>
<path transform="matrix(.00007874016,0,0,.00007874016,444.4879,59.398988)" stroke-width="12700" stroke-linecap="butt" stroke-miterlimit="8" stroke-linejoin="miter" fill="none" stroke="#ff0000" d="M 0 137160 C 0 61408.62 61408.62 0 137160 0 C 212911.4 0 274320 61408.62 274320 137160 C 274320 212911.4 212911.4 274320 137160 274320 C 61408.62 274320 0 212911.4 0 137160 Z "/>
<path transform="matrix(.00007874016,0,0,.00007874016,683.2502,0)" stroke-width="76200" stroke-linecap="butt" stroke-miterlimit="8" stroke-linejoin="miter" fill="none" stroke="#000000" d="M 0 0 L 6858000 0 L 6858000 6858000 L 0 6858000 Z "/>
<path transform="matrix(1,0,0,-1,0,648)" d="M 724.1831 317.2856 C 724.1831 353.0737 753.195 382.0856 788.983 382.0856 C 824.7711 382.0856 853.783 353.0737 853.783 317.2856 C 853.783 281.4976 824.7711 252.4856 788.983 252.4856 C 753.195 252.4856 724.1831 281.4976 724.1831 317.2856 Z " fill="#f9e7b1" fill-rule="evenodd"/>
<path transform="matrix(1,0,0,-1,0,648)" d="M 724.0304 548.8818 C 724.0304 584.6699 753.0423 613.6818 788.8304 613.6818 C 824.6184 613.6818 853.6303 584.6699 853.6303 548.8818 C 853.6303 513.0938 824.6184 484.0818 788.8304 484.0818 C 753.0423 484.0818 724.0304 513.0938 724.0304 548.8818 Z " fill="#f9e7b1" fill-rule="evenodd"/>
<path transform="matrix(1,0,0,-1,0,648)" d="M 736.2164 397.1082 C 736.2164 430.908 763.6166 458.3082 797.4164 458.3082 C 831.2163 458.3082 858.6164 430.908 858.6164 397.1082 C 858.6164 363.3084 831.2163 335.9082 797.4164 335.9082 C 763.6166 335.9082 736.2164 363.3084 736.2164 397.1082 Z " fill="#f9e7b1" fill-rule="evenodd"/>
<path transform="matrix(1,0,0,-1,0,648)" d="M 734.0345 469.8172 C 734.0345 503.6171 761.4347 531.0172 795.2345 531.0172 C 829.0344 531.0172 856.4345 503.6171 856.4345 469.8172 C 856.4345 436.0174 829.0344 408.6172 795.2345 408.6172 C 761.4347 408.6172 734.0345 436.0174 734.0345 469.8172 Z " fill="#f9e7b1" fill-rule="evenodd"/>
<path transform="matrix(1,0,0,-1,0,648)" d="M 759.2345 469.8172 C 759.2345 489.6995 775.3523 505.8172 795.2345 505.8172 C 815.1168 505.8172 831.2345 489.6995 831.2345 469.8172 C 831.2345 449.935 815.1168 433.8172 795.2345 433.8172 C 775.3523 433.8172 759.2345 449.935 759.2345 469.8172 Z " fill="#5b9bd5" fill-rule="evenodd"/>
<path transform="matrix(.00007874016,0,0,.00007874016,759.2345,142.1828)" stroke-width="12700" stroke-linecap="butt" stroke-miterlimit="8" stroke-linejoin="miter" fill="none" stroke="#5b9bd5" d="M 0 457200 C 0 204695.4 204695.4 0 457200 0 C 709704.6 0 914400 204695.4 914400 457200 C 914400 709704.6 709704.6 914400 457200 914400 C 204695.4 914400 0 709704.6 0 457200 Z "/>
<path transform="matrix(1,0,0,-1,0,648)" d="M 761.4164 397.1082 C 761.4164 416.9904 777.5342 433.1082 797.4164 433.1082 C 817.2987 433.1082 833.4164 416.9904 833.4164 397.1082 C 833.4164 377.2259 817.2987 361.1082 797.4164 361.1082 C 777.5342 361.1082 761.4164 377.2259 761.4164 397.1082 Z " fill="#5b9bd5" fill-rule="evenodd"/>
<path transform="matrix(.00007874016,0,0,.00007874016,761.4164,214.89182)" stroke-width="12700" stroke-linecap="butt" stroke-miterlimit="8" stroke-linejoin="miter" fill="none" stroke="#5b9bd5" d="M 0 457200 C 0 204695.4 204695.4 0 457200 0 C 709704.6 0 914400 204695.4 914400 457200 C 914400 709704.6 709704.6 914400 457200 914400 C 204695.4 914400 0 709704.6 0 457200 Z "/>
<path transform="matrix(1,0,0,-1,0,648)" d="M 759.2345 600.5744 C 759.2345 606.5391 764.0699 611.3744 770.0345 611.3744 C 775.9992 611.3744 780.8345 606.5391 780.8345 600.5744 C 780.8345 594.6097 775.9992 589.7744 770.0345 589.7744 C 764.0699 589.7744 759.2345 594.6097 759.2345 600.5744 Z " fill="#ff0000" fill-rule="evenodd"/>
<path transform="matrix(.00007874016,0,0,.00007874016,759.2345,36.62561)" stroke-width="12700" stroke-linecap="butt" stroke-miterlimit="8" stroke-linejoin="miter" fill="none" stroke="#ff0000" d="M 0 137160 C 0 61408.62 61408.62 0 137160 0 C 212911.4 0 274320 61408.62 274320 137160 C 274320 212911.4 212911.4 274320 137160 274320 C 61408.62 274320 0 212911.4 0 137160 Z "/>
<path transform="matrix(1,0,0,-1,0,648)" d="M 745.6304 548.8818 C 745.6304 572.7405 764.9717 592.0818 788.8304 592.0818 C 812.6891 592.0818 832.0304 572.7405 832.0304 548.8818 C 832.0304 525.0231 812.6891 505.6818 788.8304 505.6818 C 764.9717 505.6818 745.6304 525.0231 745.6304 548.8818 Z " fill="#70ad47" fill-rule="evenodd"/>
<path transform="matrix(.00007874016,0,0,.00007874016,745.6304,55.918214)" stroke-width="12700" stroke-linecap="butt" stroke-miterlimit="8" stroke-linejoin="miter" fill="none" stroke="#5b9bd5" d="M 0 548640 C 0 245634.5 245634.5 0 548640 0 C 851645.5 0 1097280 245634.5 1097280 548640 C 1097280 851645.5 851645.5 1097280 548640 1097280 C 245634.5 1097280 0 851645.5 0 548640 Z "/>
<path transform="matrix(1,0,0,-1,0,648)" d="M 745.783 317.2856 C 745.783 341.1443 765.1243 360.4856 788.9831 360.4856 C 812.8417 360.4856 832.1831 341.1443 832.1831 317.2856 C 832.1831 293.4269 812.8417 274.0856 788.9831 274.0856 C 765.1243 274.0856 745.783 293.4269 745.783 317.2856 Z " fill="#70ad47" fill-rule="evenodd"/>
<path transform="matrix(.00007874016,0,0,.00007874016,745.783,287.5144)" stroke-width="12700" stroke-linecap="butt" stroke-miterlimit="8" stroke-linejoin="miter" fill="none" stroke="#5b9bd5" d="M 0 548640 C 0 245634.5 245634.5 0 548640 0 C 851645.5 0 1097280 245634.5 1097280 548640 C 1097280 851645.5 851645.5 1097280 548640 1097280 C 245634.5 1097280 0 851645.5 0 548640 Z "/>
<path transform="matrix(1,0,0,-1,0,648)" d="M 771.1656 262.8961 C 771.1656 268.8607 776.0009 273.6961 781.9656 273.6961 C 787.9302 273.6961 792.7656 268.8607 792.7656 262.8961 C 792.7656 256.9314 787.9302 252.0961 781.9656 252.0961 C 776.0009 252.0961 771.1656 256.9314 771.1656 262.8961 Z " fill="#ff0000" fill-rule="evenodd"/>
<path transform="matrix(.00007874016,0,0,.00007874016,771.1656,374.3039)" stroke-width="12700" stroke-linecap="butt" stroke-miterlimit="8" stroke-linejoin="miter" fill="none" stroke="#ff0000" d="M 0 137160 C 0 61408.62 61408.62 0 137160 0 C 212911.4 0 274320 61408.62 274320 137160 C 274320 212911.4 212911.4 274320 137160 274320 C 61408.62 274320 0 212911.4 0 137160 Z "/>
<path transform="matrix(1,0,0,-1,0,648)" d="M 897.2105 260.6453 C 930.1363 274.6695 968.1967 259.3468 982.221 226.421 C 996.2452 193.4953 980.9224 155.4348 947.9966 141.4106 C 915.0709 127.3864 877.0104 142.7091 862.9862 175.6349 C 848.962 208.5607 864.2847 246.6211 897.2105 260.6453 Z " fill="#f9e7b1" fill-rule="evenodd"/>
<path transform="matrix(1,0,0,-1,0,648)" d="M 1110.224 351.541 C 1143.15 365.5652 1181.211 350.2425 1195.235 317.3167 C 1209.259 284.3909 1193.936 246.3304 1161.01 232.3062 C 1128.085 218.282 1090.024 233.6048 1076 266.5306 C 1061.976 299.4563 1077.299 337.5168 1110.224 351.541 Z " fill="#f9e7b1" fill-rule="evenodd"/>
<path transform="matrix(1,0,0,-1,0,648)" d="M 975.3646 280.8543 C 1006.461 294.0994 1042.407 279.6279 1055.652 248.5313 C 1068.897 217.4348 1054.426 181.4888 1023.329 168.2437 C 992.2327 154.9986 956.2867 169.4701 943.0416 200.5666 C 929.7965 231.6632 944.268 267.6092 975.3646 280.8543 Z " fill="#f9e7b1" fill-rule="evenodd"/>
<path transform="matrix(1,0,0,-1,0,648)" d="M 1041.403 311.3541 C 1072.5 324.5991 1108.446 310.1277 1121.691 279.0311 C 1134.936 247.9345 1120.465 211.9885 1089.368 198.7435 C 1058.272 185.4984 1022.326 199.9699 1009.08 231.0664 C 995.8354 262.163 1010.307 298.109 1041.403 311.3541 Z " fill="#f9e7b1" fill-rule="evenodd"/>
<path transform="matrix(1,0,0,-1,0,648)" d="M 1051.279 288.1695 C 1069.571 295.9608 1090.715 287.4481 1098.507 269.156 C 1106.298 250.8639 1097.785 229.7192 1079.493 221.928 C 1061.201 214.1368 1040.056 222.6494 1032.265 240.9415 C 1024.474 259.2336 1032.986 280.3783 1051.279 288.1695 Z " fill="#5b9bd5" fill-rule="evenodd"/>
<path transform="matrix(.00003085577,.00007244262,-.00007244262,.00003085577,1084.399,345.7232)" stroke-width="12700" stroke-linecap="butt" stroke-miterlimit="8" stroke-linejoin="miter" fill="none" stroke="#5b9bd5" d="M 0 457200 C 0 204695.4 204695.4 0 457200 0 C 709704.6 0 914400 204695.4 914400 457200 C 914400 709704.6 709704.6 914400 457200 914400 C 204695.4 914400 0 709704.6 0 457200 Z "/>
<path transform="matrix(1,0,0,-1,0,648)" d="M 985.2396 257.6698 C 1003.532 265.461 1024.676 256.9483 1032.468 238.6562 C 1040.259 220.3642 1031.746 199.2194 1013.454 191.4282 C 995.1621 183.637 974.0174 192.1496 966.2261 210.4417 C 958.4349 228.7338 966.9475 249.8785 985.2396 257.6698 Z " fill="#5b9bd5" fill-rule="evenodd"/>
<path transform="matrix(.00003085577,.00007244262,-.00007244262,.00003085577,1018.36,376.223)" stroke-width="12700" stroke-linecap="butt" stroke-miterlimit="8" stroke-linejoin="miter" fill="none" stroke="#5b9bd5" d="M 0 457200 C 0 204695.4 204695.4 0 457200 0 C 709704.6 0 914400 204695.4 914400 457200 C 914400 709704.6 709704.6 914400 457200 914400 C 204695.4 914400 0 709704.6 0 457200 Z "/>
<path transform="matrix(1,0,0,-1,0,648)" d="M 1171.578 339.4091 C 1177.066 341.7464 1183.409 339.1926 1185.746 333.705 C 1188.084 328.2174 1185.53 321.874 1180.042 319.5366 C 1174.555 317.1992 1168.211 319.753 1165.874 325.2407 C 1163.536 330.7283 1166.09 337.0717 1171.578 339.4091 Z " fill="#ff0000" fill-rule="evenodd"/>
<path transform="matrix(.00003085577,.00007244262,-.00007244262,.00003085577,1181.514,304.3588)" stroke-width="12700" stroke-linecap="butt" stroke-miterlimit="8" stroke-linejoin="miter" fill="none" stroke="#ff0000" d="M 0 137160 C 0 61408.62 61408.62 0 137160 0 C 212911.4 0 274320 61408.62 274320 137160 C 274320 212911.4 212911.4 274320 137160 274320 C 61408.62 274320 0 212911.4 0 137160 Z "/>
<path transform="matrix(1,0,0,-1,0,648)" d="M 1118.689 331.6685 C 1140.639 341.018 1166.013 330.8028 1175.362 308.8523 C 1184.712 286.9018 1174.496 261.5282 1152.546 252.1787 C 1130.595 242.8292 1105.222 253.0444 1095.872 274.9949 C 1086.523 296.9454 1096.738 322.3191 1118.689 331.6685 Z " fill="#70ad47" fill-rule="evenodd"/>
<path transform="matrix(.00003085577,.00007244262,-.00007244262,.00003085577,1158.433,299.4027)" stroke-width="12700" stroke-linecap="butt" stroke-miterlimit="8" stroke-linejoin="miter" fill="none" stroke="#5b9bd5" d="M 0 548640 C 0 245634.5 245634.5 0 548640 0 C 851645.5 0 1097280 245634.5 1097280 548640 C 1097280 851645.5 851645.5 1097280 548640 1097280 C 245634.5 1097280 0 851645.5 0 548640 Z "/>
<path transform="matrix(1,0,0,-1,0,648)" d="M 905.6749 240.7729 C 927.6254 250.1223 952.999 239.9072 962.3485 217.9567 C 971.698 196.0062 961.4828 170.6325 939.5323 161.283 C 917.5818 151.9336 892.2081 162.1487 882.8587 184.0992 C 873.5092 206.0498 883.7244 231.4234 905.6749 240.7729 Z " fill="#70ad47" fill-rule="evenodd"/>
<path transform="matrix(.00003085577,.00007244262,-.00007244262,.00003085577,945.4198,390.2984)" stroke-width="12700" stroke-linecap="butt" stroke-miterlimit="8" stroke-linejoin="miter" fill="none" stroke="#5b9bd5" d="M 0 548640 C 0 245634.5 245634.5 0 548640 0 C 851645.5 0 1097280 245634.5 1097280 548640 C 1097280 851645.5 851645.5 1097280 548640 1097280 C 245634.5 1097280 0 851645.5 0 548640 Z "/>
<path transform="matrix(1,0,0,-1,0,648)" d="M 865.582 196.1069 C 871.0696 198.4442 877.413 195.8904 879.7504 190.4028 C 882.0878 184.9152 879.534 178.5718 874.0463 176.2344 C 868.5587 173.897 862.2153 176.4508 859.8779 181.9385 C 857.5406 187.4261 860.0944 193.7695 865.582 196.1069 Z " fill="#ff0000" fill-rule="evenodd"/>
<path transform="matrix(.00003085577,.00007244262,-.00007244262,.00003085577,875.5182,447.661)" stroke-width="12700" stroke-linecap="butt" stroke-miterlimit="8" stroke-linejoin="miter" fill="none" stroke="#ff0000" d="M 0 137160 C 0 61408.62 61408.62 0 137160 0 C 212911.4 0 274320 61408.62 274320 137160 C 274320 212911.4 212911.4 274320 137160 274320 C 61408.62 274320 0 212911.4 0 137160 Z "/>
<path transform="matrix(1,0,0,-1,0,648)" d="M 910.4748 451.412 C 938.9541 473.0849 979.6105 467.5672 1001.283 439.0879 C 1022.956 410.6086 1017.439 369.9523 988.9593 348.2794 C 960.48 326.6065 919.8237 332.1241 898.1508 360.6034 C 876.4779 389.0827 881.9955 429.7391 910.4748 451.412 Z " fill="#f9e7b1" fill-rule="evenodd"/>
<path transform="matrix(1,0,0,-1,0,648)" d="M 1094.681 591.7859 C 1123.16 613.4588 1163.817 607.9412 1185.49 579.4619 C 1207.163 550.9826 1201.645 510.3262 1173.166 488.6533 C 1144.686 466.9804 1104.03 472.4981 1082.357 500.9774 C 1060.684 529.4567 1066.202 570.113 1094.681 591.7859 Z " fill="#f9e7b1" fill-rule="evenodd"/>
<path transform="matrix(1,0,0,-1,0,648)" d="M 981.2831 490.1759 C 1008.18 510.6447 1046.578 505.4336 1067.047 478.5365 C 1087.516 451.6394 1082.304 413.2417 1055.407 392.7728 C 1028.51 372.304 990.1125 377.5151 969.6437 404.4122 C 949.1748 431.3093 954.386 469.707 981.2831 490.1759 Z " fill="#f9e7b1" fill-rule="evenodd"/>
<path transform="matrix(1,0,0,-1,0,648)" d="M 1037.822 535.9441 C 1064.719 556.413 1103.117 551.2018 1123.585 524.3047 C 1144.054 497.4076 1138.843 459.0099 1111.946 438.5411 C 1085.049 418.0722 1046.651 423.2834 1026.182 450.1805 C 1005.714 477.0776 1010.925 515.4753 1037.822 535.9441 Z " fill="#f9e7b1" fill-rule="evenodd"/>
<path transform="matrix(1,0,0,-1,0,648)" d="M 1053.083 515.8906 C 1068.905 527.9311 1091.491 524.8657 1103.532 509.0439 C 1115.572 493.222 1112.507 470.6351 1096.685 458.5946 C 1080.863 446.5542 1058.277 449.6195 1046.236 465.4414 C 1034.196 481.2632 1037.261 503.8501 1053.083 515.8906 Z " fill="#5b9bd5" fill-rule="evenodd"/>
<path transform="matrix(.00004768428,.00006265957,-.00006265957,.00004768428,1081.731,110.30823)" stroke-width="12700" stroke-linecap="butt" stroke-miterlimit="8" stroke-linejoin="miter" fill="none" stroke="#5b9bd5" d="M 0 457200 C 0 204695.4 204695.4 0 457200 0 C 709704.6 0 914400 204695.4 914400 457200 C 914400 709704.6 709704.6 914400 457200 914400 C 204695.4 914400 0 709704.6 0 457200 Z "/>
<path transform="matrix(1,0,0,-1,0,648)" d="M 996.5439 470.1223 C 1012.366 482.1628 1034.953 479.0974 1046.993 463.2756 C 1059.034 447.4538 1055.968 424.8669 1040.146 412.8264 C 1024.325 400.7859 1001.738 403.8513 989.6972 419.6731 C 977.6567 435.4949 980.7221 458.0818 996.5439 470.1223 Z " fill="#5b9bd5" fill-rule="evenodd"/>
<path transform="matrix(.00004768428,.00006265957,-.00006265957,.00004768428,1025.192,156.0765)" stroke-width="12700" stroke-linecap="butt" stroke-miterlimit="8" stroke-linejoin="miter" fill="none" stroke="#5b9bd5" d="M 0 457200 C 0 204695.4 204695.4 0 457200 0 C 709704.6 0 914400 204695.4 914400 457200 C 914400 709704.6 709704.6 914400 457200 914400 C 204695.4 914400 0 709704.6 0 457200 Z "/>
<path transform="matrix(1,0,0,-1,0,648)" d="M 1157.136 595.0758 C 1161.883 598.688 1168.659 597.7683 1172.271 593.0218 C 1175.883 588.2752 1174.964 581.4992 1170.217 577.887 C 1165.47 574.2749 1158.694 575.1945 1155.082 579.941 C 1151.47 584.6876 1152.39 591.4637 1157.136 595.0758 Z " fill="#ff0000" fill-rule="evenodd"/>
<path transform="matrix(.00004768428,.00006265957,-.00006265957,.00004768428,1165.731,46.38379)" stroke-width="12700" stroke-linecap="butt" stroke-miterlimit="8" stroke-linejoin="miter" fill="none" stroke="#ff0000" d="M 0 137160 C 0 61408.62 61408.62 0 137160 0 C 212911.4 0 274320 61408.62 274320 137160 C 274320 212911.4 212911.4 274320 137160 274320 C 61408.62 274320 0 212911.4 0 137160 Z "/>
<path transform="matrix(1,0,0,-1,0,648)" d="M 1107.762 574.5972 C 1126.748 589.0458 1153.852 585.3673 1168.301 566.3811 C 1182.75 547.3949 1179.071 520.2907 1160.085 505.8421 C 1141.099 491.3935 1113.994 495.0719 1099.546 514.0581 C 1085.097 533.0443 1088.776 560.1486 1107.762 574.5972 Z " fill="#70ad47" fill-rule="evenodd"/>
<path transform="matrix(.00004768428,.00006265957,-.00006265957,.00004768428,1142.139,47.241273)" stroke-width="12700" stroke-linecap="butt" stroke-miterlimit="8" stroke-linejoin="miter" fill="none" stroke="#5b9bd5" d="M 0 548640 C 0 245634.5 245634.5 0 548640 0 C 851645.5 0 1097280 245634.5 1097280 548640 C 1097280 851645.5 851645.5 1097280 548640 1097280 C 245634.5 1097280 0 851645.5 0 548640 Z "/>
<path transform="matrix(1,0,0,-1,0,648)" d="M 923.5555 434.2232 C 942.5417 448.6718 969.646 444.9934 984.0946 426.0072 C 998.5432 407.021 994.8647 379.9167 975.8785 365.4681 C 956.8923 351.0195 929.7881 354.698 915.3395 373.6842 C 900.8909 392.6704 904.5693 419.7746 923.5555 434.2232 Z " fill="#70ad47" fill-rule="evenodd"/>
<path transform="matrix(.00004768428,.00006265957,-.00006265957,.00004768428,957.9331,187.6153)" stroke-width="12700" stroke-linecap="butt" stroke-miterlimit="8" stroke-linejoin="miter" fill="none" stroke="#5b9bd5" d="M 0 548640 C 0 245634.5 245634.5 0 548640 0 C 851645.5 0 1097280 245634.5 1097280 548640 C 1097280 851645.5 851645.5 1097280 548640 1097280 C 245634.5 1097280 0 851645.5 0 548640 Z "/>
<path transform="matrix(1,0,0,-1,0,648)" d="M 895.645 381.0866 C 900.3916 384.6987 907.1676 383.7791 910.7798 379.0326 C 914.3919 374.286 913.4723 367.51 908.7258 363.8978 C 903.9792 360.2857 897.2032 361.2053 893.591 365.9518 C 889.9789 370.6984 890.8985 377.4744 895.645 381.0866 Z " fill="#ff0000" fill-rule="evenodd"/>
<path transform="matrix(.00004768428,.00006265957,-.00006265957,.00004768428,904.2394,260.373)" stroke-width="12700" stroke-linecap="butt" stroke-miterlimit="8" stroke-linejoin="miter" fill="none" stroke="#ff0000" d="M 0 137160 C 0 61408.62 61408.62 0 137160 0 C 212911.4 0 274320 61408.62 274320 137160 C 274320 212911.4 212911.4 274320 137160 274320 C 61408.62 274320 0 212911.4 0 137160 Z "/>
<text xml:space="preserve" transform="matrix(.24 0 -0 .24 150.113 1256.1599)" font-size="166.6667" font-family="TimesNewRomanPSMT"><tspan y="-2700" x="0 92.71669 213.10007 305.81678">SAFT</tspan></text>
<text xml:space="preserve" transform="matrix(.24 0 -0 .24 244.193 1256.1599)" font-size="166.6667" font-family="TimesNewRomanPSMT"><tspan y="-2700" x="0">-</tspan></text>
<text xml:space="preserve" transform="matrix(.24 0 -0 .24 257.568 1256.1599)" font-size="166.6667" font-family="TimesNewRomanPSMT"><tspan y="-2700" x="0 120.316699 231.25006 272.91676 421.3501 467.7001">VR Mie</tspan></text>
<text xml:space="preserve" transform="matrix(.24 0 -0 .24 860.4488 1255.2)" font-size="166.6667" font-family="TimesNewRomanPSMT"><tspan y="-2700" x="0 92.71669 213.10007 305.81678">SAFT</tspan></text>
<text xml:space="preserve" transform="matrix(.24 0 -0 .24 954.5288 1255.2)" font-size="166.6667" font-family="TimesNewRomanPSMT"><tspan y="-2700" x="0">-</tspan></text>
<text xml:space="preserve" transform="matrix(.24 0 -0 .24 967.9038 1255.2)" font-size="166.6667" font-family="CambriaMath"><tspan y="-2700" x="0">&#x1d6fe;</tspan></text>
<text xml:space="preserve" transform="matrix(.24 0 -0 .24 998.9038 1255.2)" font-size="166.6667" font-family="TimesNewRomanPSMT"><tspan y="-2700" x="0 148.43338 194.70006">Mie</tspan></text>
</g>
</svg>
