<?xml version="1.0" encoding="UTF-8" standalone="no"?>
<!DOCTYPE svg PUBLIC "-//W3C//DTD SVG 1.1//EN" "http://www.w3.org/Graphics/SVG/1.1/DTD/svg11.dtd">
<svg xmlns="http://www.w3.org/2000/svg" xmlns:xlink="http://www.w3.org/1999/xlink" version="1.1" width="1224pt" height="1224pt" viewBox="0 0 1224 1224">
<g enable-background="new">
<clipPath id="cp0">
<path transform="matrix(1,0,0,-1,0,1224)" d="M 0 .00002735853 L 1224 .00002735853 L 1224 1224 L 0 1224 Z "/>
</clipPath>
<g clip-path="url(#cp0)">
<path transform="matrix(1,0,0,-1,0,1224)" d="M 0 1224 L 1224 1224 L 1224 .00002735853 L 0 .00002735853 Z " fill="#ffffff"/>
</g>
<path transform="matrix(1,0,0,-1,0,1224)" d="M 0 1224 L 1224 1224 L 1224 .00003191829 L 0 .00003191829 Z " fill="#ffffff"/>
<path transform="matrix(.00007874016,0,0,.00007874016,684,0)" stroke-width="76200" stroke-linecap="butt" stroke-miterlimit="8" stroke-linejoin="miter" fill="none" stroke="#000000" d="M 0 0 L 6858000 0 L 6858000 6858000 L 0 6858000 Z "/>
<path transform="matrix(1,0,0,-1,0,1224)" d="M 698.028 779.2694 C 698.028 813.0692 725.4282 840.4694 759.228 840.4694 C 793.0279 840.4694 820.428 813.0692 820.428 779.2694 C 820.428 745.4696 793.0279 718.0694 759.228 718.0694 C 725.4282 718.0694 698.028 745.4696 698.028 779.2694 Z " fill="#f9e7b1" fill-rule="evenodd"/>
<path transform="matrix(1,0,0,-1,0,1224)" d="M 696.7482 979.7554 C 696.7482 1013.555 724.1484 1040.955 757.9482 1040.955 C 791.7481 1040.955 819.1482 1013.555 819.1482 979.7554 C 819.1482 945.9555 791.7481 918.5554 757.9482 918.5554 C 724.1484 918.5554 696.7482 945.9555 696.7482 979.7554 Z " fill="#f9e7b1" fill-rule="evenodd"/>
<path transform="matrix(1,0,0,-1,0,1224)" d="M 810.6873 1074.181 C 810.6873 1107.981 838.0875 1135.381 871.8873 1135.381 C 905.6871 1135.381 933.0873 1107.981 933.0873 1074.181 C 933.0873 1040.381 905.6871 1012.981 871.8873 1012.981 C 838.0875 1012.981 810.6873 1040.381 810.6873 1074.181 Z " fill="#f9e7b1" fill-rule="evenodd"/>
<path transform="matrix(1,0,0,-1,0,1224)" d="M 695.4479 1153.049 C 695.4479 1186.849 722.848 1214.249 756.6479 1214.249 C 790.4477 1214.249 817.8479 1186.849 817.8479 1153.049 C 817.8479 1119.249 790.4477 1091.849 756.6479 1091.849 C 722.848 1091.849 695.4479 1119.249 695.4479 1153.049 Z " fill="#f9e7b1" fill-rule="evenodd"/>
<path transform="matrix(1,0,0,-1,0,1224)" d="M 720.6479 1153.049 C 720.6479 1172.931 736.7656 1189.049 756.6479 1189.049 C 776.5301 1189.049 792.6479 1172.931 792.6479 1153.049 C 792.6479 1133.167 776.5301 1117.049 756.6479 1117.049 C 736.7656 1117.049 720.6479 1133.167 720.6479 1153.049 Z " fill="#5b9bd5" fill-rule="evenodd"/>
<path transform="matrix(.00007874016,0,0,.00007874016,720.6479,34.95105)" stroke-width="12700" stroke-linecap="butt" stroke-miterlimit="8" stroke-linejoin="miter" fill="none" stroke="#5b9bd5" d="M 0 457200 C 0 204695.4 204695.4 0 457200 0 C 709704.6 0 914400 204695.4 914400 457200 C 914400 709704.6 709704.6 914400 457200 914400 C 204695.4 914400 0 709704.6 0 457200 Z "/>
<path transform="matrix(1,0,0,-1,0,1224)" d="M 835.8873 1074.181 C 835.8873 1094.063 852.005 1110.181 871.8873 1110.181 C 891.7695 1110.181 907.8873 1094.063 907.8873 1074.181 C 907.8873 1054.299 891.7695 1038.181 871.8873 1038.181 C 852.005 1038.181 835.8873 1054.299 835.8873 1074.181 Z " fill="#5b9bd5" fill-rule="evenodd"/>
<path transform="matrix(.00007874016,0,0,.00007874016,835.8873,113.81897)" stroke-width="12700" stroke-linecap="butt" stroke-miterlimit="8" stroke-linejoin="miter" fill="none" stroke="#5b9bd5" d="M 0 457200 C 0 204695.4 204695.4 0 457200 0 C 709704.6 0 914400 204695.4 914400 457200 C 914400 709704.6 709704.6 914400 457200 914400 C 204695.4 914400 0 709704.6 0 457200 Z "/>
<path transform="matrix(1,0,0,-1,0,1224)" d="M 721.9482 979.7554 C 721.9482 999.6376 738.066 1015.755 757.9482 1015.755 C 777.8305 1015.755 793.9482 999.6376 793.9482 979.7554 C 793.9482 959.8731 777.8305 943.7554 757.9482 943.7554 C 738.066 943.7554 721.9482 959.8731 721.9482 979.7554 Z " fill="#5b9bd5" fill-rule="evenodd"/>
<path transform="matrix(.00007874016,0,0,.00007874016,721.9482,208.245)" stroke-width="12700" stroke-linecap="butt" stroke-miterlimit="8" stroke-linejoin="miter" fill="none" stroke="#5b9bd5" d="M 0 457200 C 0 204695.4 204695.4 0 457200 0 C 709704.6 0 914400 204695.4 914400 457200 C 914400 709704.6 709704.6 914400 457200 914400 C 204695.4 914400 0 709704.6 0 457200 Z "/>
<path transform="matrix(1,0,0,-1,0,1224)" d="M 723.228 779.2694 C 723.228 799.1516 739.3458 815.2694 759.228 815.2694 C 779.1103 815.2694 795.228 799.1516 795.228 779.2694 C 795.228 759.3871 779.1103 743.2694 759.228 743.2694 C 739.3458 743.2694 723.228 759.3871 723.228 779.2694 Z " fill="#5b9bd5" fill-rule="evenodd"/>
<path transform="matrix(.00007874016,0,0,.00007874016,723.228,408.7306)" stroke-width="12700" stroke-linecap="butt" stroke-miterlimit="8" stroke-linejoin="miter" fill="none" stroke="#5b9bd5" d="M 0 457200 C 0 204695.4 204695.4 0 457200 0 C 709704.6 0 914400 204695.4 914400 457200 C 914400 709704.6 709704.6 914400 457200 914400 C 204695.4 914400 0 709704.6 0 457200 Z "/>
<path transform="matrix(1,0,0,-1,0,1224)" d="M 869.1077 809.4766 C 899.5766 824.1079 936.1375 811.269 950.7688 780.8001 C 965.4 750.3312 952.5611 713.7703 922.0922 699.139 C 891.6233 684.5077 855.0624 697.3466 840.4311 727.8155 C 825.7998 758.2844 838.6388 794.8454 869.1077 809.4766 Z " fill="#f9e7b1" fill-rule="evenodd"/>
<path transform="matrix(1,0,0,-1,0,1224)" d="M 830.5575 944.0433 C 861.0264 958.6746 897.5873 945.8357 912.2186 915.3668 C 926.8499 884.8979 914.0109 848.337 883.542 833.7057 C 853.0731 819.0744 816.5122 831.9133 801.8809 862.3822 C 787.2496 892.8511 800.0886 929.4121 830.5575 944.0433 Z " fill="#f9e7b1" fill-rule="evenodd"/>
<path transform="matrix(1,0,0,-1,0,1224)" d="M 1037.907 826.5417 C 1068.375 841.173 1104.936 828.334 1119.568 797.8651 C 1134.199 767.3962 1121.36 730.8353 1090.891 716.204 C 1060.422 701.5728 1023.861 714.4117 1009.23 744.8806 C 994.5987 775.3495 1007.438 811.9104 1037.907 826.5417 Z " fill="#f9e7b1" fill-rule="evenodd"/>
<path transform="matrix(1,0,0,-1,0,1224)" d="M 1103.151 943.2995 C 1133.62 957.9307 1170.181 945.0918 1184.812 914.6229 C 1199.443 884.154 1186.604 847.5931 1156.135 832.9618 C 1125.666 818.3305 1089.106 831.1695 1074.474 861.6384 C 1059.843 892.1073 1072.682 928.6682 1103.151 943.2995 Z " fill="#f9e7b1" fill-rule="evenodd"/>
<path transform="matrix(1,0,0,-1,0,1224)" d="M 1114.059 920.5829 C 1131.982 929.1895 1153.489 921.6372 1162.095 903.7143 C 1170.702 885.7915 1163.15 864.285 1145.227 855.6784 C 1127.304 847.0718 1105.798 854.6241 1097.191 872.547 C 1088.584 890.4698 1096.137 911.9763 1114.059 920.5829 Z " fill="#5b9bd5" fill-rule="evenodd"/>
<path transform="matrix(.00003408505,.00007098043,-.00007098043,.00003408505,1146.512,287.83338)" stroke-width="12700" stroke-linecap="butt" stroke-miterlimit="8" stroke-linejoin="miter" fill="none" stroke="#5b9bd5" d="M 0 457200 C 0 204695.4 204695.4 0 457200 0 C 709704.6 0 914400 204695.4 914400 457200 C 914400 709704.6 709704.6 914400 457200 914400 C 204695.4 914400 0 709704.6 0 457200 Z "/>
<path transform="matrix(1,0,0,-1,0,1224)" d="M 1048.815 803.8251 C 1066.738 812.4317 1088.244 804.8794 1096.851 786.9565 C 1105.458 769.0337 1097.905 747.5272 1079.982 738.9206 C 1062.06 730.314 1040.553 737.8663 1031.947 755.7892 C 1023.34 773.712 1030.892 795.2185 1048.815 803.8251 Z " fill="#5b9bd5" fill-rule="evenodd"/>
<path transform="matrix(.00003408505,.00007098043,-.00007098043,.00003408505,1081.267,404.5912)" stroke-width="12700" stroke-linecap="butt" stroke-miterlimit="8" stroke-linejoin="miter" fill="none" stroke="#5b9bd5" d="M 0 457200 C 0 204695.4 204695.4 0 457200 0 C 709704.6 0 914400 204695.4 914400 457200 C 914400 709704.6 709704.6 914400 457200 914400 C 204695.4 914400 0 709704.6 0 457200 Z "/>
<path transform="matrix(1,0,0,-1,0,1224)" d="M 841.4661 921.3267 C 859.389 929.9334 880.8954 922.3811 889.502 904.4582 C 898.1086 886.5353 890.5563 865.0289 872.6334 856.4222 C 854.7106 847.8156 833.2041 855.3679 824.5975 873.2908 C 815.9909 891.2137 823.5432 912.7201 841.4661 921.3267 Z " fill="#5b9bd5" fill-rule="evenodd"/>
<path transform="matrix(.00003408505,.00007098043,-.00007098043,.00003408505,873.9183,287.0896)" stroke-width="12700" stroke-linecap="butt" stroke-miterlimit="8" stroke-linejoin="miter" fill="none" stroke="#5b9bd5" d="M 0 457200 C 0 204695.4 204695.4 0 457200 0 C 709704.6 0 914400 204695.4 914400 457200 C 914400 709704.6 709704.6 914400 457200 914400 C 204695.4 914400 0 709704.6 0 457200 Z "/>
<path transform="matrix(1,0,0,-1,0,1224)" d="M 880.0162 786.7601 C 897.9391 795.3667 919.4455 787.8144 928.0522 769.8915 C 936.6588 751.9686 929.1065 730.4622 911.1836 721.8556 C 893.2607 713.2489 871.7543 720.8012 863.1477 738.7241 C 854.541 756.647 862.0934 778.1534 880.0162 786.7601 Z " fill="#5b9bd5" fill-rule="evenodd"/>
<path transform="matrix(.00003408505,.00007098043,-.00007098043,.00003408505,912.4685,421.6563)" stroke-width="12700" stroke-linecap="butt" stroke-miterlimit="8" stroke-linejoin="miter" fill="none" stroke="#5b9bd5" d="M 0 457200 C 0 204695.4 204695.4 0 457200 0 C 709704.6 0 914400 204695.4 914400 457200 C 914400 709704.6 709704.6 914400 457200 914400 C 204695.4 914400 0 709704.6 0 457200 Z "/>
<path transform="matrix(1,0,0,-1,0,1224)" d="M 951.5276 929.3466 C 979.3548 948.5319 1017.466 941.5262 1036.651 913.6989 C 1055.836 885.8717 1048.831 847.7606 1021.004 828.5753 C 993.1764 809.3901 955.0652 816.3958 935.88 844.223 C 916.6947 872.0502 923.7004 910.1613 951.5276 929.3466 Z " fill="#f9e7b1" fill-rule="evenodd"/>
<path transform="matrix(1,0,0,-1,0,1224)" d="M 1040.081 1067.315 C 1067.908 1086.501 1106.019 1079.495 1125.205 1051.668 C 1144.39 1023.84 1137.384 985.7293 1109.557 966.544 C 1081.73 947.3588 1043.619 954.3645 1024.433 982.1917 C 1005.248 1010.019 1012.254 1048.13 1040.081 1067.315 Z " fill="#f9e7b1" fill-rule="evenodd"/>
<path transform="matrix(1,0,0,-1,0,1224)" d="M 960.9456 1192.886 C 988.7728 1212.072 1026.884 1205.066 1046.069 1177.239 C 1065.255 1149.412 1058.249 1111.3 1030.422 1092.115 C 1002.594 1072.93 964.4832 1079.936 945.298 1107.763 C 926.1127 1135.59 933.1184 1173.701 960.9456 1192.886 Z " fill="#f9e7b1" fill-rule="evenodd"/>
<path transform="matrix(1,0,0,-1,0,1224)" d="M 1115.219 1204.538 C 1143.047 1223.724 1181.158 1216.718 1200.343 1188.891 C 1219.528 1161.063 1212.523 1122.952 1184.695 1103.767 C 1156.868 1084.582 1118.757 1091.587 1099.572 1119.415 C 1080.386 1147.242 1087.392 1185.353 1115.219 1204.538 Z " fill="#f9e7b1" fill-rule="evenodd"/>
<path transform="matrix(1,0,0,-1,0,1224)" d="M 1129.523 1183.791 C 1145.892 1195.077 1168.31 1190.956 1179.596 1174.587 C 1190.881 1158.218 1186.76 1135.8 1170.391 1124.514 C 1154.022 1113.229 1131.604 1117.35 1120.319 1133.719 C 1109.033 1150.088 1113.154 1172.506 1129.523 1183.791 Z " fill="#5b9bd5" fill-rule="evenodd"/>
<path transform="matrix(.00004469402,.00006482636,-.00006482636,.00004469402,1159.162,19.775025)" stroke-width="12700" stroke-linecap="butt" stroke-miterlimit="8" stroke-linejoin="miter" fill="none" stroke="#5b9bd5" d="M 0 457200 C 0 204695.4 204695.4 0 457200 0 C 709704.6 0 914400 204695.4 914400 457200 C 914400 709704.6 709704.6 914400 457200 914400 C 204695.4 914400 0 709704.6 0 457200 Z "/>
<path transform="matrix(1,0,0,-1,0,1224)" d="M 975.2495 1172.139 C 991.6184 1183.425 1014.037 1179.304 1025.322 1162.935 C 1036.608 1146.566 1032.487 1124.148 1016.118 1112.862 C 999.7487 1101.577 977.3304 1105.698 966.0449 1122.067 C 954.7595 1138.436 958.8805 1160.854 975.2495 1172.139 Z " fill="#5b9bd5" fill-rule="evenodd"/>
<path transform="matrix(.00004469402,.00006482636,-.00006482636,.00004469402,1004.888,31.426026)" stroke-width="12700" stroke-linecap="butt" stroke-miterlimit="8" stroke-linejoin="miter" fill="none" stroke="#5b9bd5" d="M 0 457200 C 0 204695.4 204695.4 0 457200 0 C 709704.6 0 914400 204695.4 914400 457200 C 914400 709704.6 709704.6 914400 457200 914400 C 204695.4 914400 0 709704.6 0 457200 Z "/>
<path transform="matrix(1,0,0,-1,0,1224)" d="M 1054.385 1046.568 C 1070.754 1057.854 1093.172 1053.733 1104.458 1037.364 C 1115.743 1020.995 1111.622 998.5765 1095.253 987.2911 C 1078.884 976.0056 1056.466 980.1266 1045.18 996.4956 C 1033.895 1012.865 1038.016 1035.283 1054.385 1046.568 Z " fill="#5b9bd5" fill-rule="evenodd"/>
<path transform="matrix(.00004469402,.00006482636,-.00006482636,.00004469402,1084.023,156.99805)" stroke-width="12700" stroke-linecap="butt" stroke-miterlimit="8" stroke-linejoin="miter" fill="none" stroke="#5b9bd5" d="M 0 457200 C 0 204695.4 204695.4 0 457200 0 C 709704.6 0 914400 204695.4 914400 457200 C 914400 709704.6 709704.6 914400 457200 914400 C 204695.4 914400 0 709704.6 0 457200 Z "/>
<path transform="matrix(1,0,0,-1,0,1224)" d="M 965.8314 908.5996 C 982.2004 919.885 1004.619 915.764 1015.904 899.3951 C 1027.19 883.0261 1023.069 860.6078 1006.7 849.3224 C 990.3307 838.0369 967.9124 842.1579 956.6269 858.5269 C 945.3415 874.8958 949.4625 897.3141 965.8314 908.5996 Z " fill="#5b9bd5" fill-rule="evenodd"/>
<path transform="matrix(.00004469402,.00006482636,-.00006482636,.00004469402,995.4701,294.9663)" stroke-width="12700" stroke-linecap="butt" stroke-miterlimit="8" stroke-linejoin="miter" fill="none" stroke="#5b9bd5" d="M 0 457200 C 0 204695.4 204695.4 0 457200 0 C 709704.6 0 914400 204695.4 914400 457200 C 914400 709704.6 709704.6 914400 457200 914400 C 204695.4 914400 0 709704.6 0 457200 Z "/>
<path transform="matrix(.00007874016,0,0,.00007874016,0,682.4482)" stroke-width="76200" stroke-linecap="butt" stroke-miterlimit="8" stroke-linejoin="miter" fill="none" stroke="#000000" d="M 0 0 L 6858000 0 L 6858000 6858000 L 0 6858000 Z "/>
<path transform="matrix(1,0,0,-1,0,1224)" d="M 68.61795 174.4132 C 68.61795 208.2131 96.01813 235.6132 129.818 235.6132 C 163.6178 235.6132 191.018 208.2131 191.018 174.4132 C 191.018 140.6134 163.6178 113.2132 129.818 113.2132 C 96.01813 113.2132 68.61795 140.6134 68.61795 174.4132 Z " fill="#f9e7b1" fill-rule="evenodd"/>
<path transform="matrix(1,0,0,-1,0,1224)" d="M 58.9089 246.093 C 58.9089 279.8928 86.30907 307.293 120.1089 307.293 C 153.9087 307.293 181.3089 279.8928 181.3089 246.093 C 181.3089 212.2931 153.9087 184.8929 120.1089 184.8929 C 86.30907 184.8929 58.9089 212.2931 58.9089 246.093 Z " fill="#f9e7b1" fill-rule="evenodd"/>
<path transform="matrix(1,0,0,-1,0,1224)" d="M 56.72701 318.802 C 56.72701 352.6018 84.12718 380.002 117.927 380.002 C 151.7268 380.002 179.127 352.6018 179.127 318.802 C 179.127 285.0022 151.7268 257.602 117.927 257.602 C 84.12718 257.602 56.72701 285.0022 56.72701 318.802 Z " fill="#f9e7b1" fill-rule="evenodd"/>
<path transform="matrix(1,0,0,-1,0,1224)" d="M 32.61795 385.9474 C 32.61795 419.7473 60.01813 447.1474 93.81795 447.1474 C 127.6178 447.1474 155.018 419.7473 155.018 385.9474 C 155.018 352.1476 127.6178 324.7474 93.81795 324.7474 C 60.01813 324.7474 32.61795 352.1476 32.61795 385.9474 Z " fill="#f9e7b1" fill-rule="evenodd"/>
<path transform="matrix(1,0,0,-1,0,1224)" d="M 57.81795 385.9474 C 57.81795 405.8297 73.9357 421.9474 93.81795 421.9474 C 113.7002 421.9474 129.818 405.8297 129.818 385.9474 C 129.818 366.0652 113.7002 349.9474 93.81795 349.9474 C 73.9357 349.9474 57.81795 366.0652 57.81795 385.9474 Z " fill="#5b9bd5" fill-rule="evenodd"/>
<path transform="matrix(.00007874016,0,0,.00007874016,57.81795,802.0526)" stroke-width="12700" stroke-linecap="butt" stroke-miterlimit="8" stroke-linejoin="miter" fill="none" stroke="#5b9bd5" d="M 0 457200 C 0 204695.4 204695.4 0 457200 0 C 709704.6 0 914400 204695.4 914400 457200 C 914400 709704.6 709704.6 914400 457200 914400 C 204695.4 914400 0 709704.6 0 457200 Z "/>
<path transform="matrix(1,0,0,-1,0,1224)" d="M 81.927 318.802 C 81.927 338.6842 98.04475 354.802 117.927 354.802 C 137.8093 354.802 153.927 338.6842 153.927 318.802 C 153.927 298.9197 137.8093 282.802 117.927 282.802 C 98.04475 282.802 81.927 298.9197 81.927 318.802 Z " fill="#5b9bd5" fill-rule="evenodd"/>
<path transform="matrix(.00007874016,0,0,.00007874016,81.927,869.198)" stroke-width="12700" stroke-linecap="butt" stroke-miterlimit="8" stroke-linejoin="miter" fill="none" stroke="#5b9bd5" d="M 0 457200 C 0 204695.4 204695.4 0 457200 0 C 709704.6 0 914400 204695.4 914400 457200 C 914400 709704.6 709704.6 914400 457200 914400 C 204695.4 914400 0 709704.6 0 457200 Z "/>
<path transform="matrix(1,0,0,-1,0,1224)" d="M 84.10889 246.093 C 84.10889 265.9752 100.2266 282.093 120.1089 282.093 C 139.9911 282.093 156.1089 265.9752 156.1089 246.093 C 156.1089 226.2107 139.9911 210.093 120.1089 210.093 C 100.2266 210.093 84.10889 226.2107 84.10889 246.093 Z " fill="#5b9bd5" fill-rule="evenodd"/>
<path transform="matrix(.00007874016,0,0,.00007874016,84.10889,941.907)" stroke-width="12700" stroke-linecap="butt" stroke-miterlimit="8" stroke-linejoin="miter" fill="none" stroke="#5b9bd5" d="M 0 457200 C 0 204695.4 204695.4 0 457200 0 C 709704.6 0 914400 204695.4 914400 457200 C 914400 709704.6 709704.6 914400 457200 914400 C 204695.4 914400 0 709704.6 0 457200 Z "/>
<path transform="matrix(1,0,0,-1,0,1224)" d="M 93.81795 174.4132 C 93.81795 194.2955 109.9357 210.4132 129.818 210.4132 C 149.7002 210.4132 165.818 194.2955 165.818 174.4132 C 165.818 154.531 149.7002 138.4132 129.818 138.4132 C 109.9357 138.4132 93.81795 154.531 93.81795 174.4132 Z " fill="#5b9bd5" fill-rule="evenodd"/>
<path transform="matrix(.00007874016,0,0,.00007874016,93.81795,1013.5868)" stroke-width="12700" stroke-linecap="butt" stroke-miterlimit="8" stroke-linejoin="miter" fill="none" stroke="#5b9bd5" d="M 0 457200 C 0 204695.4 204695.4 0 457200 0 C 709704.6 0 914400 204695.4 914400 457200 C 914400 709704.6 709704.6 914400 457200 914400 C 204695.4 914400 0 709704.6 0 457200 Z "/>
<path transform="matrix(1,0,0,-1,0,1224)" d="M 244.0466 136.83 C 274.5155 151.4613 311.0764 138.6223 325.7077 108.1534 C 340.339 77.68452 327.5001 41.1236 297.0312 26.49232 C 266.5623 11.86105 230.0013 24.69999 215.3701 55.16889 C 200.7388 85.63779 213.5777 122.1987 244.0466 136.83 Z " fill="#f9e7b1" fill-rule="evenodd"/>
<path transform="matrix(1,0,0,-1,0,1224)" d="M 304.4596 176.6109 C 334.9285 191.2422 371.4894 178.4033 386.1207 147.9344 C 400.752 117.4655 387.9131 80.90454 357.4442 66.27326 C 326.9753 51.64199 290.4143 64.48092 275.7831 94.94982 C 261.1518 125.4187 273.9907 161.9796 304.4596 176.6109 Z " fill="#f9e7b1" fill-rule="evenodd"/>
<path transform="matrix(1,0,0,-1,0,1224)" d="M 369.0588 210.0521 C 399.5277 224.6834 436.0886 211.8445 450.7199 181.3756 C 465.3512 150.9067 452.5123 114.3457 422.0434 99.71447 C 391.5745 85.0832 355.0135 97.92213 340.3823 128.391 C 325.751 158.8599 338.5899 195.4209 369.0588 210.0521 Z " fill="#f9e7b1" fill-rule="evenodd"/>
<path transform="matrix(1,0,0,-1,0,1224)" d="M 419.1509 260.8512 C 449.6198 275.4824 486.1807 262.6435 500.812 232.1746 C 515.4432 201.7057 502.6043 165.1448 472.1354 150.5135 C 441.6665 135.8822 405.1056 148.7212 390.4743 179.1901 C 375.843 209.659 388.682 246.2199 419.1509 260.8512 Z " fill="#f9e7b1" fill-rule="evenodd"/>
<path transform="matrix(1,0,0,-1,0,1224)" d="M 430.0595 238.1345 C 447.9824 246.7412 469.4888 239.1889 478.0954 221.266 C 486.702 203.3431 479.1497 181.8367 461.2268 173.23 C 443.304 164.6234 421.7975 172.1757 413.1909 190.0986 C 404.5843 208.0215 412.1366 229.5279 430.0595 238.1345 Z " fill="#5b9bd5" fill-rule="evenodd"/>
<path transform="matrix(.00003408505,.00007098043,-.00007098043,.00003408505,462.5117,970.2818)" stroke-width="12700" stroke-linecap="butt" stroke-miterlimit="8" stroke-linejoin="miter" fill="none" stroke="#5b9bd5" d="M 0 457200 C 0 204695.4 204695.4 0 457200 0 C 709704.6 0 914400 204695.4 914400 457200 C 914400 709704.6 709704.6 914400 457200 914400 C 204695.4 914400 0 709704.6 0 457200 Z "/>
<path transform="matrix(1,0,0,-1,0,1224)" d="M 379.9674 187.3355 C 397.8903 195.9421 419.3967 188.3898 428.0033 170.467 C 436.61 152.5441 429.0577 131.0376 411.1348 122.431 C 393.2119 113.8244 371.7055 121.3767 363.0988 139.2996 C 354.4922 157.2225 362.0445 178.7289 379.9674 187.3355 Z " fill="#5b9bd5" fill-rule="evenodd"/>
<path transform="matrix(.00003408505,.00007098043,-.00007098043,.00003408505,412.4197,1021.0808)" stroke-width="12700" stroke-linecap="butt" stroke-miterlimit="8" stroke-linejoin="miter" fill="none" stroke="#5b9bd5" d="M 0 457200 C 0 204695.4 204695.4 0 457200 0 C 709704.6 0 914400 204695.4 914400 457200 C 914400 709704.6 709704.6 914400 457200 914400 C 204695.4 914400 0 709704.6 0 457200 Z "/>
<path transform="matrix(1,0,0,-1,0,1224)" d="M 315.3682 153.8943 C 333.2911 162.5009 354.7975 154.9486 363.4041 137.0257 C 372.0108 119.1029 364.4585 97.59644 346.5356 88.9898 C 328.6127 80.38317 307.1063 87.93549 298.4996 105.8584 C 289.893 123.7813 297.4453 145.2877 315.3682 153.8943 Z " fill="#5b9bd5" fill-rule="evenodd"/>
<path transform="matrix(.00003408505,.00007098043,-.00007098043,.00003408505,347.8205,1054.522)" stroke-width="12700" stroke-linecap="butt" stroke-miterlimit="8" stroke-linejoin="miter" fill="none" stroke="#5b9bd5" d="M 0 457200 C 0 204695.4 204695.4 0 457200 0 C 709704.6 0 914400 204695.4 914400 457200 C 914400 709704.6 709704.6 914400 457200 914400 C 204695.4 914400 0 709704.6 0 457200 Z "/>
<path transform="matrix(1,0,0,-1,0,1224)" d="M 254.9552 114.1134 C 272.8781 122.72 294.3845 115.1677 302.9912 97.2448 C 311.5978 79.32192 304.0455 57.8155 286.1226 49.20887 C 268.1997 40.60223 246.6933 48.15455 238.0866 66.07743 C 229.48 84.00032 237.0323 105.5067 254.9552 114.1134 Z " fill="#5b9bd5" fill-rule="evenodd"/>
<path transform="matrix(.00003408505,.00007098043,-.00007098043,.00003408505,287.4075,1094.3029)" stroke-width="12700" stroke-linecap="butt" stroke-miterlimit="8" stroke-linejoin="miter" fill="none" stroke="#5b9bd5" d="M 0 457200 C 0 204695.4 204695.4 0 457200 0 C 709704.6 0 914400 204695.4 914400 457200 C 914400 709704.6 709704.6 914400 457200 914400 C 204695.4 914400 0 709704.6 0 457200 Z "/>
<path transform="matrix(1,0,0,-1,0,1224)" d="M 247.5521 327.694 C 275.3793 346.8793 313.4905 339.8736 332.6757 312.0464 C 351.861 284.2192 344.8553 246.108 317.0281 226.9228 C 289.2008 207.7375 251.0897 214.7432 231.9044 242.5704 C 212.7192 270.3976 219.7249 308.5088 247.5521 327.694 Z " fill="#f9e7b1" fill-rule="evenodd"/>
<path transform="matrix(1,0,0,-1,0,1224)" d="M 301.0547 376.3738 C 328.8819 395.5591 366.993 388.5534 386.1783 360.7262 C 405.3636 332.899 398.3579 294.7878 370.5306 275.6026 C 342.7034 256.4173 304.5923 263.423 285.407 291.2502 C 266.2218 319.0774 273.2275 357.1886 301.0547 376.3738 Z " fill="#f9e7b1" fill-rule="evenodd"/>
<path transform="matrix(1,0,0,-1,0,1224)" d="M 359.6772 419.4408 C 387.5044 438.6261 425.6156 431.6204 444.8008 403.7932 C 463.9861 375.9659 456.9804 337.8548 429.1532 318.6695 C 401.326 299.4843 363.2148 306.49 344.0295 334.3172 C 324.8443 362.1444 331.85 400.2556 359.6772 419.4408 Z " fill="#f9e7b1" fill-rule="evenodd"/>
<path transform="matrix(1,0,0,-1,0,1224)" d="M 401.273 477.4024 C 429.1002 496.5877 467.2114 489.582 486.3966 461.7547 C 505.5819 433.9275 498.5762 395.8164 470.749 376.6311 C 442.9218 357.4459 404.8106 364.4516 385.6254 392.2788 C 366.4401 420.106 373.4458 458.2171 401.273 477.4024 Z " fill="#f9e7b1" fill-rule="evenodd"/>
<path transform="matrix(1,0,0,-1,0,1224)" d="M 415.5769 456.6554 C 431.9459 467.9408 454.3642 463.8198 465.6496 447.4509 C 476.9351 431.0819 472.8141 408.6636 456.4451 397.3782 C 440.0762 386.0927 417.6578 390.2137 406.3724 406.5827 C 395.087 422.9516 399.208 445.3699 415.5769 456.6554 Z " fill="#5b9bd5" fill-rule="evenodd"/>
<path transform="matrix(.00004469402,.00006482636,-.00006482636,.00004469402,445.2155,746.9105)" stroke-width="12700" stroke-linecap="butt" stroke-miterlimit="8" stroke-linejoin="miter" fill="none" stroke="#5b9bd5" d="M 0 457200 C 0 204695.4 204695.4 0 457200 0 C 709704.6 0 914400 204695.4 914400 457200 C 914400 709704.6 709704.6 914400 457200 914400 C 204695.4 914400 0 709704.6 0 457200 Z "/>
<path transform="matrix(1,0,0,-1,0,1224)" d="M 373.9811 398.6938 C 390.35 409.9792 412.7684 405.8583 424.0538 389.4893 C 435.3392 373.1203 431.2183 350.702 414.8493 339.4166 C 398.4803 328.1311 376.062 332.2521 364.7766 348.6211 C 353.4911 364.99 357.6121 387.4084 373.9811 398.6938 Z " fill="#5b9bd5" fill-rule="evenodd"/>
<path transform="matrix(.00004469402,.00006482636,-.00006482636,.00004469402,403.6197,804.8721)" stroke-width="12700" stroke-linecap="butt" stroke-miterlimit="8" stroke-linejoin="miter" fill="none" stroke="#5b9bd5" d="M 0 457200 C 0 204695.4 204695.4 0 457200 0 C 709704.6 0 914400 204695.4 914400 457200 C 914400 709704.6 709704.6 914400 457200 914400 C 204695.4 914400 0 709704.6 0 457200 Z "/>
<path transform="matrix(1,0,0,-1,0,1224)" d="M 315.3586 355.6268 C 331.7275 366.9123 354.1458 362.7913 365.4313 346.4223 C 376.7167 330.0534 372.5957 307.635 356.2268 296.3496 C 339.8578 285.0641 317.4395 289.1851 306.1541 305.5541 C 294.8686 321.923 298.9896 344.3414 315.3586 355.6268 Z " fill="#5b9bd5" fill-rule="evenodd"/>
<path transform="matrix(.00004469402,.00006482636,-.00006482636,.00004469402,344.9972,847.9391)" stroke-width="12700" stroke-linecap="butt" stroke-miterlimit="8" stroke-linejoin="miter" fill="none" stroke="#5b9bd5" d="M 0 457200 C 0 204695.4 204695.4 0 457200 0 C 709704.6 0 914400 204695.4 914400 457200 C 914400 709704.6 709704.6 914400 457200 914400 C 204695.4 914400 0 709704.6 0 457200 Z "/>
<path transform="matrix(1,0,0,-1,0,1224)" d="M 261.856 306.947 C 278.2249 318.2325 300.6432 314.1115 311.9287 297.7425 C 323.2141 281.3736 319.0931 258.9552 302.7242 247.6698 C 286.3552 236.3843 263.9369 240.5053 252.6515 256.8743 C 241.366 273.2432 245.487 295.6616 261.856 306.947 Z " fill="#5b9bd5" fill-rule="evenodd"/>
<path transform="matrix(.00004469402,.00006482636,-.00006482636,.00004469402,291.4946,896.6189)" stroke-width="12700" stroke-linecap="butt" stroke-miterlimit="8" stroke-linejoin="miter" fill="none" stroke="#5b9bd5" d="M 0 457200 C 0 204695.4 204695.4 0 457200 0 C 709704.6 0 914400 204695.4 914400 457200 C 914400 709704.6 709704.6 914400 457200 914400 C 204695.4 914400 0 709704.6 0 457200 Z "/>
<path transform="matrix(1,0,0,-1,0,1224)" d="M 573.3349 946.4706 L 611.8548 946.4706 L 611.8548 974.3858 L 650.3748 918.5554 L 611.8548 862.725 L 611.8548 890.6402 L 573.3349 890.6402 Z " fill="#ff0000" fill-rule="evenodd"/>
<path transform="matrix(.00007874016,0,0,.00007874016,573.3349,249.6142)" stroke-width="12700" stroke-linecap="butt" stroke-miterlimit="8" stroke-linejoin="miter" fill="none" stroke="#ff0000" d="M 0 354523.3 L 489204 354523.3 L 489204 0 L 978408 709046.5 L 489204 1418093 L 489204 1063570 L 0 1063570 Z "/>
<path transform="matrix(.00007874016,0,0,.00007874016,682.6477,679.469)" stroke-width="76200" stroke-linecap="butt" stroke-miterlimit="8" stroke-linejoin="miter" fill="none" stroke="#000000" d="M 0 0 L 6858000 0 L 6858000 6858000 L 0 6858000 Z "/>
<path transform="matrix(1,0,0,-1,0,1224)" d="M 751.2657 177.3925 C 751.2657 211.1923 778.6658 238.5925 812.4657 238.5925 C 846.2655 238.5925 873.6657 211.1923 873.6657 177.3925 C 873.6657 143.5927 846.2655 116.1925 812.4657 116.1925 C 778.6658 116.1925 751.2657 143.5927 751.2657 177.3925 Z " fill="#f9e7b1" fill-rule="evenodd"/>
<path transform="matrix(1,0,0,-1,0,1224)" d="M 741.5566 249.0722 C 741.5566 282.872 768.9568 310.2722 802.7566 310.2722 C 836.5564 310.2722 863.9566 282.872 863.9566 249.0722 C 863.9566 215.2724 836.5564 187.8722 802.7566 187.8722 C 768.9568 187.8722 741.5566 215.2724 741.5566 249.0722 Z " fill="#f9e7b1" fill-rule="evenodd"/>
<path transform="matrix(1,0,0,-1,0,1224)" d="M 739.3747 321.7813 C 739.3747 355.5811 766.7749 382.9813 800.5747 382.9813 C 834.3745 382.9813 861.7747 355.5811 861.7747 321.7813 C 861.7747 287.9815 834.3745 260.5813 800.5747 260.5813 C 766.7749 260.5813 739.3747 287.9815 739.3747 321.7813 Z " fill="#f9e7b1" fill-rule="evenodd"/>
<path transform="matrix(1,0,0,-1,0,1224)" d="M 715.2657 388.9267 C 715.2657 422.7265 742.6658 450.1267 776.4657 450.1267 C 810.2655 450.1267 837.6657 422.7265 837.6657 388.9267 C 837.6657 355.1269 810.2655 327.7267 776.4657 327.7267 C 742.6658 327.7267 715.2657 355.1269 715.2657 388.9267 Z " fill="#f9e7b1" fill-rule="evenodd"/>
<path transform="matrix(1,0,0,-1,0,1224)" d="M 740.4657 388.9267 C 740.4657 408.8089 756.5834 424.9267 776.4657 424.9267 C 796.3479 424.9267 812.4657 408.8089 812.4657 388.9267 C 812.4657 369.0444 796.3479 352.9267 776.4657 352.9267 C 756.5834 352.9267 740.4657 369.0444 740.4657 388.9267 Z " fill="#5b9bd5" fill-rule="evenodd"/>
<path transform="matrix(.00007874016,0,0,.00007874016,740.4657,799.0733)" stroke-width="12700" stroke-linecap="butt" stroke-miterlimit="8" stroke-linejoin="miter" fill="none" stroke="#5b9bd5" d="M 0 457200 C 0 204695.4 204695.4 0 457200 0 C 709704.6 0 914400 204695.4 914400 457200 C 914400 709704.6 709704.6 914400 457200 914400 C 204695.4 914400 0 709704.6 0 457200 Z "/>
<path transform="matrix(1,0,0,-1,0,1224)" d="M 764.5747 321.7813 C 764.5747 341.6636 780.6925 357.7813 800.5747 357.7813 C 820.457 357.7813 836.5747 341.6636 836.5747 321.7813 C 836.5747 301.8991 820.457 285.7813 800.5747 285.7813 C 780.6925 285.7813 764.5747 301.8991 764.5747 321.7813 Z " fill="#5b9bd5" fill-rule="evenodd"/>
<path transform="matrix(.00007874016,0,0,.00007874016,764.5747,866.2187)" stroke-width="12700" stroke-linecap="butt" stroke-miterlimit="8" stroke-linejoin="miter" fill="none" stroke="#5b9bd5" d="M 0 457200 C 0 204695.4 204695.4 0 457200 0 C 709704.6 0 914400 204695.4 914400 457200 C 914400 709704.6 709704.6 914400 457200 914400 C 204695.4 914400 0 709704.6 0 457200 Z "/>
<path transform="matrix(1,0,0,-1,0,1224)" d="M 766.7566 249.0722 C 766.7566 268.9545 782.8744 285.0722 802.7566 285.0722 C 822.6389 285.0722 838.7566 268.9545 838.7566 249.0722 C 838.7566 229.19 822.6389 213.0722 802.7566 213.0722 C 782.8744 213.0722 766.7566 229.19 766.7566 249.0722 Z " fill="#5b9bd5" fill-rule="evenodd"/>
<path transform="matrix(.00007874016,0,0,.00007874016,766.7566,938.9278)" stroke-width="12700" stroke-linecap="butt" stroke-miterlimit="8" stroke-linejoin="miter" fill="none" stroke="#5b9bd5" d="M 0 457200 C 0 204695.4 204695.4 0 457200 0 C 709704.6 0 914400 204695.4 914400 457200 C 914400 709704.6 709704.6 914400 457200 914400 C 204695.4 914400 0 709704.6 0 457200 Z "/>
<path transform="matrix(1,0,0,-1,0,1224)" d="M 776.4657 177.3925 C 776.4657 197.2747 792.5834 213.3925 812.4657 213.3925 C 832.3479 213.3925 848.4657 197.2747 848.4657 177.3925 C 848.4657 157.5102 832.3479 141.3925 812.4657 141.3925 C 792.5834 141.3925 776.4657 157.5102 776.4657 177.3925 Z " fill="#5b9bd5" fill-rule="evenodd"/>
<path transform="matrix(.00007874016,0,0,.00007874016,776.4657,1010.6075)" stroke-width="12700" stroke-linecap="butt" stroke-miterlimit="8" stroke-linejoin="miter" fill="none" stroke="#5b9bd5" d="M 0 457200 C 0 204695.4 204695.4 0 457200 0 C 709704.6 0 914400 204695.4 914400 457200 C 914400 709704.6 709704.6 914400 457200 914400 C 204695.4 914400 0 709704.6 0 457200 Z "/>
<path transform="matrix(1,0,0,-1,0,1224)" d="M 876.1699 164.7522 C 909.2567 171.658 941.6771 150.434 948.5829 117.3472 C 955.4886 84.26034 934.2647 51.83994 901.1778 44.93418 C 868.091 38.02843 835.6706 59.2524 828.7648 92.33923 C 821.8591 125.4261 843.083 157.8465 876.1699 164.7522 Z " fill="#f9e7b1" fill-rule="evenodd"/>
<path transform="matrix(1,0,0,-1,0,1224)" d="M 944.354 188.9015 C 977.4408 195.8073 1009.861 174.5833 1016.767 141.4965 C 1023.673 108.4096 1002.449 75.98923 969.3619 69.08348 C 936.2751 62.17773 903.8547 83.40169 896.9489 116.4885 C 890.0432 149.5754 911.2671 181.9958 944.354 188.9015 Z " fill="#f9e7b1" fill-rule="evenodd"/>
<path transform="matrix(1,0,0,-1,0,1224)" d="M 1015.083 205.8929 C 1048.17 212.7986 1080.591 191.5747 1087.496 158.4878 C 1094.402 125.401 1073.178 92.9806 1040.091 86.07485 C 1007.005 79.16909 974.5841 100.3931 967.6784 133.4799 C 960.7726 166.5667 981.9966 198.9871 1015.083 205.8929 Z " fill="#f9e7b1" fill-rule="evenodd"/>
<path transform="matrix(1,0,0,-1,0,1224)" d="M 1075.887 243.2121 C 1108.974 250.1179 1141.394 228.8939 1148.3 195.8071 C 1155.205 162.7202 1133.982 130.2998 1100.895 123.3941 C 1067.808 116.4883 1035.387 137.7123 1028.482 170.7991 C 1021.576 203.886 1042.8 236.3064 1075.887 243.2121 Z " fill="#f9e7b1" fill-rule="evenodd"/>
<path transform="matrix(1,0,0,-1,0,1224)" d="M 1081.035 218.5437 C 1100.498 222.6059 1119.569 210.1212 1123.631 190.6584 C 1127.693 171.1955 1115.209 152.1247 1095.746 148.0625 C 1076.283 144.0003 1057.212 156.485 1053.15 175.9478 C 1049.088 195.4107 1061.573 214.4815 1081.035 218.5437 Z " fill="#5b9bd5" fill-rule="evenodd"/>
<path transform="matrix(.00001608766,.00007707918,-.00007707918,.00001608766,1116.276,998.101)" stroke-width="12700" stroke-linecap="butt" stroke-miterlimit="8" stroke-linejoin="miter" fill="none" stroke="#5b9bd5" d="M 0 457200 C 0 204695.4 204695.4 0 457200 0 C 709704.6 0 914400 204695.4 914400 457200 C 914400 709704.6 709704.6 914400 457200 914400 C 204695.4 914400 0 709704.6 0 457200 Z "/>
<path transform="matrix(1,0,0,-1,0,1224)" d="M 1020.232 181.2245 C 1039.695 185.2867 1058.766 172.802 1062.828 153.3392 C 1066.89 133.8763 1054.406 114.8055 1034.943 110.7433 C 1015.48 106.6811 996.409 119.1658 992.3468 138.6286 C 988.2846 158.0915 1000.769 177.1623 1020.232 181.2245 Z " fill="#5b9bd5" fill-rule="evenodd"/>
<path transform="matrix(.00001608766,.00007707918,-.00007707918,.00001608766,1055.473,1035.4202)" stroke-width="12700" stroke-linecap="butt" stroke-miterlimit="8" stroke-linejoin="miter" fill="none" stroke="#5b9bd5" d="M 0 457200 C 0 204695.4 204695.4 0 457200 0 C 709704.6 0 914400 204695.4 914400 457200 C 914400 709704.6 709704.6 914400 457200 914400 C 204695.4 914400 0 709704.6 0 457200 Z "/>
<path transform="matrix(1,0,0,-1,0,1224)" d="M 949.5027 164.2331 C 968.9655 168.2954 988.0364 155.8107 992.0986 136.3478 C 996.1608 116.885 983.6761 97.81415 964.2133 93.75195 C 944.7504 89.68974 925.6796 102.1744 921.6174 121.6373 C 917.5552 141.1001 930.0399 160.1709 949.5027 164.2331 Z " fill="#5b9bd5" fill-rule="evenodd"/>
<path transform="matrix(.00001608766,.00007707918,-.00007707918,.00001608766,984.7433,1052.4116)" stroke-width="12700" stroke-linecap="butt" stroke-miterlimit="8" stroke-linejoin="miter" fill="none" stroke="#5b9bd5" d="M 0 457200 C 0 204695.4 204695.4 0 457200 0 C 709704.6 0 914400 204695.4 914400 457200 C 914400 709704.6 709704.6 914400 457200 914400 C 204695.4 914400 0 709704.6 0 457200 Z "/>
<path transform="matrix(1,0,0,-1,0,1224)" d="M 881.3186 140.0837 C 900.7814 144.1459 919.8522 131.6613 923.9144 112.1984 C 927.9766 92.73557 915.492 73.66474 896.0291 69.60253 C 876.5663 65.54033 857.4954 78.02501 853.4332 97.48786 C 849.371 116.9507 861.8557 136.0215 881.3186 140.0837 Z " fill="#5b9bd5" fill-rule="evenodd"/>
<path transform="matrix(.00001608766,.00007707918,-.00007707918,.00001608766,916.5592,1076.561)" stroke-width="12700" stroke-linecap="butt" stroke-miterlimit="8" stroke-linejoin="miter" fill="none" stroke="#5b9bd5" d="M 0 457200 C 0 204695.4 204695.4 0 457200 0 C 709704.6 0 914400 204695.4 914400 457200 C 914400 709704.6 709704.6 914400 457200 914400 C 204695.4 914400 0 709704.6 0 457200 Z "/>
<path transform="matrix(1,0,0,-1,0,1224)" d="M 930.1998 330.6733 C 958.027 349.8585 996.1382 342.8529 1015.323 315.0256 C 1034.509 287.1984 1027.503 249.0873 999.6758 229.902 C 971.8485 210.7168 933.7374 217.7224 914.5521 245.5497 C 895.3669 273.3769 902.3726 311.488 930.1998 330.6733 Z " fill="#f9e7b1" fill-rule="evenodd"/>
<path transform="matrix(1,0,0,-1,0,1224)" d="M 983.7024 379.3531 C 1011.53 398.5384 1049.641 391.5327 1068.826 363.7055 C 1088.011 335.8783 1081.006 297.7671 1053.178 278.5819 C 1025.351 259.3966 987.24 266.4023 968.0547 294.2295 C 948.8695 322.0567 955.8752 360.1679 983.7024 379.3531 Z " fill="#f9e7b1" fill-rule="evenodd"/>
<path transform="matrix(1,0,0,-1,0,1224)" d="M 1042.325 422.4201 C 1070.152 441.6054 1108.263 434.5997 1127.449 406.7725 C 1146.634 378.9453 1139.628 340.8341 1111.801 321.6489 C 1083.974 302.4636 1045.863 309.4693 1026.677 337.2965 C 1007.492 365.1237 1014.498 403.2349 1042.325 422.4201 Z " fill="#f9e7b1" fill-rule="evenodd"/>
<path transform="matrix(1,0,0,-1,0,1224)" d="M 1083.921 480.3817 C 1111.748 499.567 1149.859 492.5613 1169.044 464.7341 C 1188.23 436.9068 1181.224 398.7957 1153.397 379.6104 C 1125.57 360.4252 1087.458 367.4309 1068.273 395.2581 C 1049.088 423.0853 1056.094 461.1965 1083.921 480.3817 Z " fill="#f9e7b1" fill-rule="evenodd"/>
<path transform="matrix(1,0,0,-1,0,1224)" d="M 1098.225 459.6347 C 1114.594 470.9201 1137.012 466.7991 1148.297 450.4302 C 1159.583 434.0612 1155.462 411.6429 1139.093 400.3575 C 1122.724 389.072 1100.306 393.193 1089.02 409.562 C 1077.735 425.9309 1081.856 448.3493 1098.225 459.6347 Z " fill="#5b9bd5" fill-rule="evenodd"/>
<path transform="matrix(.00004469402,.00006482636,-.00006482636,.00004469402,1127.863,743.9312)" stroke-width="12700" stroke-linecap="butt" stroke-miterlimit="8" stroke-linejoin="miter" fill="none" stroke="#5b9bd5" d="M 0 457200 C 0 204695.4 204695.4 0 457200 0 C 709704.6 0 914400 204695.4 914400 457200 C 914400 709704.6 709704.6 914400 457200 914400 C 204695.4 914400 0 709704.6 0 457200 Z "/>
<path transform="matrix(1,0,0,-1,0,1224)" d="M 1056.629 401.6731 C 1072.998 412.9586 1095.416 408.8376 1106.702 392.4686 C 1117.987 376.0997 1113.866 353.6813 1097.497 342.3959 C 1081.128 331.1105 1058.71 335.2315 1047.424 351.6004 C 1036.139 367.9694 1040.26 390.3877 1056.629 401.6731 Z " fill="#5b9bd5" fill-rule="evenodd"/>
<path transform="matrix(.00004469402,.00006482636,-.00006482636,.00004469402,1086.267,801.8928)" stroke-width="12700" stroke-linecap="butt" stroke-miterlimit="8" stroke-linejoin="miter" fill="none" stroke="#5b9bd5" d="M 0 457200 C 0 204695.4 204695.4 0 457200 0 C 709704.6 0 914400 204695.4 914400 457200 C 914400 709704.6 709704.6 914400 457200 914400 C 204695.4 914400 0 709704.6 0 457200 Z "/>
<path transform="matrix(1,0,0,-1,0,1224)" d="M 998.0062 358.6061 C 1014.375 369.8916 1036.793 365.7706 1048.079 349.4016 C 1059.364 333.0327 1055.243 310.6144 1038.874 299.3289 C 1022.505 288.0435 1000.087 292.1645 988.8017 308.5334 C 977.5163 324.9024 981.6373 347.3207 998.0062 358.6061 Z " fill="#5b9bd5" fill-rule="evenodd"/>
<path transform="matrix(.00004469402,.00006482636,-.00006482636,.00004469402,1027.645,844.95986)" stroke-width="12700" stroke-linecap="butt" stroke-miterlimit="8" stroke-linejoin="miter" fill="none" stroke="#5b9bd5" d="M 0 457200 C 0 204695.4 204695.4 0 457200 0 C 709704.6 0 914400 204695.4 914400 457200 C 914400 709704.6 709704.6 914400 457200 914400 C 204695.4 914400 0 709704.6 0 457200 Z "/>
<path transform="matrix(1,0,0,-1,0,1224)" d="M 944.5037 309.9263 C 960.8726 321.2117 983.2909 317.0907 994.5764 300.7218 C 1005.862 284.3528 1001.741 261.9345 985.3719 250.649 C 969.0029 239.3636 946.5846 243.4846 935.2992 259.8535 C 924.0137 276.2225 928.1347 298.6408 944.5037 309.9263 Z " fill="#5b9bd5" fill-rule="evenodd"/>
<path transform="matrix(.00004469402,.00006482636,-.00006482636,.00004469402,974.1423,893.6396)" stroke-width="12700" stroke-linecap="butt" stroke-miterlimit="8" stroke-linejoin="miter" fill="none" stroke="#5b9bd5" d="M 0 457200 C 0 204695.4 204695.4 0 457200 0 C 709704.6 0 914400 204695.4 914400 457200 C 914400 709704.6 709704.6 914400 457200 914400 C 204695.4 914400 0 709704.6 0 457200 Z "/>
<path transform="matrix(.00007874016,0,0,.00007874016,2.474567,0)" stroke-width="76200" stroke-linecap="butt" stroke-miterlimit="8" stroke-linejoin="miter" fill="none" stroke="#000000" d="M 0 0 L 6858000 0 L 6858000 6858000 L 0 6858000 Z "/>
<path transform="matrix(1,0,0,-1,0,1224)" d="M 39.12244 1136.249 C 39.12244 1140.226 42.34599 1143.449 46.32244 1143.449 C 50.29889 1143.449 53.52244 1140.226 53.52244 1136.249 C 53.52244 1132.273 50.29889 1129.049 46.32244 1129.049 C 42.34599 1129.049 39.12244 1132.273 39.12244 1136.249 Z " fill="#5b9bd5" fill-rule="evenodd"/>
<path transform="matrix(.00007874016,0,0,.00007874016,39.12244,80.551029)" stroke-width="12700" stroke-linecap="butt" stroke-miterlimit="8" stroke-linejoin="miter" fill="none" stroke="#5b9bd5" d="M 0 91440 C 0 40939.08 40939.08 0 91440 0 C 141940.9 0 182880 40939.08 182880 91440 C 182880 141940.9 141940.9 182880 91440 182880 C 40939.08 182880 0 141940.9 0 91440 Z "/>
<path transform="matrix(1,0,0,-1,0,1224)" d="M 154.3619 1057.381 C 154.3619 1061.358 157.5854 1064.581 161.5619 1064.581 C 165.5383 1064.581 168.7619 1061.358 168.7619 1057.381 C 168.7619 1053.405 165.5383 1050.181 161.5619 1050.181 C 157.5854 1050.181 154.3619 1053.405 154.3619 1057.381 Z " fill="#5b9bd5" fill-rule="evenodd"/>
<path transform="matrix(.00007874016,0,0,.00007874016,154.3619,159.41895)" stroke-width="12700" stroke-linecap="butt" stroke-miterlimit="8" stroke-linejoin="miter" fill="none" stroke="#5b9bd5" d="M 0 91440 C 0 40939.08 40939.08 0 91440 0 C 141940.9 0 182880 40939.08 182880 91440 C 182880 141940.9 141940.9 182880 91440 182880 C 40939.08 182880 0 141940.9 0 91440 Z "/>
<path transform="matrix(1,0,0,-1,0,1224)" d="M 40.42283 962.9554 C 40.42283 966.9318 43.64638 970.1554 47.62283 970.1554 C 51.59928 970.1554 54.82283 966.9318 54.82283 962.9554 C 54.82283 958.9789 51.59928 955.7554 47.62283 955.7554 C 43.64638 955.7554 40.42283 958.9789 40.42283 962.9554 Z " fill="#5b9bd5" fill-rule="evenodd"/>
<path transform="matrix(.00007874016,0,0,.00007874016,40.42283,253.8446)" stroke-width="12700" stroke-linecap="butt" stroke-miterlimit="8" stroke-linejoin="miter" fill="none" stroke="#5b9bd5" d="M 0 91440 C 0 40939.08 40939.08 0 91440 0 C 141940.9 0 182880 40939.08 182880 91440 C 182880 141940.9 141940.9 182880 91440 182880 C 40939.08 182880 0 141940.9 0 91440 Z "/>
<path transform="matrix(1,0,0,-1,0,1224)" d="M 41.7026 762.4694 C 41.7026 766.4458 44.92615 769.6694 48.9026 769.6694 C 52.87905 769.6694 56.1026 766.4458 56.1026 762.4694 C 56.1026 758.4929 52.87905 755.2694 48.9026 755.2694 C 44.92615 755.2694 41.7026 758.4929 41.7026 762.4694 Z " fill="#5b9bd5" fill-rule="evenodd"/>
<path transform="matrix(.00007874016,0,0,.00007874016,41.7026,454.33064)" stroke-width="12700" stroke-linecap="butt" stroke-miterlimit="8" stroke-linejoin="miter" fill="none" stroke="#5b9bd5" d="M 0 91440 C 0 40939.08 40939.08 0 91440 0 C 141940.9 0 182880 40939.08 182880 91440 C 182880 141940.9 141940.9 182880 91440 182880 C 40939.08 182880 0 141940.9 0 91440 Z "/>
<path transform="matrix(1,0,0,-1,0,1224)" d="M 458.4959 887.4498 C 462.0804 889.1711 466.3817 887.6607 468.103 884.0761 C 469.8244 880.4915 468.3139 876.1902 464.7293 874.4689 C 461.1448 872.7476 456.8435 874.2581 455.1221 877.8426 C 453.4008 881.4272 454.9113 885.7285 458.4959 887.4498 Z " fill="#5b9bd5" fill-rule="evenodd"/>
<path transform="matrix(.00003408505,.00007098043,-.00007098043,.00003408505,464.9863,333.4334)" stroke-width="12700" stroke-linecap="butt" stroke-miterlimit="8" stroke-linejoin="miter" fill="none" stroke="#5b9bd5" d="M 0 91440 C 0 40939.08 40939.08 0 91440 0 C 141940.9 0 182880 40939.08 182880 91440 C 182880 141940.9 141940.9 182880 91440 182880 C 40939.08 182880 0 141940.9 0 91440 Z "/>
<path transform="matrix(1,0,0,-1,0,1224)" d="M 393.2515 770.692 C 396.8361 772.4133 401.1374 770.9029 402.8587 767.3183 C 404.58 763.7337 403.0696 759.4324 399.485 757.7111 C 395.9004 755.9898 391.5991 757.5003 389.8778 761.0848 C 388.1565 764.6694 389.6669 768.9707 393.2515 770.692 Z " fill="#5b9bd5" fill-rule="evenodd"/>
<path transform="matrix(.00003408505,.00007098043,-.00007098043,.00003408505,399.742,450.19123)" stroke-width="12700" stroke-linecap="butt" stroke-miterlimit="8" stroke-linejoin="miter" fill="none" stroke="#5b9bd5" d="M 0 91440 C 0 40939.08 40939.08 0 91440 0 C 141940.9 0 182880 40939.08 182880 91440 C 182880 141940.9 141940.9 182880 91440 182880 C 40939.08 182880 0 141940.9 0 91440 Z "/>
<path transform="matrix(1,0,0,-1,0,1224)" d="M 185.9025 888.1937 C 189.4871 889.915 193.7883 888.4046 195.5097 884.82 C 197.231 881.2354 195.7205 876.9341 192.1359 875.2128 C 188.5514 873.4915 184.2501 875.0019 182.5288 878.5865 C 180.8074 882.1711 182.3179 886.4724 185.9025 888.1937 Z " fill="#5b9bd5" fill-rule="evenodd"/>
<path transform="matrix(.00003408505,.00007098043,-.00007098043,.00003408505,192.3929,332.68959)" stroke-width="12700" stroke-linecap="butt" stroke-miterlimit="8" stroke-linejoin="miter" fill="none" stroke="#5b9bd5" d="M 0 91440 C 0 40939.08 40939.08 0 91440 0 C 141940.9 0 182880 40939.08 182880 91440 C 182880 141940.9 141940.9 182880 91440 182880 C 40939.08 182880 0 141940.9 0 91440 Z "/>
<path transform="matrix(1,0,0,-1,0,1224)" d="M 224.4526 753.627 C 228.0372 755.3483 232.3385 753.8379 234.0598 750.2533 C 235.7811 746.6687 234.2707 742.3674 230.6861 740.6461 C 227.1015 738.9248 222.8002 740.4352 221.0789 744.0198 C 219.3576 747.6044 220.868 751.9057 224.4526 753.627 Z " fill="#5b9bd5" fill-rule="evenodd"/>
<path transform="matrix(.00003408505,.00007098043,-.00007098043,.00003408505,230.9431,467.2563)" stroke-width="12700" stroke-linecap="butt" stroke-miterlimit="8" stroke-linejoin="miter" fill="none" stroke="#5b9bd5" d="M 0 91440 C 0 40939.08 40939.08 0 91440 0 C 141940.9 0 182880 40939.08 182880 91440 C 182880 141940.9 141940.9 182880 91440 182880 C 40939.08 182880 0 141940.9 0 91440 Z "/>
<path transform="matrix(1,0,0,-1,0,1224)" d="M 471.7087 1154.539 C 474.9825 1156.796 479.4661 1155.971 481.7232 1152.698 C 483.9803 1149.424 483.1561 1144.94 479.8823 1142.683 C 476.6085 1140.426 472.1249 1141.25 469.8678 1144.524 C 467.6107 1147.798 468.4349 1152.281 471.7087 1154.539 Z " fill="#5b9bd5" fill-rule="evenodd"/>
<path transform="matrix(.00004469402,.00006482636,-.00006482636,.00004469402,477.6364,65.375)" stroke-width="12700" stroke-linecap="butt" stroke-miterlimit="8" stroke-linejoin="miter" fill="none" stroke="#5b9bd5" d="M 0 91440 C 0 40939.08 40939.08 0 91440 0 C 141940.9 0 182880 40939.08 182880 91440 C 182880 141940.9 141940.9 182880 91440 182880 C 40939.08 182880 0 141940.9 0 91440 Z "/>
<path transform="matrix(1,0,0,-1,0,1224)" d="M 317.435 1142.887 C 320.7088 1145.144 325.1924 1144.32 327.4495 1141.046 C 329.7066 1137.772 328.8824 1133.288 325.6086 1131.031 C 322.3348 1128.774 317.8512 1129.598 315.5941 1132.872 C 313.337 1136.146 314.1612 1140.63 317.435 1142.887 Z " fill="#5b9bd5" fill-rule="evenodd"/>
<path transform="matrix(.00004469402,.00006482636,-.00006482636,.00004469402,323.3627,77.026)" stroke-width="12700" stroke-linecap="butt" stroke-miterlimit="8" stroke-linejoin="miter" fill="none" stroke="#5b9bd5" d="M 0 91440 C 0 40939.08 40939.08 0 91440 0 C 141940.9 0 182880 40939.08 182880 91440 C 182880 141940.9 141940.9 182880 91440 182880 C 40939.08 182880 0 141940.9 0 91440 Z "/>
<path transform="matrix(1,0,0,-1,0,1224)" d="M 396.5704 1017.316 C 399.8442 1019.573 404.3279 1018.748 406.5849 1015.475 C 408.842 1012.201 408.0178 1007.717 404.744 1005.46 C 401.4703 1003.203 396.9866 1004.027 394.7295 1007.301 C 392.4724 1010.575 393.2966 1015.059 396.5704 1017.316 Z " fill="#5b9bd5" fill-rule="evenodd"/>
<path transform="matrix(.00004469402,.00006482636,-.00006482636,.00004469402,402.4981,202.59803)" stroke-width="12700" stroke-linecap="butt" stroke-miterlimit="8" stroke-linejoin="miter" fill="none" stroke="#5b9bd5" d="M 0 91440 C 0 40939.08 40939.08 0 91440 0 C 141940.9 0 182880 40939.08 182880 91440 C 182880 141940.9 141940.9 182880 91440 182880 C 40939.08 182880 0 141940.9 0 91440 Z "/>
<path transform="matrix(1,0,0,-1,0,1224)" d="M 308.0169 879.3469 C 311.2907 881.6039 315.7744 880.7797 318.0315 877.506 C 320.2886 874.2322 319.4644 869.7485 316.1906 867.4914 C 312.9168 865.2343 308.4331 866.0585 306.176 869.3323 C 303.9189 872.6061 304.7431 877.0898 308.0169 879.3469 Z " fill="#5b9bd5" fill-rule="evenodd"/>
<path transform="matrix(.00004469402,.00006482636,-.00006482636,.00004469402,313.9447,340.56629)" stroke-width="12700" stroke-linecap="butt" stroke-miterlimit="8" stroke-linejoin="miter" fill="none" stroke="#5b9bd5" d="M 0 91440 C 0 40939.08 40939.08 0 91440 0 C 141940.9 0 182880 40939.08 182880 91440 C 182880 141940.9 141940.9 182880 91440 182880 C 40939.08 182880 0 141940.9 0 91440 Z "/>
<path transform="matrix(1,0,0,-1,0,1224)" d="M 653.2883 658.3964 L 625.0321 632.2166 L 644.0045 611.7395 L 577.8037 626.5138 L 568.1151 693.6477 L 587.0875 673.1707 L 615.3436 699.3505 Z " fill="#ff0000" fill-rule="evenodd"/>
<path transform="matrix(-.0000577594,.00005351508,-.00005351508,-.0000577594,672.2606,586.0807)" stroke-width="12700" stroke-linecap="butt" stroke-miterlimit="8" stroke-linejoin="miter" fill="none" stroke="#ff0000" d="M 0 354523.3 L 489204 354523.3 L 489204 0 L 978408 709046.5 L 489204 1418093 L 489204 1063570 L 0 1063570 Z "/>
<path transform="matrix(1,0,0,-1,0,1224)" d="M 575.8567 310.7172 L 614.3767 310.7172 L 614.3767 338.6325 L 652.8967 282.802 L 614.3767 226.9716 L 614.3767 254.8868 L 575.8567 254.8868 Z " fill="#ff0000" fill-rule="evenodd"/>
<path transform="matrix(.00007874016,0,0,.00007874016,575.8567,885.3675)" stroke-width="12700" stroke-linecap="butt" stroke-miterlimit="8" stroke-linejoin="miter" fill="none" stroke="#ff0000" d="M 0 354523.3 L 489204 354523.3 L 489204 0 L 978408 709046.5 L 489204 1418093 L 489204 1063570 L 0 1063570 Z "/>
<text xml:space="preserve" transform="matrix(.24 0 -0 .24 565.0796 1622.4)" font-size="150" font-family="CambriaMath"><tspan y="-5100" x="0">+</tspan></text>
<text xml:space="preserve" transform="matrix(.24 0 -0 .24 591.9547 1622.4)" font-size="150" font-family="CambriaMath"><tspan y="-5100" x="0">&#x1d434;</tspan></text>
<text xml:space="preserve" transform="matrix(.24 0 -0 .24 614.7046 1629.84)" font-size="108.3333" font-family="CambriaMath"><tspan y="-5100" x="0 53.64665 114.00997">!"#</tspan></text>
<text xml:space="preserve" transform="matrix(.24 0 -0 .24 656.7046 1629.84)" font-size="108.3333" font-family="CambriaMath"><tspan y="-5100" x="0">,</tspan></text>
<text xml:space="preserve" transform="matrix(.24 0 -0 .24 551.6532 1867.2)" font-size="150" font-family="CambriaMath"><tspan y="-5100" x="0">+</tspan></text>
<text xml:space="preserve" transform="matrix(.24 0 -0 .24 578.5282 1867.2)" font-size="150" font-family="CambriaMath"><tspan y="-5100" x="0">&#x1d434;</tspan></text>
<text xml:space="preserve" transform="matrix(.24 0 -0 .24 601.2783 1874.64)" font-size="108.3333" font-family="CambriaMath"><tspan y="-5100" x="0 54.68665 122.91496 183.34328 218.7466">%&#x0026;'()</tspan></text>
<text xml:space="preserve" transform="matrix(.24 0 -0 .24 546.3755 2246.4)" font-size="150" font-family="CambriaMath"><tspan y="-5100" x="0">+</tspan></text>
<text xml:space="preserve" transform="matrix(.24 0 -0 .24 573.2505 2246.4)" font-size="150" font-family="CambriaMath"><tspan y="-5100" x="0">&#x1d434;</tspan></text>
<text xml:space="preserve" transform="matrix(.24 0 -0 .24 596.0005 2253.8399)" font-size="108.3333" font-family="CambriaMath"><tspan y="-5100" x="0 60.417486 114.11829 167.81912 233.43662">'!!*%</tspan></text>
<text xml:space="preserve" transform="matrix(.24 0 -0 .24 665.1255 2253.8399)" font-size="108.3333" font-family="CambriaMath"><tspan y="-5100" x="0">.</tspan></text>
<path transform="matrix(1,0,0,-1,0,1224)" d="M 740.4657 428.9016 C 740.4657 434.8663 745.301 439.7016 751.2657 439.7016 C 757.2303 439.7016 762.0657 434.8663 762.0657 428.9016 C 762.0657 422.9369 757.2303 418.1016 751.2657 418.1016 C 745.301 418.1016 740.4657 422.9369 740.4657 428.9016 Z " fill="#ff0000" fill-rule="evenodd"/>
<path transform="matrix(.00007874016,0,0,.00007874016,740.4657,784.2984)" stroke-width="12700" stroke-linecap="butt" stroke-miterlimit="8" stroke-linejoin="miter" fill="none" stroke="#ff0000" d="M 0 137160 C 0 61408.62 61408.62 0 137160 0 C 212911.4 0 274320 61408.62 274320 137160 C 274320 212911.4 212911.4 274320 137160 274320 C 61408.62 274320 0 212911.4 0 137160 Z "/>
<path transform="matrix(1,0,0,-1,0,1224)" d="M 815.3937 132.2214 C 815.3937 138.1861 820.229 143.0214 826.1937 143.0214 C 832.1583 143.0214 836.9937 138.1861 836.9937 132.2214 C 836.9937 126.2567 832.1583 121.4214 826.1937 121.4214 C 820.229 121.4214 815.3937 126.2567 815.3937 132.2214 Z " fill="#ff0000" fill-rule="evenodd"/>
<path transform="matrix(.00007874016,0,0,.00007874016,815.3937,1080.9786)" stroke-width="12700" stroke-linecap="butt" stroke-miterlimit="8" stroke-linejoin="miter" fill="none" stroke="#ff0000" d="M 0 137160 C 0 61408.62 61408.62 0 137160 0 C 212911.4 0 274320 61408.62 274320 137160 C 274320 212911.4 212911.4 274320 137160 274320 C 61408.62 274320 0 212911.4 0 137160 Z "/>
<path transform="matrix(1,0,0,-1,0,1224)" d="M 832.4528 120.7506 C 833.8817 126.5416 839.7347 130.0777 845.5256 128.6487 C 851.3166 127.2198 854.8527 121.3668 853.4238 115.5759 C 851.9948 109.7849 846.1419 106.2488 840.3509 107.6777 C 834.5599 109.1067 831.0238 114.9596 832.4528 120.7506 Z " fill="#ff0000" fill-rule="evenodd"/>
<path transform="matrix(.00007644717,.00001886381,-.00001886381,.00007644717,835.0401,1092.7639)" stroke-width="12700" stroke-linecap="butt" stroke-miterlimit="8" stroke-linejoin="miter" fill="none" stroke="#ff0000" d="M 0 137160 C 0 61408.62 61408.62 0 137160 0 C 212911.4 0 274320 61408.62 274320 137160 C 274320 212911.4 212911.4 274320 137160 274320 C 61408.62 274320 0 212911.4 0 137160 Z "/>
<path transform="matrix(1,0,0,-1,0,1224)" d="M 1100.992 225.8425 C 1102.421 231.6334 1108.274 235.1696 1114.065 233.7406 C 1119.856 232.3116 1123.392 226.4587 1121.963 220.6677 C 1120.534 214.8768 1114.681 211.3406 1108.89 212.7696 C 1103.099 214.1986 1099.563 220.0515 1100.992 225.8425 Z " fill="#ff0000" fill-rule="evenodd"/>
<path transform="matrix(.00007644717,.00001886381,-.00001886381,.00007644717,1103.58,987.672)" stroke-width="12700" stroke-linecap="butt" stroke-miterlimit="8" stroke-linejoin="miter" fill="none" stroke="#ff0000" d="M 0 137160 C 0 61408.62 61408.62 0 137160 0 C 212911.4 0 274320 61408.62 274320 137160 C 274320 212911.4 212911.4 274320 137160 274320 C 61408.62 274320 0 212911.4 0 137160 Z "/>
<path transform="matrix(1,0,0,-1,0,1224)" d="M 909.6938 265.8722 C 909.6938 271.8369 914.5291 276.6722 920.4938 276.6722 C 926.4585 276.6722 931.2938 271.8369 931.2938 265.8722 C 931.2938 259.9075 926.4585 255.0722 920.4938 255.0722 C 914.5291 255.0722 909.6938 259.9075 909.6938 265.8722 Z " fill="#ff0000" fill-rule="evenodd"/>
<path transform="matrix(.00007874016,0,0,.00007874016,909.6938,947.32778)" stroke-width="12700" stroke-linecap="butt" stroke-miterlimit="8" stroke-linejoin="miter" fill="none" stroke="#ff0000" d="M 0 137160 C 0 61408.62 61408.62 0 137160 0 C 212911.4 0 274320 61408.62 274320 137160 C 274320 212911.4 212911.4 274320 137160 274320 C 61408.62 274320 0 212911.4 0 137160 Z "/>
<path transform="matrix(1,0,0,-1,0,1224)" d="M 1127.136 474.3321 C 1127.136 480.2967 1131.971 485.1321 1137.936 485.1321 C 1143.9 485.1321 1148.736 480.2967 1148.736 474.3321 C 1148.736 468.3674 1143.9 463.5321 1137.936 463.5321 C 1131.971 463.5321 1127.136 468.3674 1127.136 474.3321 Z " fill="#ff0000" fill-rule="evenodd"/>
<path transform="matrix(.00007874016,0,0,.00007874016,1127.136,738.8679)" stroke-width="12700" stroke-linecap="butt" stroke-miterlimit="8" stroke-linejoin="miter" fill="none" stroke="#ff0000" d="M 0 137160 C 0 61408.62 61408.62 0 137160 0 C 212911.4 0 274320 61408.62 274320 137160 C 274320 212911.4 212911.4 274320 137160 274320 C 61408.62 274320 0 212911.4 0 137160 Z "/>
</g>
</svg>
