<svg width="1280" height="720" xmlns="http://www.w3.org/2000/svg" xmlns:xlink="http://www.w3.org/1999/xlink" overflow="hidden"><defs><clipPath id="clip0"><rect x="0" y="0" width="1280" height="720"/></clipPath></defs><g clip-path="url(#clip0)"><rect x="0" y="0" width="1280" height="720" fill="#FFFFFF"/><rect x="41.5001" y="143.5" width="349" height="346" stroke="#000000" stroke-width="1.33333" stroke-miterlimit="8" fill="#FFFFFF"/><path d="M168.5 405C168.5 369.93 197.825 341.5 234 341.5 270.175 341.5 299.5 369.93 299.5 405 299.5 440.07 270.175 468.5 234 468.5 197.825 468.5 168.5 440.07 168.5 405Z" stroke="#2F528F" stroke-width="1.33333" stroke-miterlimit="8" fill="#4472C4" fill-rule="evenodd"/><text font-family="Cambria Math,Cambria Math_MSFontService,sans-serif" font-weight="400" font-size="24" transform="translate(228.25 374)">𝜎</text><path d="M174.667 404 292.038 404 292.038 406 174.667 406ZM176 409 168 405 176 401ZM290.704 401 298.704 405 290.704 409Z" fill="#ED7D31"/><path d="M55.5001 247C55.5001 211.93 84.8254 183.5 121 183.5 157.175 183.5 186.5 211.93 186.5 247 186.5 282.07 157.175 310.5 121 310.5 84.8254 310.5 55.5001 282.07 55.5001 247Z" stroke="#2F528F" stroke-width="1.33333" stroke-miterlimit="8" fill="#4472C4" fill-rule="evenodd"/><text font-family="Cambria Math,Cambria Math_MSFontService,sans-serif" font-weight="400" font-size="24" transform="translate(114.702 216)">𝜎</text><path d="M61.6667 245 179.038 245 179.038 247 61.6667 247ZM63 250 55 246 63 242ZM177.704 242 185.704 246 177.704 250Z" fill="#ED7D31"/><path d="M248.5 280.5C248.5 245.154 277.602 216.5 313.5 216.5 349.399 216.5 378.5 245.154 378.5 280.5 378.5 315.846 349.399 344.5 313.5 344.5 277.602 344.5 248.5 315.846 248.5 280.5Z" stroke="#2F528F" stroke-width="1.33333" stroke-miterlimit="8" fill="#4472C4" fill-rule="evenodd"/><text font-family="Cambria Math,Cambria Math_MSFontService,sans-serif" font-weight="400" font-size="24" transform="translate(307.311 250)">𝜎</text><path d="M254.667 279 372.038 279 372.038 281 254.667 281ZM256 284 248 280 256 276ZM370.704 276 378.704 280 370.704 284Z" fill="#ED7D31"/><rect x="890.5" y="136.5" width="349" height="346" stroke="#000000" stroke-width="1.33333" stroke-miterlimit="8" fill="#FFFFFF"/><path d="M892.5 414C892.5 378.93 921.602 350.5 957.5 350.5 993.399 350.5 1022.5 378.93 1022.5 414 1022.5 449.07 993.399 477.5 957.5 477.5 921.602 477.5 892.5 449.07 892.5 414Z" stroke="#2F528F" stroke-width="1.33333" stroke-miterlimit="8" fill="#4472C4" fill-rule="evenodd"/><text font-family="Cambria Math,Cambria Math_MSFontService,sans-serif" font-weight="400" font-size="24" transform="translate(942.859 426)">𝜎</text><path d="M898.667 413 1016.04 413 1016.04 415 898.667 415ZM900 418 892 414 900 410ZM1014.7 410 1022.7 414 1014.7 418Z" fill="#ED7D31"/><path d="M998.5 318C998.5 282.93 1027.6 254.5 1063.5 254.5 1099.4 254.5 1128.5 282.93 1128.5 318 1128.5 353.07 1099.4 381.5 1063.5 381.5 1027.6 381.5 998.5 353.07 998.5 318Z" stroke="#2F528F" stroke-width="1.33333" stroke-miterlimit="8" fill="#4472C4" fill-rule="evenodd"/><text font-family="Cambria Math,Cambria Math_MSFontService,sans-serif" font-weight="400" font-size="24" transform="translate(1057.32 288)">𝜎</text><path d="M1004.67 317 1122.04 317 1122.04 319 1004.67 319ZM1006 322 998 318 1006 314ZM1120.7 314 1128.7 318 1120.7 322Z" fill="#ED7D31"/><path d="M1102.5 333.5C1102.5 298.154 1131.83 269.5 1168 269.5 1204.17 269.5 1233.5 298.154 1233.5 333.5 1233.5 368.846 1204.17 397.5 1168 397.5 1131.83 397.5 1102.5 368.846 1102.5 333.5Z" stroke="#2F528F" stroke-width="1.33333" stroke-miterlimit="8" fill="#4472C4" fill-rule="evenodd"/><text font-family="Cambria Math,Cambria Math_MSFontService,sans-serif" font-weight="400" font-size="24" transform="translate(1162.15 303)">𝜎</text><path d="M1108.67 332 1226.04 332 1226.04 334 1108.67 334ZM1110 337 1102 333 1110 329ZM1224.7 329 1232.7 333 1224.7 337Z" fill="#ED7D31"/><path d="M1010.5 420.5C1010.5 385.154 1039.83 356.5 1076 356.5 1112.17 356.5 1141.5 385.154 1141.5 420.5 1141.5 455.846 1112.17 484.5 1076 484.5 1039.83 484.5 1010.5 455.846 1010.5 420.5Z" stroke="#2F528F" stroke-width="1.33333" stroke-miterlimit="8" fill="#4472C4" fill-rule="evenodd"/><text font-family="Cambria Math,Cambria Math_MSFontService,sans-serif" font-weight="400" font-size="24" transform="translate(1070.26 390)">𝜎</text><path d="M1016.67 419 1134.04 419 1134.04 421 1016.67 421ZM1018 424 1010 420 1018 416ZM1132.7 416 1140.7 420 1132.7 424Z" fill="#ED7D31"/><path d="M1105.5 420.5C1105.5 385.154 1134.83 356.5 1171 356.5 1207.17 356.5 1236.5 385.154 1236.5 420.5 1236.5 455.846 1207.17 484.5 1171 484.5 1134.83 484.5 1105.5 455.846 1105.5 420.5Z" stroke="#2F528F" stroke-width="1.33333" stroke-miterlimit="8" fill="#4472C4" fill-rule="evenodd"/><text font-family="Cambria Math,Cambria Math_MSFontService,sans-serif" font-weight="400" font-size="24" transform="translate(1170.66 390)">𝜎</text><path d="M1111.67 419 1229.04 419 1229.04 421 1111.67 421ZM1113 424 1105 420 1113 416ZM1227.7 416 1235.7 420 1227.7 424Z" fill="#ED7D31"/><path d="M893.5 324.5C893.5 289.154 922.602 260.5 958.5 260.5 994.399 260.5 1023.5 289.154 1023.5 324.5 1023.5 359.846 994.399 388.5 958.5 388.5 922.602 388.5 893.5 359.846 893.5 324.5Z" stroke="#2F528F" stroke-width="1.33333" stroke-miterlimit="8" fill="#4472C4" fill-rule="evenodd"/><text font-family="Cambria Math,Cambria Math_MSFontService,sans-serif" font-weight="400" font-size="24" transform="translate(952.342 294)">𝜎</text><path d="M899.667 323 1017.04 323 1017.04 325 899.667 325ZM901 328 893 324 901 320ZM1015.7 320 1023.7 324 1015.7 328Z" fill="#ED7D31"/><path d="M892.5 209.5C892.5 174.154 921.602 145.5 957.5 145.5 993.399 145.5 1022.5 174.154 1022.5 209.5 1022.5 244.846 993.399 273.5 957.5 273.5 921.602 273.5 892.5 244.846 892.5 209.5Z" stroke="#2F528F" stroke-width="1.33333" stroke-miterlimit="8" fill="#4472C4" fill-rule="evenodd"/><text font-family="Cambria Math,Cambria Math_MSFontService,sans-serif" font-weight="400" font-size="24" transform="translate(951.523 179)">𝜎</text><path d="M898.667 208 1016.04 208 1016.04 210 898.667 210ZM900 213 892 209 900 205ZM1014.7 205 1022.7 209 1014.7 213Z" fill="#ED7D31"/><path d="M996.5 204C996.5 168.93 1025.83 140.5 1062 140.5 1098.17 140.5 1127.5 168.93 1127.5 204 1127.5 239.07 1098.17 267.5 1062 267.5 1025.83 267.5 996.5 239.07 996.5 204Z" stroke="#2F528F" stroke-width="1.33333" stroke-miterlimit="8" fill="#4472C4" fill-rule="evenodd"/><text font-family="Cambria Math,Cambria Math_MSFontService,sans-serif" font-weight="400" font-size="24" transform="translate(1055.89 173)">𝜎</text><path d="M1002.67 202 1120.04 202 1120.04 204 1002.67 204ZM1004 207 996 203 1004 199ZM1118.7 199 1126.7 203 1118.7 207Z" fill="#ED7D31"/><path d="M1100.5 210C1100.5 174.93 1129.83 146.5 1166 146.5 1202.17 146.5 1231.5 174.93 1231.5 210 1231.5 245.07 1202.17 273.5 1166 273.5 1129.83 273.5 1100.5 245.07 1100.5 210Z" stroke="#2F528F" stroke-width="1.33333" stroke-miterlimit="8" fill="#4472C4" fill-rule="evenodd"/><text font-family="Cambria Math,Cambria Math_MSFontService,sans-serif" font-weight="400" font-size="24" transform="translate(1160.13 179)">𝜎</text><path d="M1106.67 209 1224.04 209 1224.04 211 1106.67 211ZM1108 214 1100 210 1108 206ZM1222.7 206 1230.7 210 1222.7 214Z" fill="#ED7D31"/><path d="M527 286 723 286 723 258 779 314 723 370 723 342 527 342Z" fill="#4472C4" fill-rule="evenodd"/><text font-family="Cambria Math,Cambria Math_MSFontService,sans-serif" font-weight="400" font-size="24" transform="translate(606.589 210)">𝜂<tspan font-size="24" x="20.0333" y="0">→</tspan><tspan font-size="24" x="46.8666" y="0">1</tspan><tspan font-family="Arial,Arial_MSFontService,sans-serif" font-style="italic" font-size="24" x="-112.373" y="181">An unphysical lower</tspan><tspan font-family="Arial,Arial_MSFontService,sans-serif" font-style="italic" font-size="24" x="100.527" y="181">-</tspan><tspan font-family="Arial,Arial_MSFontService,sans-serif" font-style="italic" font-size="24" x="108.527" y="181">bound</tspan></text><path d="M494.249 393.994 566.249 393.994 638.249 393.994 710.249 393.994 782.249 393.994 782.249 395.994 710.249 395.994 638.249 395.994 566.249 395.994 494.249 395.994Z" fill-rule="evenodd"/></g></svg>